<?xml version="1.0" encoding="UTF-8"?>
<svg xmlns="http://www.w3.org/2000/svg" xmlns:xlink="http://www.w3.org/1999/xlink" width="1920" height="1080" viewBox="0 0 1920 1080">
<defs>
<g>
<g id="glyph-0-0">
<path d="M 6.652344 -2.613281 C 6.632812 -2.289062 6.621094 -1.730469 6.621094 -0.941406 C 6.621094 -0.171875 6.644531 0.363281 6.683594 0.667969 L 6.046875 0.667969 L 6.046875 0.03125 L 3.070312 0.03125 L 3.070312 0.730469 L 2.460938 0.730469 C 2.480469 0.386719 2.492188 -0.171875 2.492188 -0.941406 C 2.492188 -1.730469 2.480469 -2.289062 2.460938 -2.613281 L 6.652344 -2.613281 M 6.289062 -6.167969 C 6.390625 -5.945312 6.53125 -5.722656 6.714844 -5.5 C 6.25 -5.457031 5.527344 -5.382812 4.558594 -5.269531 C 3.585938 -5.160156 2.703125 -5.09375 1.914062 -5.074219 L 1.914062 -4.101562 L 6.320312 -4.101562 C 6.601562 -4.101562 6.917969 -4.113281 7.261719 -4.132812 L 7.261719 -3.523438 C 6.9375 -3.542969 6.621094 -3.554688 6.320312 -3.554688 L 1.914062 -3.554688 C 1.894531 -3.148438 1.859375 -2.722656 1.808594 -2.277344 C 1.757812 -1.832031 1.660156 -1.363281 1.519531 -0.867188 C 1.378906 -0.371094 1.195312 0.0507812 0.972656 0.394531 C 0.851562 0.292969 0.617188 0.183594 0.273438 0.0625 C 0.597656 -0.242188 0.839844 -0.695312 1.003906 -1.292969 C 1.164062 -1.886719 1.253906 -2.601562 1.277344 -3.433594 C 1.296875 -4.261719 1.304688 -4.972656 1.304688 -5.558594 C 2.296875 -5.578125 3.332031 -5.660156 4.40625 -5.800781 C 5.480469 -5.945312 6.105469 -6.066406 6.289062 -6.167969 M 6.046875 -0.457031 L 6.046875 -2.097656 L 3.070312 -2.097656 L 3.070312 -0.457031 Z "/>
</g>
<g id="glyph-0-1">
<path d="M 1.0625 -1.15625 L 2.15625 -1.15625 L 2.15625 0.0625 C 2.097656 0.566406 1.84375 0.941406 1.398438 1.183594 L 1.09375 0.910156 C 1.457031 0.707031 1.640625 0.40625 1.640625 0 L 1.0625 0 Z "/>
</g>
<g id="glyph-0-2">
<path d="M 4.890625 0.152344 C 5.175781 0.171875 5.382812 0.171875 5.515625 0.152344 C 5.644531 0.132812 5.710938 0.0117188 5.710938 -0.210938 L 5.710938 -1.0625 L 2.035156 -1.0625 L 2.035156 0.789062 L 1.367188 0.789062 C 1.40625 0.445312 1.429688 0.101562 1.429688 -0.242188 L 1.429688 -1.0625 C 0.960938 -1.0625 0.578125 -1.054688 0.273438 -1.03125 L 0.273438 -1.609375 C 0.558594 -1.570312 0.941406 -1.550781 1.429688 -1.550781 L 1.429688 -3.433594 C 1.429688 -3.878906 1.40625 -4.234375 1.367188 -4.496094 L 3.585938 -4.496094 L 3.585938 -5.4375 L 1.882812 -5.4375 C 1.476562 -5.4375 1.09375 -5.429688 0.730469 -5.40625 L 0.730469 -5.984375 C 1.09375 -5.964844 1.46875 -5.953125 1.851562 -5.953125 L 5.894531 -5.953125 C 6.359375 -5.953125 6.734375 -5.964844 7.019531 -5.984375 L 7.019531 -5.40625 C 6.734375 -5.429688 6.359375 -5.4375 5.894531 -5.4375 L 4.191406 -5.4375 L 4.191406 -4.496094 L 6.347656 -4.496094 C 6.328125 -4.234375 6.320312 -3.847656 6.320312 -3.34375 L 6.320312 -1.550781 C 6.824219 -1.550781 7.230469 -1.570312 7.535156 -1.609375 L 7.535156 -1.03125 C 7.25 -1.054688 6.84375 -1.0625 6.320312 -1.0625 L 6.320312 0.210938 C 6.320312 0.457031 6.21875 0.609375 6.015625 0.667969 C 5.8125 0.730469 5.527344 0.78125 5.164062 0.820312 C 5.105469 0.597656 5.011719 0.375 4.890625 0.152344 M 3.585938 -3.007812 L 3.585938 -4.039062 L 2.035156 -4.039062 L 2.035156 -3.007812 L 3.585938 -3.007812 M 5.710938 -3.007812 L 5.710938 -4.039062 L 4.191406 -4.039062 L 4.191406 -3.007812 L 5.710938 -3.007812 M 3.585938 -1.550781 L 3.585938 -2.550781 L 2.035156 -2.550781 L 2.035156 -1.550781 L 3.585938 -1.550781 M 5.710938 -1.550781 L 5.710938 -2.550781 L 4.191406 -2.550781 L 4.191406 -1.550781 Z "/>
</g>
<g id="glyph-0-3">
<path d="M 6.894531 -5.710938 C 6.875 -5.367188 6.867188 -4.910156 6.867188 -4.34375 L 6.867188 -3.34375 C 6.867188 -2.917969 6.875 -2.511719 6.894531 -2.125 L 3.765625 -2.125 C 3.789062 -2.511719 3.796875 -2.917969 3.796875 -3.34375 L 3.796875 -4.375 C 3.796875 -4.921875 3.789062 -5.367188 3.765625 -5.710938 L 6.894531 -5.710938 M 3.464844 -5.621094 C 3.261719 -5.578125 3.078125 -5.539062 2.917969 -5.5 C 2.753906 -5.457031 2.5625 -5.417969 2.339844 -5.378906 L 2.339844 -3.980469 C 2.824219 -3.980469 3.210938 -3.988281 3.492188 -4.011719 L 3.492188 -3.433594 C 3.210938 -3.453125 2.824219 -3.464844 2.339844 -3.464844 L 2.339844 -2.523438 C 2.5 -2.644531 2.632812 -2.753906 2.734375 -2.855469 C 3.058594 -2.390625 3.3125 -2.023438 3.492188 -1.761719 C 3.390625 -1.703125 3.21875 -1.578125 2.976562 -1.398438 C 2.816406 -1.742188 2.601562 -2.085938 2.339844 -2.429688 L 2.339844 -0.363281 C 2.339844 -0.0625 2.347656 0.335938 2.371094 0.820312 L 1.730469 0.820312 C 1.773438 0.335938 1.792969 -0.0625 1.792969 -0.363281 L 1.792969 -2.339844 C 1.628906 -1.976562 1.488281 -1.691406 1.367188 -1.488281 C 1.246094 -1.285156 1.054688 -1.003906 0.789062 -0.636719 C 0.628906 -0.78125 0.445312 -0.902344 0.242188 -1.003906 C 0.546875 -1.304688 0.832031 -1.679688 1.09375 -2.125 C 1.355469 -2.570312 1.550781 -3.019531 1.671875 -3.464844 C 1.386719 -3.464844 0.953125 -3.453125 0.363281 -3.433594 L 0.363281 -4.011719 C 0.953125 -3.988281 1.429688 -3.980469 1.792969 -3.980469 L 1.792969 -5.253906 C 1.386719 -5.195312 1.003906 -5.132812 0.636719 -5.074219 C 0.578125 -5.253906 0.507812 -5.4375 0.425781 -5.621094 C 0.6875 -5.601562 1.140625 -5.652344 1.777344 -5.773438 C 2.414062 -5.894531 2.855469 -6.027344 3.097656 -6.167969 C 3.242188 -5.925781 3.363281 -5.742188 3.464844 -5.621094 M 6.289062 -2.644531 L 6.289062 -5.226562 L 4.34375 -5.226562 L 4.34375 -2.644531 L 6.289062 -2.644531 M 4.890625 -1.304688 C 4.769531 -1.125 4.5625 -0.832031 4.269531 -0.425781 C 3.976562 -0.0195312 3.644531 0.386719 3.28125 0.789062 C 3.140625 0.648438 2.976562 0.507812 2.796875 0.363281 C 3.058594 0.160156 3.320312 -0.113281 3.585938 -0.457031 C 3.847656 -0.800781 4.101562 -1.214844 4.34375 -1.703125 C 4.546875 -1.539062 4.730469 -1.40625 4.890625 -1.304688 M 6.136719 -1.609375 C 6.320312 -1.367188 6.535156 -1.082031 6.789062 -0.757812 C 7.042969 -0.433594 7.292969 -0.0898438 7.535156 0.273438 C 7.292969 0.414062 7.097656 0.546875 6.957031 0.667969 C 6.816406 0.40625 6.601562 0.0664062 6.320312 -0.347656 C 6.035156 -0.765625 5.8125 -1.0625 5.652344 -1.246094 C 5.8125 -1.347656 5.976562 -1.46875 6.136719 -1.609375 Z "/>
</g>
<g id="glyph-0-4">
<path d="M 1.214844 0.789062 C 1.074219 0.566406 0.902344 0.394531 0.699219 0.273438 C 1.023438 0.152344 1.316406 0.00390625 1.578125 -0.167969 C 1.84375 -0.339844 2.074219 -0.550781 2.277344 -0.804688 C 2.480469 -1.058594 2.632812 -1.335938 2.734375 -1.640625 C 2.835938 -1.945312 2.90625 -2.320312 2.945312 -2.765625 C 2.480469 -2.765625 2.105469 -2.753906 1.824219 -2.734375 L 1.824219 -3.371094 C 2.148438 -3.351562 2.5625 -3.34375 3.070312 -3.34375 L 6.105469 -3.34375 C 6.066406 -3.039062 6.035156 -2.773438 6.015625 -2.550781 L 5.773438 -0.304688 C 5.730469 0.0625 5.570312 0.304688 5.285156 0.425781 C 5.003906 0.546875 4.6875 0.617188 4.34375 0.636719 C 4.324219 0.433594 4.222656 0.203125 4.039062 -0.0625 C 4.464844 -0.0390625 4.753906 -0.0546875 4.90625 -0.105469 C 5.058594 -0.15625 5.15625 -0.335938 5.195312 -0.636719 L 5.40625 -2.765625 L 3.585938 -2.765625 C 3.523438 -2.238281 3.4375 -1.796875 3.328125 -1.441406 C 3.214844 -1.089844 3.058594 -0.78125 2.855469 -0.515625 C 2.652344 -0.253906 2.410156 -0.0117188 2.125 0.210938 C 1.84375 0.433594 1.539062 0.628906 1.214844 0.789062 M 4.800781 -6.289062 C 4.941406 -5.863281 5.230469 -5.378906 5.664062 -4.832031 C 6.101562 -4.285156 6.714844 -3.808594 7.503906 -3.402344 C 7.34375 -3.261719 7.179688 -3.046875 7.019531 -2.765625 C 6.652344 -3.027344 6.335938 -3.277344 6.0625 -3.507812 C 5.789062 -3.742188 5.558594 -3.960938 5.378906 -4.160156 C 5.195312 -4.363281 4.992188 -4.652344 4.769531 -5.027344 C 4.546875 -5.402344 4.363281 -5.753906 4.222656 -6.074219 C 4.445312 -6.136719 4.636719 -6.207031 4.800781 -6.289062 M 3.28125 -5.863281 C 3.097656 -5.539062 2.945312 -5.253906 2.824219 -5.011719 C 2.703125 -4.769531 2.582031 -4.550781 2.460938 -4.359375 C 2.339844 -4.167969 2.15625 -3.910156 1.914062 -3.585938 C 1.671875 -3.261719 1.378906 -2.925781 1.03125 -2.582031 C 0.851562 -2.765625 0.667969 -2.90625 0.484375 -3.007812 C 0.890625 -3.371094 1.210938 -3.707031 1.441406 -4.011719 C 1.675781 -4.3125 1.898438 -4.644531 2.113281 -4.996094 C 2.324219 -5.351562 2.511719 -5.742188 2.671875 -6.167969 C 2.835938 -6.046875 3.039062 -5.945312 3.28125 -5.863281 Z "/>
</g>
</g>
</defs>
<g fill="rgb(100%, 100%, 100%)" fill-opacity="1">
<use xlink:href="#glyph-0-0" x="30" y="26.683594"/>
<use xlink:href="#glyph-0-1" x="38" y="26.683594"/>
<use xlink:href="#glyph-0-2" x="46" y="26.683594"/>
<use xlink:href="#glyph-0-3" x="54" y="26.683594"/>
<use xlink:href="#glyph-0-4" x="62" y="26.683594"/>
</g>
</svg>
