<?xml version="1.0" encoding="UTF-8"?>
<svg xmlns="http://www.w3.org/2000/svg" xmlns:xlink="http://www.w3.org/1999/xlink" width="1920" height="1080" viewBox="0 0 1920 1080">
<defs>
<g>
<g id="glyph-0-0">
<path d="M 1.488281 0 L 0.261719 0 L 0.261719 -0.242188 L 0.765625 -0.242188 L 0.765625 -1.664062 L 0.296875 -1.410156 L 0.203125 -1.632812 L 0.820312 -1.960938 L 1.050781 -1.960938 L 1.050781 -0.242188 L 1.488281 -0.242188 Z "/>
</g>
<g id="glyph-0-1">
<path d="M 1.550781 -0.972656 C 1.550781 -0.824219 1.535156 -0.6875 1.503906 -0.566406 C 1.472656 -0.445312 1.429688 -0.339844 1.367188 -0.25 C 1.308594 -0.160156 1.230469 -0.09375 1.140625 -0.046875 C 1.050781 0.00390625 0.945312 0.0273438 0.824219 0.0273438 C 0.722656 0.0273438 0.625 0.0078125 0.539062 -0.03125 C 0.453125 -0.0703125 0.382812 -0.132812 0.320312 -0.214844 C 0.261719 -0.296875 0.214844 -0.398438 0.179688 -0.523438 C 0.148438 -0.652344 0.132812 -0.800781 0.132812 -0.972656 C 0.132812 -1.125 0.144531 -1.261719 0.175781 -1.382812 C 0.207031 -1.507812 0.253906 -1.613281 0.3125 -1.699219 C 0.371094 -1.789062 0.449219 -1.855469 0.539062 -1.90625 C 0.628906 -1.953125 0.734375 -1.976562 0.855469 -1.976562 C 0.960938 -1.976562 1.054688 -1.957031 1.140625 -1.917969 C 1.226562 -1.878906 1.296875 -1.816406 1.359375 -1.734375 C 1.421875 -1.652344 1.46875 -1.550781 1.5 -1.421875 C 1.53125 -1.296875 1.550781 -1.148438 1.550781 -0.972656 M 1.285156 -0.964844 C 1.285156 -1 1.285156 -1.03125 1.28125 -1.066406 C 1.28125 -1.097656 1.277344 -1.132812 1.273438 -1.164062 L 0.449219 -0.550781 C 0.464844 -0.5 0.484375 -0.449219 0.503906 -0.40625 C 0.527344 -0.363281 0.554688 -0.324219 0.589844 -0.292969 C 0.621094 -0.261719 0.65625 -0.238281 0.699219 -0.222656 C 0.742188 -0.203125 0.789062 -0.195312 0.839844 -0.195312 C 0.90625 -0.195312 0.96875 -0.210938 1.023438 -0.246094 C 1.078125 -0.277344 1.125 -0.328125 1.164062 -0.390625 C 1.203125 -0.457031 1.234375 -0.535156 1.253906 -0.632812 C 1.277344 -0.726562 1.285156 -0.839844 1.285156 -0.964844 M 0.394531 -0.984375 C 0.394531 -0.953125 0.394531 -0.921875 0.394531 -0.890625 C 0.394531 -0.859375 0.398438 -0.832031 0.398438 -0.800781 L 1.226562 -1.410156 C 1.210938 -1.460938 1.191406 -1.507812 1.167969 -1.550781 C 1.144531 -1.59375 1.117188 -1.628906 1.085938 -1.660156 C 1.054688 -1.6875 1.019531 -1.710938 0.976562 -1.730469 C 0.9375 -1.746094 0.890625 -1.753906 0.839844 -1.753906 C 0.773438 -1.753906 0.710938 -1.738281 0.65625 -1.707031 C 0.601562 -1.671875 0.554688 -1.625 0.515625 -1.558594 C 0.476562 -1.492188 0.445312 -1.414062 0.425781 -1.316406 C 0.40625 -1.222656 0.394531 -1.109375 0.394531 -0.984375 Z "/>
</g>
<g id="glyph-0-2">
<path d="M 1.453125 -0.625 C 1.453125 -0.527344 1.433594 -0.4375 1.390625 -0.359375 C 1.351562 -0.28125 1.292969 -0.210938 1.21875 -0.15625 C 1.148438 -0.0976562 1.058594 -0.0507812 0.960938 -0.0195312 C 0.863281 0.0117188 0.753906 0.0273438 0.636719 0.0273438 C 0.609375 0.0273438 0.578125 0.0273438 0.546875 0.0234375 C 0.511719 0.0234375 0.480469 0.0195312 0.445312 0.0195312 C 0.414062 0.015625 0.382812 0.0117188 0.351562 0.0117188 C 0.320312 0.0078125 0.289062 0.00390625 0.265625 0 L 0.265625 -0.234375 C 0.320312 -0.222656 0.378906 -0.214844 0.449219 -0.207031 C 0.519531 -0.203125 0.589844 -0.199219 0.660156 -0.199219 C 0.738281 -0.199219 0.8125 -0.207031 0.875 -0.226562 C 0.9375 -0.246094 0.992188 -0.273438 1.035156 -0.308594 C 1.082031 -0.34375 1.117188 -0.386719 1.140625 -0.4375 C 1.164062 -0.488281 1.175781 -0.542969 1.175781 -0.605469 C 1.175781 -0.726562 1.132812 -0.816406 1.046875 -0.871094 C 0.957031 -0.925781 0.832031 -0.953125 0.671875 -0.953125 L 0.300781 -0.953125 L 0.300781 -1.949219 L 1.351562 -1.949219 L 1.351562 -1.722656 L 0.542969 -1.722656 L 0.542969 -1.175781 L 0.714844 -1.175781 C 0.808594 -1.175781 0.898438 -1.167969 0.988281 -1.152344 C 1.078125 -1.132812 1.15625 -1.105469 1.222656 -1.0625 C 1.292969 -1.019531 1.347656 -0.960938 1.390625 -0.890625 C 1.433594 -0.820312 1.453125 -0.730469 1.453125 -0.625 Z "/>
</g>
</g>
</defs>
<g fill="rgb(90.980392%, 92.54902%, 94.509804%)" fill-opacity="1">
<use xlink:href="#glyph-0-0" x="30" y="22.269531"/>
<use xlink:href="#glyph-0-1" x="32" y="22.269531"/>
<use xlink:href="#glyph-0-2" x="34" y="22.269531"/>
</g>
</svg>
