<?xml version="1.0" encoding="UTF-8"?>
<svg xmlns="http://www.w3.org/2000/svg" xmlns:xlink="http://www.w3.org/1999/xlink" width="1920" height="1080" viewBox="0 0 1920 1080">
<defs>
<g>
<g id="glyph-0-0">
<path d="M 2.214844 -1.074219 C 2.105469 -1.203125 1.941406 -1.355469 1.726562 -1.53125 C 2.332031 -2.117188 2.734375 -2.941406 2.929688 -4.003906 L 1.53125 -4.003906 L 1.53125 0.652344 L 0.878906 0.652344 C 0.902344 0.0664062 0.910156 -0.445312 0.910156 -0.878906 L 0.910156 -3.449219 C 0.910156 -3.734375 0.902344 -4.101562 0.878906 -4.558594 L 2.996094 -4.558594 C 3.015625 -4.925781 3.039062 -5.347656 3.058594 -5.828125 L 1.464844 -5.828125 C 1.203125 -5.828125 0.945312 -5.816406 0.683594 -5.792969 L 0.683594 -6.378906 C 0.945312 -6.359375 1.195312 -6.347656 1.433594 -6.347656 L 6.835938 -6.347656 C 7.054688 -6.347656 7.367188 -6.359375 7.78125 -6.378906 L 7.78125 -5.792969 C 7.476562 -5.816406 7.171875 -5.828125 6.867188 -5.828125 L 5.597656 -5.828125 C 5.597656 -5.5 5.578125 -5.078125 5.535156 -4.558594 L 7.488281 -4.558594 C 7.464844 -4.167969 7.453125 -3.832031 7.453125 -3.546875 L 7.453125 -0.324219 C 7.453125 0.0429688 7.339844 0.28125 7.113281 0.390625 C 6.882812 0.5 6.457031 0.585938 5.828125 0.652344 C 5.761719 0.347656 5.652344 0.0976562 5.5 -0.0976562 C 6.152344 -0.0742188 6.539062 -0.0976562 6.65625 -0.164062 C 6.777344 -0.226562 6.835938 -0.390625 6.835938 -0.652344 L 6.835938 -4.003906 L 5.46875 -4.003906 C 5.425781 -3.636719 5.359375 -3.289062 5.273438 -2.960938 C 5.882812 -2.484375 6.347656 -2.105469 6.671875 -1.824219 C 6.476562 -1.648438 6.316406 -1.476562 6.183594 -1.300781 C 5.96875 -1.585938 5.621094 -1.929688 5.144531 -2.34375 C 4.859375 -1.648438 4.558594 -1.074219 4.230469 -0.617188 C 4.015625 -0.769531 3.808594 -0.878906 3.613281 -0.945312 C 3.875 -1.226562 4.125 -1.621094 4.363281 -2.132812 C 4.601562 -2.640625 4.761719 -3.265625 4.851562 -4.003906 L 3.546875 -4.003906 C 3.484375 -3.679688 3.417969 -3.394531 3.351562 -3.15625 C 3.785156 -2.789062 4.089844 -2.496094 4.265625 -2.277344 C 4.113281 -2.148438 3.949219 -1.996094 3.777344 -1.824219 C 3.539062 -2.171875 3.332031 -2.429688 3.15625 -2.605469 C 2.917969 -2.039062 2.605469 -1.53125 2.214844 -1.074219 M 4.914062 -4.558594 C 4.9375 -5.078125 4.949219 -5.5 4.949219 -5.828125 L 3.679688 -5.828125 C 3.679688 -5.5 3.65625 -5.078125 3.613281 -4.558594 Z "/>
</g>
<g id="glyph-0-1">
<path d="M 5.5 -5.207031 C 5.5 -6.054688 5.492188 -6.609375 5.46875 -6.867188 L 6.152344 -6.867188 C 6.128906 -6.628906 6.121094 -6.078125 6.121094 -5.207031 L 7.8125 -5.207031 C 7.789062 -4.96875 7.78125 -4.644531 7.78125 -4.230469 L 7.78125 -2.019531 C 7.78125 -1.78125 7.789062 -1.507812 7.8125 -1.203125 L 7.160156 -1.203125 L 7.160156 -1.855469 L 6.121094 -1.855469 L 6.121094 -0.488281 C 6.121094 0.0742188 6.128906 0.542969 6.152344 0.910156 L 5.46875 0.910156 C 5.492188 0.542969 5.5 0.0742188 5.5 -0.488281 L 5.5 -1.855469 L 4.460938 -1.855469 L 4.460938 -1.074219 L 3.808594 -1.074219 C 3.832031 -1.335938 3.839844 -1.628906 3.839844 -1.953125 L 3.839844 -4.167969 C 3.839844 -4.621094 3.832031 -4.96875 3.808594 -5.207031 L 5.5 -5.207031 M 0.457031 -4.230469 C 0.78125 -4.210938 1.160156 -4.199219 1.59375 -4.199219 L 1.855469 -4.199219 L 1.855469 -5.632812 C 1.636719 -5.566406 1.269531 -5.480469 0.75 -5.371094 C 0.660156 -5.566406 0.5625 -5.761719 0.457031 -5.957031 C 0.933594 -5.980469 1.394531 -6.050781 1.839844 -6.167969 C 2.285156 -6.289062 2.691406 -6.445312 3.058594 -6.640625 C 3.191406 -6.46875 3.351562 -6.261719 3.546875 -6.023438 C 3.332031 -6 3.148438 -5.96875 2.996094 -5.925781 C 2.84375 -5.882812 2.667969 -5.835938 2.472656 -5.792969 L 2.472656 -4.199219 C 2.757812 -4.199219 3.101562 -4.210938 3.515625 -4.230469 L 3.515625 -3.644531 C 3.101562 -3.667969 2.757812 -3.679688 2.472656 -3.679688 L 2.472656 -0.292969 C 2.472656 0.0117188 2.484375 0.390625 2.507812 0.847656 L 1.824219 0.847656 C 1.84375 0.390625 1.855469 0.0117188 1.855469 -0.292969 L 1.855469 -2.441406 C 1.683594 -2.007812 1.523438 -1.660156 1.382812 -1.398438 C 1.242188 -1.140625 1.050781 -0.824219 0.8125 -0.457031 C 0.640625 -0.695312 0.476562 -0.910156 0.324219 -1.105469 C 0.628906 -1.433594 0.90625 -1.8125 1.15625 -2.246094 C 1.40625 -2.679688 1.585938 -3.15625 1.691406 -3.679688 L 1.203125 -3.679688 C 0.902344 -3.679688 0.652344 -3.667969 0.457031 -3.644531 L 0.457031 -4.230469 M 5.5 -2.375 L 5.5 -4.6875 L 4.460938 -4.6875 L 4.460938 -2.375 L 5.5 -2.375 M 7.160156 -2.375 L 7.160156 -4.6875 L 6.121094 -4.6875 L 6.121094 -2.375 L 7.160156 -2.375 M 3.09375 -3.222656 C 3.15625 -3.070312 3.246094 -2.917969 3.351562 -2.765625 C 3.460938 -2.613281 3.582031 -2.398438 3.710938 -2.117188 C 3.515625 -2.027344 3.332031 -1.921875 3.15625 -1.789062 C 3.050781 -2.027344 2.957031 -2.230469 2.878906 -2.390625 C 2.804688 -2.554688 2.703125 -2.722656 2.570312 -2.898438 C 2.703125 -2.984375 2.875 -3.09375 3.09375 -3.222656 Z "/>
</g>
<g id="glyph-0-2">
<path d="M 7.585938 -6.316406 C 7.5625 -6.03125 7.550781 -5.414062 7.550781 -4.460938 C 7.550781 -3.527344 7.5625 -2.855469 7.585938 -2.441406 L 5.792969 -2.441406 L 5.792969 -1.464844 L 6.769531 -1.464844 C 7.160156 -1.464844 7.464844 -1.476562 7.683594 -1.496094 L 7.683594 -0.910156 C 7.445312 -0.933594 7.140625 -0.945312 6.769531 -0.945312 L 5.792969 -0.945312 L 5.792969 0.164062 L 6.964844 0.164062 C 7.378906 0.164062 7.726562 0.152344 8.007812 0.128906 L 8.007812 0.714844 C 7.726562 0.695312 7.390625 0.683594 7 0.683594 L 3.839844 0.683594 C 3.492188 0.683594 3.191406 0.695312 2.929688 0.714844 L 2.929688 0.128906 C 3.210938 0.152344 3.515625 0.164062 3.839844 0.164062 L 5.175781 0.164062 L 5.175781 -0.945312 L 4.101562 -0.945312 C 3.820312 -0.945312 3.570312 -0.933594 3.351562 -0.910156 L 3.351562 -1.496094 C 3.570312 -1.476562 3.820312 -1.464844 4.101562 -1.464844 L 5.175781 -1.464844 L 5.175781 -2.441406 L 3.417969 -2.441406 C 3.441406 -2.765625 3.449219 -3.429688 3.449219 -4.425781 C 3.449219 -5.425781 3.441406 -6.054688 3.417969 -6.316406 L 7.585938 -6.316406 M 2.277344 -5.890625 C 2.515625 -5.890625 2.777344 -5.902344 3.058594 -5.925781 L 3.058594 -5.304688 C 2.757812 -5.328125 2.496094 -5.339844 2.277344 -5.339844 L 1.984375 -5.339844 L 1.984375 -3.582031 C 2.289062 -3.582031 2.59375 -3.589844 2.898438 -3.613281 L 2.898438 -2.996094 C 2.59375 -3.015625 2.289062 -3.027344 1.984375 -3.027344 L 1.984375 -0.945312 C 2.398438 -1.097656 2.746094 -1.238281 3.027344 -1.367188 C 3.070312 -1.148438 3.113281 -0.964844 3.15625 -0.8125 C 2.746094 -0.683594 2.285156 -0.515625 1.773438 -0.308594 C 1.265625 -0.101562 0.867188 0.0859375 0.585938 0.261719 C 0.5 0.0429688 0.402344 -0.183594 0.292969 -0.421875 C 0.574219 -0.464844 0.945312 -0.585938 1.398438 -0.78125 L 1.398438 -3.027344 C 1.007812 -3.027344 0.671875 -3.015625 0.390625 -2.996094 L 0.390625 -3.613281 C 0.695312 -3.589844 1.03125 -3.582031 1.398438 -3.582031 L 1.398438 -5.339844 L 1.007812 -5.339844 C 0.8125 -5.339844 0.574219 -5.328125 0.292969 -5.304688 L 0.292969 -5.925781 C 0.574219 -5.902344 0.8125 -5.890625 1.007812 -5.890625 L 2.277344 -5.890625 M 6.933594 -2.960938 L 6.933594 -4.132812 L 5.792969 -4.132812 L 5.792969 -2.960938 L 6.933594 -2.960938 M 6.933594 -4.621094 L 6.933594 -5.792969 L 5.792969 -5.792969 L 5.792969 -4.621094 L 6.933594 -4.621094 M 5.175781 -2.960938 L 5.175781 -4.132812 L 4.070312 -4.132812 L 4.070312 -2.960938 L 5.175781 -2.960938 M 5.175781 -4.621094 L 5.175781 -5.792969 L 4.070312 -5.792969 L 4.070312 -4.621094 Z "/>
</g>
<g id="glyph-0-3">
<path d="M 2.507812 -6.542969 C 2.332031 -6.457031 2.203125 -6.261719 2.117188 -5.957031 L 3.808594 -5.957031 C 3.699219 -5.804688 3.558594 -5.597656 3.386719 -5.339844 C 3.210938 -5.078125 3.09375 -4.882812 3.027344 -4.753906 L 4.199219 -4.753906 C 4.15625 -4.320312 4.132812 -3.882812 4.132812 -3.449219 L 4.132812 -0.0976562 C 4.132812 0.164062 4.0625 0.332031 3.921875 0.40625 C 3.78125 0.484375 3.558594 0.542969 3.253906 0.585938 C 3.210938 0.347656 3.148438 0.121094 3.058594 -0.0976562 C 3.234375 -0.0976562 3.363281 -0.101562 3.449219 -0.113281 C 3.539062 -0.125 3.582031 -0.226562 3.582031 -0.421875 L 3.582031 -1.496094 L 2.898438 -1.496094 L 2.898438 0.03125 L 2.34375 0.03125 L 2.34375 -1.496094 L 1.660156 -1.496094 C 1.636719 -1.171875 1.585938 -0.835938 1.496094 -0.488281 C 1.410156 -0.140625 1.269531 0.238281 1.074219 0.652344 C 0.878906 0.542969 0.671875 0.433594 0.457031 0.324219 C 0.671875 0.0234375 0.835938 -0.351562 0.945312 -0.796875 C 1.050781 -1.242188 1.117188 -1.8125 1.140625 -2.507812 C 1.160156 -3.199219 1.160156 -3.894531 1.140625 -4.589844 C 0.964844 -4.394531 0.824219 -4.242188 0.714844 -4.132812 C 0.585938 -4.308594 0.433594 -4.460938 0.261719 -4.589844 C 0.585938 -4.851562 0.882812 -5.171875 1.15625 -5.550781 C 1.425781 -5.929688 1.648438 -6.378906 1.824219 -6.902344 C 1.996094 -6.792969 2.222656 -6.671875 2.507812 -6.542969 M 5.632812 -3.15625 C 5.523438 -3.070312 5.445312 -2.941406 5.402344 -2.765625 L 5.957031 -2.765625 C 5.957031 -3.222656 5.945312 -3.527344 5.925781 -3.679688 L 6.574219 -3.679688 C 6.53125 -3.484375 6.511719 -3.179688 6.511719 -2.765625 L 6.964844 -2.765625 C 7.292969 -2.765625 7.550781 -2.777344 7.746094 -2.800781 L 7.746094 -2.214844 C 7.464844 -2.257812 7.183594 -2.277344 6.902344 -2.277344 L 6.511719 -2.277344 L 6.511719 -1.335938 L 6.738281 -1.335938 C 7.152344 -1.335938 7.574219 -1.34375 8.007812 -1.367188 L 8.007812 -0.8125 C 7.59375 -0.835938 7.171875 -0.847656 6.738281 -0.847656 L 6.511719 -0.847656 L 6.511719 -0.292969 C 6.511719 0.0117188 6.519531 0.390625 6.542969 0.847656 L 5.925781 0.847656 C 5.945312 0.390625 5.957031 0.0117188 5.957031 -0.292969 L 5.957031 -0.847656 L 5.242188 -0.847656 C 5.003906 -0.847656 4.699219 -0.835938 4.328125 -0.8125 L 4.328125 -1.367188 C 4.65625 -1.34375 4.957031 -1.335938 5.242188 -1.335938 L 5.957031 -1.335938 L 5.957031 -2.277344 L 5.144531 -2.277344 C 5.078125 -2.105469 4.980469 -1.886719 4.851562 -1.628906 C 4.699219 -1.714844 4.523438 -1.832031 4.328125 -1.984375 C 4.480469 -2.160156 4.613281 -2.386719 4.71875 -2.667969 C 4.828125 -2.953125 4.914062 -3.222656 4.980469 -3.484375 L 5.632812 -3.15625 M 6.378906 -3.875 C 6.335938 -4.113281 6.261719 -4.339844 6.152344 -4.558594 C 6.390625 -4.558594 6.582031 -4.566406 6.722656 -4.589844 C 6.863281 -4.613281 6.945312 -4.675781 6.964844 -4.785156 C 6.988281 -4.894531 7.019531 -5.273438 7.0625 -5.925781 L 5.890625 -5.925781 C 5.761719 -5.316406 5.632812 -4.878906 5.5 -4.605469 C 5.371094 -4.335938 5.164062 -4.035156 4.882812 -3.710938 C 4.753906 -3.882812 4.578125 -4.046875 4.363281 -4.199219 C 4.601562 -4.371094 4.796875 -4.59375 4.949219 -4.867188 C 5.101562 -5.136719 5.207031 -5.492188 5.273438 -5.925781 C 5.011719 -5.925781 4.699219 -5.914062 4.328125 -5.890625 L 4.328125 -6.445312 C 4.675781 -6.421875 4.992188 -6.414062 5.273438 -6.414062 L 7.714844 -6.414062 C 7.648438 -5.347656 7.589844 -4.710938 7.535156 -4.492188 C 7.480469 -4.273438 7.347656 -4.125 7.128906 -4.035156 C 6.910156 -3.949219 6.664062 -3.894531 6.378906 -3.875 M 2.375 -4.753906 C 2.550781 -4.96875 2.703125 -5.207031 2.832031 -5.46875 L 1.789062 -5.46875 C 1.59375 -5.207031 1.421875 -4.96875 1.269531 -4.753906 L 2.375 -4.753906 M 3.582031 -2.019531 L 3.582031 -2.898438 L 2.898438 -2.898438 L 2.898438 -2.019531 L 3.582031 -2.019531 M 3.582031 -3.386719 L 3.582031 -4.265625 L 2.898438 -4.265625 L 2.898438 -3.386719 L 3.582031 -3.386719 M 2.34375 -2.019531 L 2.34375 -2.898438 L 1.726562 -2.898438 L 1.691406 -2.019531 L 2.34375 -2.019531 M 2.34375 -3.386719 L 2.34375 -4.265625 L 1.726562 -4.265625 L 1.726562 -3.386719 Z "/>
</g>
<g id="glyph-0-4">
<path d="M 0.554688 -5.175781 C 0.902344 -5.152344 1.28125 -5.144531 1.691406 -5.144531 L 6.542969 -5.144531 C 7.0625 -5.144531 7.488281 -5.152344 7.8125 -5.175781 L 7.8125 -4.523438 C 7.53125 -4.546875 7.140625 -4.558594 6.640625 -4.558594 L 3.289062 -4.558594 C 3.289062 -4.320312 3.277344 -3.882812 3.253906 -3.253906 L 6.902344 -3.253906 C 6.859375 -2.972656 6.8125 -2.5625 6.769531 -2.019531 L 6.574219 -0.226562 C 6.53125 0.164062 6.347656 0.417969 6.023438 0.535156 C 5.695312 0.65625 5.21875 0.75 4.589844 0.8125 C 4.566406 0.53125 4.480469 0.28125 4.328125 0.0664062 C 4.828125 0.0859375 5.207031 0.0664062 5.46875 0 C 5.730469 -0.0664062 5.890625 -0.25 5.957031 -0.554688 L 6.152344 -2.667969 L 3.222656 -2.667969 C 3.136719 -2.0625 3 -1.550781 2.816406 -1.140625 C 2.632812 -0.726562 2.375 -0.347656 2.050781 0 C 1.726562 0.347656 1.398438 0.652344 1.074219 0.910156 C 0.988281 0.78125 0.792969 0.628906 0.488281 0.457031 C 0.769531 0.304688 1.070312 0.0664062 1.382812 -0.261719 C 1.699219 -0.585938 1.957031 -0.953125 2.164062 -1.367188 C 2.371094 -1.78125 2.5 -2.234375 2.554688 -2.734375 C 2.609375 -3.234375 2.636719 -3.839844 2.636719 -4.558594 L 1.726562 -4.558594 C 1.246094 -4.558594 0.855469 -4.546875 0.554688 -4.523438 L 0.554688 -5.175781 M 4.003906 -5.304688 C 3.808594 -5.738281 3.589844 -6.140625 3.351562 -6.511719 C 3.546875 -6.617188 3.742188 -6.738281 3.9375 -6.867188 C 4.175781 -6.5 4.417969 -6.097656 4.65625 -5.664062 C 4.4375 -5.578125 4.222656 -5.457031 4.003906 -5.304688 Z "/>
</g>
<g id="glyph-0-5">
<path d="M 4.296875 -5.078125 C 4.253906 -5.835938 4.222656 -6.414062 4.199219 -6.804688 C 4.328125 -6.78125 4.613281 -6.761719 5.046875 -6.738281 C 5.003906 -6.585938 4.992188 -6.03125 5.011719 -5.078125 L 6.316406 -5.078125 C 6.726562 -5.078125 7.152344 -5.089844 7.585938 -5.109375 L 7.585938 -4.460938 C 7.195312 -4.480469 6.78125 -4.492188 6.347656 -4.492188 L 5.046875 -4.492188 C 5.109375 -3.929688 5.203125 -3.402344 5.320312 -2.914062 C 5.441406 -2.425781 5.597656 -1.964844 5.792969 -1.53125 C 5.988281 -1.097656 6.246094 -0.710938 6.558594 -0.375 C 6.875 -0.0390625 7.0625 -0.0234375 7.128906 -0.324219 C 7.195312 -0.628906 7.214844 -0.933594 7.195312 -1.238281 C 7.390625 -1.085938 7.660156 -0.945312 8.007812 -0.8125 C 7.855469 0.121094 7.632812 0.617188 7.339844 0.683594 C 7.046875 0.75 6.753906 0.679688 6.460938 0.472656 C 6.167969 0.265625 5.890625 -0.03125 5.632812 -0.421875 C 5.371094 -0.8125 5.160156 -1.242188 4.996094 -1.707031 C 4.832031 -2.175781 4.699219 -2.660156 4.589844 -3.15625 C 4.480469 -3.65625 4.40625 -4.101562 4.363281 -4.492188 L 1.984375 -4.492188 C 1.355469 -4.492188 0.847656 -4.480469 0.457031 -4.460938 L 0.457031 -5.109375 C 0.867188 -5.089844 1.367188 -5.078125 1.953125 -5.078125 L 4.296875 -5.078125 M 2.929688 -3.351562 C 3.34375 -3.351562 3.734375 -3.363281 4.101562 -3.386719 L 4.101562 -2.765625 C 3.710938 -2.789062 3.296875 -2.800781 2.863281 -2.800781 L 2.863281 -0.75 C 3.320312 -0.855469 3.839844 -0.988281 4.425781 -1.140625 L 4.425781 -0.554688 C 3.644531 -0.402344 3.027344 -0.253906 2.570312 -0.113281 C 2.117188 0.0273438 1.5625 0.226562 0.910156 0.488281 L 0.585938 -0.292969 C 0.847656 -0.316406 1.390625 -0.414062 2.214844 -0.585938 L 2.214844 -2.800781 C 1.585938 -2.800781 1.148438 -2.789062 0.910156 -2.765625 L 0.910156 -3.386719 C 1.148438 -3.363281 1.488281 -3.351562 1.921875 -3.351562 L 2.929688 -3.351562 M 6.121094 -6.609375 C 6.53125 -6.152344 6.824219 -5.816406 7 -5.597656 C 6.890625 -5.554688 6.683594 -5.425781 6.378906 -5.207031 C 6.226562 -5.46875 5.957031 -5.792969 5.566406 -6.183594 C 5.675781 -6.273438 5.859375 -6.414062 6.121094 -6.609375 Z "/>
</g>
<g id="glyph-0-6">
<path d="M 2.375 -3.15625 L 1.628906 -3.15625 L 1.628906 -3.875 L 2.375 -3.875 L 2.375 -3.15625 M 2.375 -0.164062 L 1.628906 -0.164062 L 1.628906 -0.878906 L 2.375 -0.878906 Z "/>
</g>
</g>
</defs>
<g fill="rgb(100%, 100%, 100%)" fill-opacity="1">
<use xlink:href="#glyph-0-0" x="30" y="27.161133"/>
<use xlink:href="#glyph-0-1" x="38" y="27.161133"/>
<use xlink:href="#glyph-0-2" x="46" y="27.161133"/>
<use xlink:href="#glyph-0-3" x="54" y="27.161133"/>
<use xlink:href="#glyph-0-4" x="62" y="27.161133"/>
<use xlink:href="#glyph-0-5" x="70" y="27.161133"/>
<use xlink:href="#glyph-0-6" x="78" y="27.161133"/>
</g>
</svg>
