<?xml version="1.0" encoding="UTF-8"?>
<svg xmlns="http://www.w3.org/2000/svg" xmlns:xlink="http://www.w3.org/1999/xlink" width="1920" height="1080" viewBox="0 0 1920 1080">
<defs>
<g>
<g id="glyph-0-0">
<path d="M 1.527344 -0.617188 C 1.527344 -0.527344 1.511719 -0.445312 1.480469 -0.367188 C 1.445312 -0.285156 1.402344 -0.21875 1.339844 -0.160156 C 1.28125 -0.101562 1.210938 -0.0546875 1.125 -0.0234375 C 1.042969 0.0117188 0.949219 0.0273438 0.847656 0.0273438 C 0.738281 0.0273438 0.644531 0.0078125 0.5625 -0.0234375 C 0.476562 -0.0585938 0.410156 -0.113281 0.355469 -0.183594 C 0.296875 -0.253906 0.253906 -0.34375 0.226562 -0.453125 C 0.199219 -0.5625 0.183594 -0.6875 0.183594 -0.835938 C 0.183594 -0.9375 0.191406 -1.03125 0.203125 -1.125 C 0.214844 -1.21875 0.238281 -1.308594 0.265625 -1.390625 C 0.296875 -1.472656 0.335938 -1.550781 0.386719 -1.617188 C 0.4375 -1.6875 0.5 -1.746094 0.570312 -1.792969 C 0.644531 -1.84375 0.734375 -1.882812 0.835938 -1.910156 C 0.933594 -1.9375 1.050781 -1.949219 1.183594 -1.949219 L 1.375 -1.949219 L 1.375 -1.722656 L 1.167969 -1.722656 C 1.050781 -1.722656 0.949219 -1.710938 0.863281 -1.683594 C 0.777344 -1.652344 0.707031 -1.613281 0.648438 -1.5625 C 0.589844 -1.511719 0.546875 -1.453125 0.515625 -1.378906 C 0.484375 -1.308594 0.464844 -1.230469 0.457031 -1.140625 L 0.453125 -1.078125 C 0.515625 -1.117188 0.585938 -1.144531 0.667969 -1.167969 C 0.75 -1.191406 0.839844 -1.203125 0.9375 -1.203125 C 1.035156 -1.203125 1.121094 -1.1875 1.195312 -1.15625 C 1.269531 -1.128906 1.332031 -1.089844 1.378906 -1.039062 C 1.429688 -0.988281 1.464844 -0.925781 1.492188 -0.855469 C 1.515625 -0.78125 1.527344 -0.703125 1.527344 -0.617188 M 1.257812 -0.601562 C 1.257812 -0.660156 1.25 -0.714844 1.234375 -0.761719 C 1.21875 -0.8125 1.199219 -0.851562 1.167969 -0.886719 C 1.136719 -0.917969 1.097656 -0.945312 1.050781 -0.964844 C 1.003906 -0.980469 0.945312 -0.992188 0.878906 -0.992188 C 0.84375 -0.992188 0.804688 -0.988281 0.765625 -0.980469 C 0.726562 -0.972656 0.6875 -0.964844 0.652344 -0.953125 C 0.613281 -0.9375 0.578125 -0.925781 0.542969 -0.910156 C 0.511719 -0.894531 0.480469 -0.875 0.453125 -0.859375 C 0.453125 -0.730469 0.460938 -0.621094 0.480469 -0.535156 C 0.496094 -0.449219 0.523438 -0.382812 0.558594 -0.328125 C 0.59375 -0.277344 0.636719 -0.242188 0.6875 -0.21875 C 0.742188 -0.199219 0.800781 -0.1875 0.867188 -0.1875 C 0.925781 -0.1875 0.976562 -0.195312 1.023438 -0.214844 C 1.070312 -0.234375 1.113281 -0.257812 1.148438 -0.296875 C 1.179688 -0.332031 1.207031 -0.375 1.226562 -0.425781 C 1.246094 -0.476562 1.257812 -0.535156 1.257812 -0.601562 Z "/>
</g>
<g id="glyph-0-1">
<path d="M 1.46875 -0.59375 C 1.46875 -0.507812 1.449219 -0.425781 1.414062 -0.351562 C 1.378906 -0.277344 1.328125 -0.210938 1.257812 -0.15625 C 1.1875 -0.0976562 1.101562 -0.0546875 0.996094 -0.0234375 C 0.890625 0.0117188 0.765625 0.0273438 0.625 0.0273438 C 0.550781 0.0273438 0.480469 0.0234375 0.417969 0.0195312 C 0.355469 0.015625 0.296875 0.0078125 0.246094 0 L 0.246094 -0.234375 C 0.304688 -0.222656 0.371094 -0.214844 0.441406 -0.207031 C 0.507812 -0.203125 0.578125 -0.199219 0.652344 -0.199219 C 0.75 -0.199219 0.832031 -0.207031 0.902344 -0.222656 C 0.96875 -0.242188 1.027344 -0.265625 1.070312 -0.300781 C 1.113281 -0.332031 1.144531 -0.371094 1.164062 -0.417969 C 1.183594 -0.464844 1.195312 -0.519531 1.195312 -0.578125 C 1.195312 -0.632812 1.183594 -0.679688 1.160156 -0.71875 C 1.136719 -0.757812 1.101562 -0.789062 1.058594 -0.816406 C 1.015625 -0.84375 0.964844 -0.863281 0.902344 -0.878906 C 0.84375 -0.890625 0.777344 -0.898438 0.707031 -0.898438 L 0.484375 -0.898438 L 0.484375 -1.113281 L 0.707031 -1.113281 C 0.765625 -1.113281 0.820312 -1.121094 0.871094 -1.136719 C 0.917969 -1.148438 0.957031 -1.171875 0.992188 -1.203125 C 1.027344 -1.230469 1.054688 -1.265625 1.070312 -1.308594 C 1.089844 -1.351562 1.101562 -1.398438 1.101562 -1.453125 C 1.101562 -1.554688 1.066406 -1.632812 1.003906 -1.679688 C 0.941406 -1.726562 0.847656 -1.75 0.722656 -1.75 C 0.65625 -1.75 0.589844 -1.746094 0.519531 -1.734375 C 0.449219 -1.71875 0.375 -1.699219 0.296875 -1.675781 L 0.296875 -1.902344 C 0.332031 -1.914062 0.367188 -1.921875 0.40625 -1.933594 C 0.445312 -1.941406 0.480469 -1.949219 0.519531 -1.957031 C 0.558594 -1.964844 0.597656 -1.96875 0.632812 -1.972656 C 0.671875 -1.976562 0.707031 -1.976562 0.742188 -1.976562 C 0.847656 -1.976562 0.9375 -1.964844 1.015625 -1.945312 C 1.09375 -1.921875 1.160156 -1.890625 1.214844 -1.847656 C 1.265625 -1.804688 1.304688 -1.753906 1.332031 -1.695312 C 1.359375 -1.636719 1.371094 -1.566406 1.371094 -1.492188 C 1.371094 -1.382812 1.34375 -1.289062 1.285156 -1.214844 C 1.230469 -1.136719 1.152344 -1.078125 1.050781 -1.03125 C 1.101562 -1.023438 1.152344 -1.007812 1.203125 -0.984375 C 1.25 -0.960938 1.296875 -0.929688 1.335938 -0.894531 C 1.375 -0.855469 1.40625 -0.8125 1.429688 -0.761719 C 1.453125 -0.710938 1.46875 -0.652344 1.46875 -0.59375 Z "/>
</g>
</g>
</defs>
<g fill="rgb(90.980392%, 92.54902%, 94.509804%)" fill-opacity="1">
<use xlink:href="#glyph-0-0" x="30" y="22.269531"/>
<use xlink:href="#glyph-0-1" x="32" y="22.269531"/>
</g>
</svg>
