<?xml version="1.0" encoding="UTF-8"?>
<svg xmlns="http://www.w3.org/2000/svg" xmlns:xlink="http://www.w3.org/1999/xlink" width="1920" height="1080" viewBox="0 0 1920 1080">
<defs>
<g>
<g id="glyph-0-0">
<path d="M 6.652344 -2.613281 C 6.632812 -2.289062 6.621094 -1.730469 6.621094 -0.941406 C 6.621094 -0.171875 6.644531 0.363281 6.683594 0.667969 L 6.046875 0.667969 L 6.046875 0.03125 L 3.070312 0.03125 L 3.070312 0.730469 L 2.460938 0.730469 C 2.480469 0.386719 2.492188 -0.171875 2.492188 -0.941406 C 2.492188 -1.730469 2.480469 -2.289062 2.460938 -2.613281 L 6.652344 -2.613281 M 6.289062 -6.167969 C 6.390625 -5.945312 6.53125 -5.722656 6.714844 -5.5 C 6.25 -5.457031 5.527344 -5.382812 4.558594 -5.269531 C 3.585938 -5.160156 2.703125 -5.09375 1.914062 -5.074219 L 1.914062 -4.101562 L 6.320312 -4.101562 C 6.601562 -4.101562 6.917969 -4.113281 7.261719 -4.132812 L 7.261719 -3.523438 C 6.9375 -3.542969 6.621094 -3.554688 6.320312 -3.554688 L 1.914062 -3.554688 C 1.894531 -3.148438 1.859375 -2.722656 1.808594 -2.277344 C 1.757812 -1.832031 1.660156 -1.363281 1.519531 -0.867188 C 1.378906 -0.371094 1.195312 0.0507812 0.972656 0.394531 C 0.851562 0.292969 0.617188 0.183594 0.273438 0.0625 C 0.597656 -0.242188 0.839844 -0.695312 1.003906 -1.292969 C 1.164062 -1.886719 1.253906 -2.601562 1.277344 -3.433594 C 1.296875 -4.261719 1.304688 -4.972656 1.304688 -5.558594 C 2.296875 -5.578125 3.332031 -5.660156 4.40625 -5.800781 C 5.480469 -5.945312 6.105469 -6.066406 6.289062 -6.167969 M 6.046875 -0.457031 L 6.046875 -2.097656 L 3.070312 -2.097656 L 3.070312 -0.457031 Z "/>
</g>
<g id="glyph-0-1">
<path d="M 1.0625 -1.15625 L 2.15625 -1.15625 L 2.15625 0.0625 C 2.097656 0.566406 1.84375 0.941406 1.398438 1.183594 L 1.09375 0.910156 C 1.457031 0.707031 1.640625 0.40625 1.640625 0 L 1.0625 0 Z "/>
</g>
<g id="glyph-0-2">
<path d="M 1.214844 0.789062 C 1.074219 0.566406 0.902344 0.394531 0.699219 0.273438 C 1.023438 0.152344 1.316406 0.00390625 1.578125 -0.167969 C 1.84375 -0.339844 2.074219 -0.550781 2.277344 -0.804688 C 2.480469 -1.058594 2.632812 -1.335938 2.734375 -1.640625 C 2.835938 -1.945312 2.90625 -2.320312 2.945312 -2.765625 C 2.480469 -2.765625 2.105469 -2.753906 1.824219 -2.734375 L 1.824219 -3.371094 C 2.148438 -3.351562 2.5625 -3.34375 3.070312 -3.34375 L 6.105469 -3.34375 C 6.066406 -3.039062 6.035156 -2.773438 6.015625 -2.550781 L 5.773438 -0.304688 C 5.730469 0.0625 5.570312 0.304688 5.285156 0.425781 C 5.003906 0.546875 4.6875 0.617188 4.34375 0.636719 C 4.324219 0.433594 4.222656 0.203125 4.039062 -0.0625 C 4.464844 -0.0390625 4.753906 -0.0546875 4.90625 -0.105469 C 5.058594 -0.15625 5.15625 -0.335938 5.195312 -0.636719 L 5.40625 -2.765625 L 3.585938 -2.765625 C 3.523438 -2.238281 3.4375 -1.796875 3.328125 -1.441406 C 3.214844 -1.089844 3.058594 -0.78125 2.855469 -0.515625 C 2.652344 -0.253906 2.410156 -0.0117188 2.125 0.210938 C 1.84375 0.433594 1.539062 0.628906 1.214844 0.789062 M 4.800781 -6.289062 C 4.941406 -5.863281 5.230469 -5.378906 5.664062 -4.832031 C 6.101562 -4.285156 6.714844 -3.808594 7.503906 -3.402344 C 7.34375 -3.261719 7.179688 -3.046875 7.019531 -2.765625 C 6.652344 -3.027344 6.335938 -3.277344 6.0625 -3.507812 C 5.789062 -3.742188 5.558594 -3.960938 5.378906 -4.160156 C 5.195312 -4.363281 4.992188 -4.652344 4.769531 -5.027344 C 4.546875 -5.402344 4.363281 -5.753906 4.222656 -6.074219 C 4.445312 -6.136719 4.636719 -6.207031 4.800781 -6.289062 M 3.28125 -5.863281 C 3.097656 -5.539062 2.945312 -5.253906 2.824219 -5.011719 C 2.703125 -4.769531 2.582031 -4.550781 2.460938 -4.359375 C 2.339844 -4.167969 2.15625 -3.910156 1.914062 -3.585938 C 1.671875 -3.261719 1.378906 -2.925781 1.03125 -2.582031 C 0.851562 -2.765625 0.667969 -2.90625 0.484375 -3.007812 C 0.890625 -3.371094 1.210938 -3.707031 1.441406 -4.011719 C 1.675781 -4.3125 1.898438 -4.644531 2.113281 -4.996094 C 2.324219 -5.351562 2.511719 -5.742188 2.671875 -6.167969 C 2.835938 -6.046875 3.039062 -5.945312 3.28125 -5.863281 Z "/>
</g>
<g id="glyph-0-3">
<path d="M 3.644531 -2.765625 C 3.765625 -2.683594 3.9375 -2.59375 4.160156 -2.492188 C 4.039062 -2.371094 3.929688 -2.238281 3.828125 -2.097656 L 7.078125 -2.097656 L 7.078125 0 C 7.078125 0.386719 6.992188 0.601562 6.820312 0.652344 C 6.648438 0.703125 6.339844 0.75 5.894531 0.789062 C 5.832031 0.546875 5.753906 0.324219 5.652344 0.121094 C 6.117188 0.140625 6.378906 0.136719 6.441406 0.105469 C 6.5 0.0742188 6.53125 -0.03125 6.53125 -0.210938 L 6.53125 -1.640625 L 3.585938 -1.640625 C 3.484375 -1.476562 3.371094 -1.320312 3.25 -1.167969 C 3.128906 -1.019531 2.996094 -0.839844 2.855469 -0.636719 C 3.097656 -0.636719 3.796875 -0.699219 4.953125 -0.820312 C 4.871094 -0.921875 4.78125 -1.03125 4.679688 -1.15625 C 4.78125 -1.253906 4.921875 -1.367188 5.105469 -1.488281 C 5.226562 -1.367188 5.363281 -1.207031 5.515625 -1.003906 C 5.664062 -0.800781 5.8125 -0.585938 5.953125 -0.363281 C 5.753906 -0.285156 5.578125 -0.183594 5.4375 -0.0625 C 5.335938 -0.183594 5.253906 -0.304688 5.195312 -0.425781 C 4.304688 -0.324219 3.664062 -0.242188 3.28125 -0.183594 C 2.894531 -0.121094 2.550781 -0.0507812 2.25 0.03125 C 2.207031 -0.210938 2.136719 -0.464844 2.035156 -0.730469 C 2.199219 -0.808594 2.359375 -0.933594 2.523438 -1.09375 C 2.683594 -1.253906 2.835938 -1.4375 2.976562 -1.640625 L 1.367188 -1.640625 L 1.367188 0.757812 L 0.789062 0.757812 C 0.808594 0.433594 0.820312 0.0898438 0.820312 -0.273438 L 0.820312 -1.214844 C 0.820312 -1.578125 0.808594 -1.875 0.789062 -2.097656 L 3.191406 -2.097656 C 3.332031 -2.320312 3.453125 -2.542969 3.554688 -2.765625 L 1.246094 -2.765625 C 1.265625 -2.96875 1.277344 -3.148438 1.277344 -3.3125 L 1.277344 -4.039062 C 1.277344 -4.222656 1.265625 -4.414062 1.246094 -4.617188 L 1.851562 -4.617188 C 1.832031 -4.394531 1.824219 -4.183594 1.824219 -3.980469 L 1.824219 -3.21875 L 6.136719 -3.21875 L 6.136719 -4.039062 C 6.136719 -4.242188 6.125 -4.425781 6.105469 -4.585938 L 6.714844 -4.585938 C 6.695312 -4.425781 6.683594 -4.242188 6.683594 -4.039062 L 6.683594 -3.34375 C 6.683594 -3.179688 6.695312 -2.988281 6.714844 -2.765625 L 3.644531 -2.765625 M 4.011719 -6.410156 C 4.089844 -6.1875 4.183594 -5.933594 4.285156 -5.652344 L 6.015625 -5.652344 C 6.359375 -5.652344 6.765625 -5.660156 7.230469 -5.679688 L 7.230469 -5.195312 C 6.765625 -5.214844 6.289062 -5.226562 5.800781 -5.226562 L 1.851562 -5.226562 C 1.46875 -5.226562 1.042969 -5.214844 0.578125 -5.195312 L 0.578125 -5.679688 C 1.023438 -5.660156 1.253906 -5.652344 1.277344 -5.652344 L 3.617188 -5.652344 C 3.554688 -5.851562 3.464844 -6.054688 3.34375 -6.257812 C 3.566406 -6.300781 3.789062 -6.347656 4.011719 -6.410156 M 2.644531 -5.011719 C 2.867188 -4.953125 3.097656 -4.875 3.34375 -4.785156 C 3.585938 -4.695312 3.828125 -4.609375 4.070312 -4.527344 C 4.476562 -4.769531 4.789062 -4.980469 5.011719 -5.164062 C 5.214844 -5.042969 5.429688 -4.910156 5.652344 -4.769531 C 5.285156 -4.667969 4.953125 -4.515625 4.648438 -4.3125 C 4.992188 -4.152344 5.386719 -3.96875 5.832031 -3.765625 C 5.691406 -3.644531 5.519531 -3.515625 5.316406 -3.371094 C 5.03125 -3.554688 4.796875 -3.691406 4.601562 -3.78125 C 4.410156 -3.875 4.222656 -3.949219 4.039062 -4.011719 C 3.878906 -3.910156 3.675781 -3.808594 3.433594 -3.707031 C 3.191406 -3.605469 2.917969 -3.492188 2.613281 -3.371094 C 2.492188 -3.535156 2.347656 -3.675781 2.1875 -3.796875 C 2.492188 -3.859375 2.738281 -3.925781 2.933594 -3.996094 C 3.125 -4.066406 3.34375 -4.140625 3.585938 -4.222656 C 3.320312 -4.304688 3.109375 -4.371094 2.945312 -4.421875 C 2.785156 -4.472656 2.550781 -4.527344 2.25 -4.585938 C 2.410156 -4.730469 2.542969 -4.871094 2.644531 -5.011719 Z "/>
</g>
<g id="glyph-0-4">
<path d="M 6.320312 -2.398438 C 6.117188 -2.097656 5.847656 -1.757812 5.515625 -1.382812 C 5.179688 -1.007812 4.832031 -0.699219 4.464844 -0.457031 C 4.667969 -0.335938 5.042969 -0.21875 5.589844 -0.105469 C 6.136719 0.00390625 6.703125 0.0703125 7.292969 0.0898438 C 7.046875 0.355469 6.90625 0.578125 6.867188 0.757812 C 6.21875 0.679688 5.636719 0.550781 5.117188 0.378906 C 4.601562 0.207031 4.203125 0.03125 3.917969 -0.152344 C 3.574219 0.0507812 3.140625 0.234375 2.613281 0.394531 C 2.085938 0.558594 1.5 0.699219 0.851562 0.820312 C 0.769531 0.617188 0.648438 0.414062 0.484375 0.210938 C 0.933594 0.191406 1.453125 0.117188 2.050781 -0.015625 C 2.648438 -0.148438 3.109375 -0.292969 3.433594 -0.457031 C 2.988281 -0.78125 2.523438 -1.265625 2.035156 -1.914062 C 1.773438 -1.914062 1.5 -1.902344 1.214844 -1.882812 L 1.214844 -2.429688 C 1.578125 -2.410156 2.015625 -2.398438 2.523438 -2.398438 L 6.320312 -2.398438 M 3.917969 -6.410156 C 4.0625 -6.105469 4.191406 -5.78125 4.3125 -5.4375 L 5.679688 -5.4375 C 6.269531 -5.4375 6.796875 -5.449219 7.261719 -5.46875 L 7.261719 -4.890625 C 6.773438 -4.910156 6.269531 -4.921875 5.742188 -4.921875 L 5.011719 -4.921875 L 5.011719 -3.585938 C 5.011719 -3.261719 5.023438 -2.9375 5.042969 -2.613281 L 4.375 -2.613281 C 4.394531 -2.9375 4.40625 -3.261719 4.40625 -3.585938 L 4.40625 -4.921875 L 3.34375 -4.921875 L 3.34375 -3.585938 C 3.34375 -3.363281 3.351562 -3.039062 3.371094 -2.613281 L 2.703125 -2.613281 C 2.722656 -3.039062 2.734375 -3.363281 2.734375 -3.585938 L 2.734375 -4.921875 L 2.066406 -4.921875 C 1.476562 -4.921875 0.960938 -4.910156 0.515625 -4.890625 L 0.515625 -5.46875 C 0.941406 -5.449219 1.457031 -5.4375 2.066406 -5.4375 L 3.617188 -5.4375 C 3.574219 -5.601562 3.464844 -5.863281 3.28125 -6.226562 C 3.484375 -6.25 3.695312 -6.308594 3.917969 -6.410156 M 2.671875 -1.914062 C 3.039062 -1.429688 3.464844 -1.03125 3.949219 -0.730469 C 4.433594 -1.054688 4.851562 -1.449219 5.195312 -1.914062 L 2.671875 -1.914062 M 5.894531 -4.558594 C 6.320312 -4.171875 6.765625 -3.738281 7.230469 -3.25 C 7.070312 -3.128906 6.886719 -2.976562 6.683594 -2.796875 C 6.339844 -3.199219 5.914062 -3.644531 5.40625 -4.132812 C 5.589844 -4.273438 5.753906 -4.414062 5.894531 -4.558594 M 2.21875 -4.253906 C 2.117188 -4.152344 1.953125 -3.960938 1.730469 -3.675781 C 1.507812 -3.390625 1.265625 -3.097656 1.003906 -2.796875 C 0.800781 -2.9375 0.617188 -3.058594 0.457031 -3.160156 C 0.941406 -3.605469 1.316406 -4.101562 1.578125 -4.648438 C 1.761719 -4.507812 1.976562 -4.375 2.21875 -4.253906 Z "/>
</g>
<g id="glyph-0-5">
<path d="M 6.378906 -3.039062 C 6.359375 -2.796875 6.347656 -2.472656 6.347656 -2.066406 C 6.347656 -1.679688 6.359375 -1.378906 6.378906 -1.15625 L 4.160156 -1.15625 L 4.160156 -0.757812 L 5.558594 -0.757812 C 5.902344 -0.757812 6.226562 -0.769531 6.53125 -0.789062 L 6.53125 -0.335938 C 6.25 -0.355469 5.925781 -0.363281 5.558594 -0.363281 L 4.160156 -0.363281 L 4.160156 0.0898438 L 6.226562 0.0898438 C 6.550781 0.0898438 6.875 0.0820312 7.199219 0.0625 L 7.199219 0.515625 C 6.875 0.496094 6.550781 0.484375 6.226562 0.484375 L 1.550781 0.484375 C 1.246094 0.484375 0.921875 0.496094 0.578125 0.515625 L 0.578125 0.0625 C 0.941406 0.0625 1.265625 0.0703125 1.550781 0.0898438 L 3.617188 0.0898438 L 3.617188 -0.363281 L 2.097656 -0.363281 C 1.792969 -0.363281 1.488281 -0.34375 1.183594 -0.304688 L 1.183594 -0.789062 C 1.507812 -0.769531 1.8125 -0.757812 2.097656 -0.757812 L 3.617188 -0.757812 L 3.617188 -1.15625 L 1.398438 -1.15625 C 1.417969 -1.5 1.429688 -1.832031 1.429688 -2.15625 C 1.429688 -2.480469 1.417969 -2.773438 1.398438 -3.039062 L 6.378906 -3.039062 M 6.320312 -6.015625 C 6.300781 -5.710938 6.289062 -5.429688 6.289062 -5.164062 C 6.289062 -4.902344 6.300781 -4.558594 6.320312 -4.132812 L 1.457031 -4.132812 C 1.476562 -4.558594 1.488281 -4.902344 1.488281 -5.164062 C 1.488281 -5.429688 1.476562 -5.710938 1.457031 -6.015625 L 6.320312 -6.015625 M 5.953125 -3.765625 C 6.441406 -3.789062 6.886719 -3.808594 7.292969 -3.828125 L 7.292969 -3.34375 C 6.886719 -3.363281 6.449219 -3.371094 5.984375 -3.371094 L 2.003906 -3.371094 C 1.457031 -3.371094 0.921875 -3.363281 0.394531 -3.34375 L 0.394531 -3.828125 C 0.921875 -3.808594 1.457031 -3.789062 2.003906 -3.765625 L 5.953125 -3.765625 M 5.742188 -4.496094 L 5.742188 -4.890625 L 2.035156 -4.890625 L 2.035156 -4.496094 L 5.742188 -4.496094 M 5.742188 -5.285156 L 5.742188 -5.652344 L 2.035156 -5.652344 L 2.035156 -5.285156 L 5.742188 -5.285156 M 5.773438 -2.277344 L 5.773438 -2.644531 L 4.160156 -2.644531 L 4.160156 -2.277344 L 5.773438 -2.277344 M 3.617188 -2.277344 L 3.617188 -2.644531 L 2.003906 -2.644531 L 2.003906 -2.277344 L 3.617188 -2.277344 M 3.617188 -1.550781 L 3.617188 -1.882812 L 2.003906 -1.882812 L 2.003906 -1.550781 L 3.617188 -1.550781 M 5.773438 -1.550781 L 5.773438 -1.882812 L 4.160156 -1.882812 L 4.160156 -1.550781 Z "/>
</g>
</g>
</defs>
<g fill="rgb(100%, 100%, 100%)" fill-opacity="1">
<use xlink:href="#glyph-0-0" x="30" y="26.683594"/>
<use xlink:href="#glyph-0-1" x="38" y="26.683594"/>
<use xlink:href="#glyph-0-2" x="46" y="26.683594"/>
<use xlink:href="#glyph-0-3" x="54" y="26.683594"/>
<use xlink:href="#glyph-0-4" x="62" y="26.683594"/>
<use xlink:href="#glyph-0-5" x="70" y="26.683594"/>
</g>
</svg>
