<?xml version="1.0" encoding="UTF-8"?>
<svg xmlns="http://www.w3.org/2000/svg" xmlns:xlink="http://www.w3.org/1999/xlink" width="1920" height="1080" viewBox="0 0 1920 1080">
<defs>
<g>
<g id="glyph-0-0">
<path d="M 1.492188 -1.085938 C 1.492188 -0.894531 1.472656 -0.730469 1.425781 -0.59375 C 1.378906 -0.457031 1.3125 -0.34375 1.222656 -0.257812 C 1.132812 -0.167969 1.023438 -0.105469 0.890625 -0.0625 C 0.757812 -0.0195312 0.605469 0 0.429688 0 L 0.269531 0 L 0.269531 -0.226562 L 0.449219 -0.226562 C 0.578125 -0.226562 0.6875 -0.238281 0.78125 -0.265625 C 0.875 -0.292969 0.953125 -0.328125 1.015625 -0.378906 C 1.078125 -0.429688 1.125 -0.492188 1.15625 -0.5625 C 1.191406 -0.636719 1.210938 -0.71875 1.21875 -0.808594 L 1.226562 -0.871094 C 1.164062 -0.835938 1.089844 -0.804688 1.007812 -0.78125 C 0.925781 -0.761719 0.839844 -0.75 0.742188 -0.75 C 0.644531 -0.75 0.558594 -0.761719 0.484375 -0.792969 C 0.410156 -0.820312 0.347656 -0.863281 0.296875 -0.914062 C 0.25 -0.964844 0.210938 -1.027344 0.1875 -1.097656 C 0.160156 -1.167969 0.148438 -1.246094 0.148438 -1.328125 C 0.148438 -1.421875 0.164062 -1.503906 0.199219 -1.582031 C 0.230469 -1.660156 0.277344 -1.730469 0.335938 -1.789062 C 0.394531 -1.847656 0.464844 -1.894531 0.550781 -1.925781 C 0.632812 -1.960938 0.722656 -1.976562 0.820312 -1.976562 C 0.917969 -1.976562 1.007812 -1.960938 1.089844 -1.929688 C 1.171875 -1.898438 1.242188 -1.847656 1.300781 -1.773438 C 1.363281 -1.703125 1.410156 -1.613281 1.441406 -1.5 C 1.476562 -1.382812 1.492188 -1.246094 1.492188 -1.085938 M 0.808594 -1.765625 C 0.753906 -1.765625 0.703125 -1.753906 0.65625 -1.734375 C 0.609375 -1.71875 0.566406 -1.691406 0.535156 -1.65625 C 0.5 -1.621094 0.472656 -1.578125 0.453125 -1.523438 C 0.433594 -1.472656 0.421875 -1.414062 0.421875 -1.347656 C 0.421875 -1.285156 0.429688 -1.234375 0.445312 -1.183594 C 0.457031 -1.136719 0.480469 -1.097656 0.511719 -1.0625 C 0.542969 -1.03125 0.582031 -1.003906 0.628906 -0.988281 C 0.675781 -0.96875 0.734375 -0.960938 0.796875 -0.960938 C 0.835938 -0.960938 0.875 -0.964844 0.914062 -0.96875 C 0.953125 -0.976562 0.988281 -0.988281 1.027344 -1 C 1.066406 -1.011719 1.101562 -1.023438 1.132812 -1.039062 C 1.167969 -1.054688 1.199219 -1.074219 1.226562 -1.089844 C 1.226562 -1.21875 1.214844 -1.328125 1.195312 -1.414062 C 1.179688 -1.5 1.152344 -1.566406 1.113281 -1.621094 C 1.078125 -1.671875 1.035156 -1.710938 0.984375 -1.730469 C 0.933594 -1.753906 0.875 -1.765625 0.808594 -1.765625 Z "/>
</g>
</g>
</defs>
<g fill="rgb(90.980392%, 92.54902%, 94.509804%)" fill-opacity="1">
<use xlink:href="#glyph-0-0" x="30" y="22.269531"/>
<use xlink:href="#glyph-0-0" x="32" y="22.269531"/>
</g>
</svg>
