<?xml version="1.0" encoding="UTF-8"?>
<svg xmlns="http://www.w3.org/2000/svg" xmlns:xlink="http://www.w3.org/1999/xlink" width="1920" height="1080" viewBox="0 0 1920 1080">
<defs>
<g>
<g id="glyph-0-0">
<path d="M 0.390625 -0.324219 C 0.414062 -0.652344 0.5625 -0.945312 0.847656 -1.203125 C 1.128906 -1.464844 1.488281 -1.871094 1.921875 -2.425781 C 2.355469 -2.976562 2.636719 -3.40625 2.765625 -3.710938 C 2.898438 -4.015625 2.945312 -4.273438 2.914062 -4.492188 C 2.878906 -4.710938 2.777344 -4.886719 2.605469 -5.027344 C 2.429688 -5.171875 2.230469 -5.230469 2 -5.207031 C 1.773438 -5.1875 1.558594 -5.101562 1.351562 -4.949219 C 1.144531 -4.796875 0.988281 -4.566406 0.878906 -4.265625 L 0.261719 -4.363281 C 0.433594 -4.859375 0.65625 -5.222656 0.925781 -5.453125 C 1.199219 -5.679688 1.519531 -5.804688 1.886719 -5.828125 C 2.105469 -5.847656 2.300781 -5.84375 2.472656 -5.808594 C 2.648438 -5.777344 2.828125 -5.703125 3.011719 -5.582031 C 3.195312 -5.464844 3.347656 -5.285156 3.464844 -5.046875 C 3.585938 -4.808594 3.628906 -4.519531 3.597656 -4.183594 C 3.5625 -3.847656 3.394531 -3.445312 3.09375 -2.976562 C 2.789062 -2.511719 2.203125 -1.78125 1.335938 -0.78125 L 3.679688 -0.78125 L 3.679688 -0.195312 L 0.390625 -0.195312 Z "/>
</g>
<g id="glyph-0-1">
<path d="M 1.398438 -0.164062 L 0.652344 -0.164062 L 0.652344 -0.878906 L 1.398438 -0.878906 Z "/>
</g>
<g id="glyph-0-2">
<path d="M 5.566406 -6.640625 C 5.4375 -6.488281 5.332031 -6.296875 5.257812 -6.070312 C 5.179688 -5.84375 5.109375 -5.621094 5.046875 -5.402344 L 7.390625 -5.402344 C 7.367188 -5.144531 7.355469 -4.632812 7.355469 -3.875 L 7.355469 -0.683594 C 7.355469 -0.0117188 7.367188 0.433594 7.390625 0.652344 L 6.738281 0.652344 L 6.738281 -0.164062 L 3.808594 -0.164062 L 3.808594 0.75 L 3.15625 0.75 C 3.179688 0.445312 3.191406 0.0117188 3.191406 -0.554688 L 3.191406 -3.875 C 3.191406 -4.589844 3.179688 -5.101562 3.15625 -5.402344 L 4.425781 -5.402344 C 4.558594 -6.097656 4.621094 -6.566406 4.621094 -6.804688 C 4.839844 -6.761719 5.152344 -6.707031 5.566406 -6.640625 M 2.800781 -6.414062 C 2.625 -6.304688 2.375 -5.804688 2.050781 -4.914062 L 2.050781 -0.75 C 2.050781 -0.0546875 2.074219 0.457031 2.117188 0.78125 L 1.398438 0.78125 C 1.421875 0.457031 1.433594 -0.0429688 1.433594 -0.714844 L 1.433594 -3.777344 C 1.148438 -3.296875 0.910156 -2.898438 0.714844 -2.570312 C 0.5625 -2.765625 0.414062 -2.953125 0.261719 -3.125 C 0.519531 -3.429688 0.828125 -3.9375 1.1875 -4.65625 C 1.546875 -5.371094 1.8125 -6.085938 1.984375 -6.804688 C 2.355469 -6.609375 2.625 -6.476562 2.800781 -6.414062 M 6.738281 -0.714844 L 6.738281 -2.539062 L 3.808594 -2.539062 L 3.808594 -0.714844 L 6.738281 -0.714844 M 6.738281 -3.09375 L 6.738281 -4.851562 L 3.808594 -4.851562 L 3.808594 -3.09375 Z "/>
</g>
<g id="glyph-0-3">
<path d="M 4.71875 0.0976562 C 5.304688 0.121094 5.652344 0.0976562 5.761719 0.03125 C 5.957031 -0.0546875 6.070312 -0.15625 6.101562 -0.277344 C 6.136719 -0.394531 6.175781 -0.847656 6.21875 -1.628906 L 4.003906 -1.628906 C 3.765625 -0.933594 3.386719 -0.394531 2.863281 -0.015625 C 2.34375 0.363281 1.734375 0.652344 1.042969 0.847656 C 0.953125 0.628906 0.78125 0.445312 0.519531 0.292969 C 1.105469 0.183594 1.675781 -0.03125 2.230469 -0.359375 C 2.78125 -0.683594 3.136719 -1.105469 3.289062 -1.628906 L 2.441406 -1.628906 C 1.878906 -1.628906 1.421875 -1.617188 1.074219 -1.59375 L 1.074219 -2.179688 C 1.421875 -2.160156 1.84375 -2.148438 2.34375 -2.148438 L 3.417969 -2.148438 C 3.484375 -2.320312 3.515625 -2.59375 3.515625 -2.960938 C 3.734375 -2.898438 4.003906 -2.84375 4.328125 -2.800781 C 4.199219 -2.648438 4.125 -2.429688 4.101562 -2.148438 L 6.964844 -2.148438 C 6.921875 -1.671875 6.882812 -1.214844 6.851562 -0.78125 C 6.820312 -0.347656 6.761719 -0.0234375 6.671875 0.195312 C 6.5 0.5625 5.945312 0.769531 5.011719 0.8125 C 4.992188 0.574219 4.894531 0.335938 4.71875 0.0976562 M 3.839844 -2.929688 C 3.558594 -3.167969 3.320312 -3.332031 3.125 -3.417969 C 2.496094 -2.898438 1.789062 -2.515625 1.007812 -2.277344 C 0.921875 -2.453125 0.757812 -2.613281 0.519531 -2.765625 C 1.433594 -2.984375 2.09375 -3.289062 2.507812 -3.679688 C 2.007812 -3.917969 1.5625 -4.089844 1.171875 -4.199219 C 1.433594 -4.589844 1.628906 -4.949219 1.757812 -5.273438 C 1.324219 -5.273438 0.964844 -5.261719 0.683594 -5.242188 L 0.683594 -5.828125 C 1.007812 -5.804688 1.433594 -5.792969 1.953125 -5.792969 C 2.105469 -6.207031 2.191406 -6.53125 2.214844 -6.769531 C 2.515625 -6.707031 2.765625 -6.652344 2.960938 -6.609375 C 2.875 -6.457031 2.820312 -6.347656 2.800781 -6.28125 C 2.777344 -6.21875 2.710938 -6.054688 2.605469 -5.792969 L 4.230469 -5.792969 C 4.101562 -5.078125 3.839844 -4.4375 3.449219 -3.875 C 3.753906 -3.722656 4.015625 -3.570312 4.230469 -3.417969 C 4.101562 -3.289062 3.972656 -3.125 3.839844 -2.929688 M 4.132812 -2.960938 C 4.65625 -3.136719 5.109375 -3.417969 5.5 -3.808594 C 5.109375 -4.371094 4.871094 -4.96875 4.785156 -5.597656 L 4.363281 -5.566406 L 4.363281 -6.152344 C 4.816406 -6.128906 5.230469 -6.121094 5.597656 -6.121094 L 7.453125 -6.121094 C 7.300781 -5.296875 6.964844 -4.523438 6.445312 -3.808594 C 6.554688 -3.699219 6.75 -3.574219 7.03125 -3.433594 C 7.3125 -3.292969 7.59375 -3.191406 7.878906 -3.125 C 7.703125 -2.972656 7.5625 -2.777344 7.453125 -2.539062 C 6.976562 -2.691406 6.476562 -2.984375 5.957031 -3.417969 C 5.5 -3.027344 5.078125 -2.734375 4.6875 -2.539062 C 4.558594 -2.710938 4.371094 -2.855469 4.132812 -2.960938 M 1.984375 -4.460938 C 2.332031 -4.328125 2.648438 -4.210938 2.929688 -4.101562 C 3.234375 -4.535156 3.417969 -4.925781 3.484375 -5.273438 L 2.410156 -5.273438 C 2.300781 -5.054688 2.160156 -4.785156 1.984375 -4.460938 M 5.371094 -5.597656 C 5.5 -4.992188 5.707031 -4.523438 5.988281 -4.199219 C 6.335938 -4.71875 6.566406 -5.1875 6.671875 -5.597656 Z "/>
</g>
<g id="glyph-0-4">
<path d="M 3.125 -3.449219 C 3.601562 -3.015625 4.078125 -2.527344 4.558594 -1.984375 C 4.40625 -1.855469 4.242188 -1.691406 4.070312 -1.496094 C 3.765625 -1.953125 3.449219 -2.355469 3.125 -2.703125 L 3.125 -0.292969 C 3.125 0.226562 3.136719 0.617188 3.15625 0.878906 L 2.441406 0.878906 C 2.464844 0.597656 2.472656 0.207031 2.472656 -0.292969 L 2.472656 -2.570312 C 2.234375 -2.117188 2.007812 -1.734375 1.789062 -1.433594 C 1.574219 -1.128906 1.292969 -0.769531 0.945312 -0.359375 C 0.8125 -0.574219 0.628906 -0.757812 0.390625 -0.910156 C 0.867188 -1.300781 1.296875 -1.796875 1.675781 -2.390625 C 2.054688 -2.988281 2.300781 -3.472656 2.410156 -3.839844 L 1.789062 -3.839844 C 1.269531 -3.839844 0.890625 -3.832031 0.652344 -3.808594 L 0.652344 -4.425781 C 0.910156 -4.40625 1.292969 -4.394531 1.789062 -4.394531 L 2.472656 -4.394531 L 2.472656 -5.664062 C 2.039062 -5.578125 1.574219 -5.492188 1.074219 -5.402344 C 1.007812 -5.621094 0.921875 -5.828125 0.8125 -6.023438 C 1.183594 -6.042969 1.691406 -6.121094 2.34375 -6.25 C 2.996094 -6.378906 3.613281 -6.542969 4.199219 -6.738281 C 4.308594 -6.476562 4.449219 -6.25 4.621094 -6.054688 C 4.1875 -5.988281 3.6875 -5.902344 3.125 -5.792969 L 3.125 -4.394531 L 3.679688 -4.394531 C 4.132812 -4.394531 4.535156 -4.40625 4.882812 -4.425781 L 4.882812 -3.808594 C 4.535156 -3.832031 4.144531 -3.839844 3.710938 -3.839844 L 3.125 -3.839844 L 3.125 -3.449219 M 7.519531 -6.671875 C 7.496094 -6.457031 7.488281 -6.085938 7.488281 -5.566406 L 7.488281 0.128906 C 7.488281 0.390625 7.382812 0.558594 7.175781 0.632812 C 6.972656 0.710938 6.609375 0.792969 6.085938 0.878906 C 6.023438 0.554688 5.945312 0.292969 5.859375 0.0976562 C 6.316406 0.121094 6.589844 0.109375 6.6875 0.0664062 C 6.785156 0.0234375 6.835938 -0.0664062 6.835938 -0.195312 L 6.835938 -5.597656 C 6.835938 -5.902344 6.824219 -6.261719 6.804688 -6.671875 L 7.519531 -6.671875 M 6.023438 -5.339844 C 6 -5.078125 5.988281 -4.730469 5.988281 -4.296875 L 5.988281 -2.246094 C 5.988281 -1.789062 6 -1.398438 6.023438 -1.074219 L 5.304688 -1.074219 C 5.328125 -1.464844 5.339844 -1.855469 5.339844 -2.246094 L 5.339844 -4.296875 C 5.339844 -4.644531 5.328125 -4.992188 5.304688 -5.339844 Z "/>
</g>
<g id="glyph-0-5">
<path d="M 3.875 0.261719 L 3.515625 0.617188 C 2.972656 0.0976562 2.566406 -0.445312 2.292969 -1.007812 C 2.023438 -1.574219 1.886719 -2.214844 1.886719 -2.929688 C 1.886719 -3.644531 2.023438 -4.285156 2.292969 -4.851562 C 2.566406 -5.414062 2.972656 -5.96875 3.515625 -6.511719 L 3.875 -6.152344 C 3.375 -5.675781 3 -5.179688 2.75 -4.671875 C 2.5 -4.160156 2.375 -3.582031 2.375 -2.929688 C 2.375 -2.277344 2.5 -1.699219 2.75 -1.1875 C 3 -0.679688 3.375 -0.195312 3.875 0.261719 Z "/>
</g>
<g id="glyph-0-6">
<path d="M 3.839844 -1.824219 C 3.839844 -1.195312 3.667969 -0.757812 3.320312 -0.519531 C 2.972656 -0.28125 2.527344 -0.164062 1.984375 -0.164062 L 0.359375 -0.164062 L 0.359375 -5.730469 L 2.050781 -5.730469 C 2.59375 -5.730469 3 -5.589844 3.269531 -5.304688 C 3.542969 -5.023438 3.679688 -4.6875 3.679688 -4.296875 C 3.679688 -3.90625 3.585938 -3.617188 3.402344 -3.433594 C 3.21875 -3.25 3.027344 -3.125 2.832031 -3.058594 C 3.09375 -2.996094 3.324219 -2.859375 3.53125 -2.652344 C 3.738281 -2.445312 3.839844 -2.171875 3.839844 -1.824219 M 2.929688 -4.296875 C 2.929688 -4.578125 2.847656 -4.785156 2.683594 -4.914062 C 2.523438 -5.046875 2.320312 -5.109375 2.082031 -5.109375 L 1.105469 -5.109375 L 1.105469 -3.386719 L 2.050781 -3.386719 C 2.289062 -3.386719 2.496094 -3.457031 2.667969 -3.597656 C 2.84375 -3.738281 2.929688 -3.972656 2.929688 -4.296875 M 3.058594 -1.824219 C 3.058594 -2.171875 2.945312 -2.414062 2.71875 -2.554688 C 2.488281 -2.695312 2.234375 -2.765625 1.953125 -2.765625 L 1.105469 -2.765625 L 1.105469 -0.78125 L 1.855469 -0.78125 C 2.246094 -0.78125 2.542969 -0.855469 2.75 -1.007812 C 2.957031 -1.160156 3.058594 -1.433594 3.058594 -1.824219 Z "/>
</g>
<g id="glyph-0-7">
<path d="M 3.710938 -1.398438 C 3.667969 -1.007812 3.492188 -0.695312 3.191406 -0.457031 C 2.886719 -0.21875 2.527344 -0.0976562 2.117188 -0.0976562 C 1.59375 -0.0976562 1.167969 -0.265625 0.828125 -0.601562 C 0.492188 -0.9375 0.324219 -1.398438 0.324219 -1.984375 C 0.324219 -2.570312 0.492188 -3.03125 0.828125 -3.367188 C 1.167969 -3.707031 1.59375 -3.875 2.117188 -3.875 C 2.570312 -3.875 2.945312 -3.726562 3.238281 -3.433594 C 3.53125 -3.140625 3.679688 -2.660156 3.679688 -1.984375 L 1.042969 -1.984375 C 1.042969 -1.507812 1.144531 -1.171875 1.351562 -0.976562 C 1.558594 -0.78125 1.8125 -0.683594 2.117188 -0.683594 C 2.355469 -0.683594 2.550781 -0.742188 2.703125 -0.863281 C 2.855469 -0.980469 2.953125 -1.160156 2.996094 -1.398438 L 3.710938 -1.398438 M 2.929688 -2.507812 C 2.886719 -2.808594 2.789062 -3.023438 2.636719 -3.140625 C 2.484375 -3.261719 2.289062 -3.320312 2.050781 -3.320312 C 1.832031 -3.320312 1.636719 -3.261719 1.464844 -3.140625 C 1.292969 -3.023438 1.160156 -2.808594 1.074219 -2.507812 Z "/>
</g>
<g id="glyph-0-8">
<path d="M 3.253906 -3.15625 C 2.84375 -3.222656 2.496094 -3.164062 2.214844 -2.976562 C 1.929688 -2.792969 1.691406 -2.472656 1.496094 -2.019531 L 1.496094 -0.164062 L 0.847656 -0.164062 L 0.847656 -3.808594 L 1.496094 -3.808594 L 1.496094 -2.863281 C 1.691406 -3.210938 1.9375 -3.464844 2.230469 -3.628906 C 2.523438 -3.792969 2.863281 -3.875 3.253906 -3.875 Z "/>
</g>
<g id="glyph-0-9">
<path d="M 3.644531 -0.164062 L 2.996094 -0.164062 L 2.996094 -2.507812 C 2.996094 -2.765625 2.929688 -2.972656 2.800781 -3.125 C 2.667969 -3.277344 2.496094 -3.351562 2.277344 -3.351562 C 1.996094 -3.351562 1.730469 -3.207031 1.480469 -2.914062 C 1.230469 -2.621094 1.105469 -2.257812 1.105469 -1.824219 L 1.105469 -0.164062 L 0.457031 -0.164062 L 0.457031 -3.808594 L 1.105469 -3.808594 L 1.105469 -3.125 C 1.28125 -3.363281 1.46875 -3.546875 1.675781 -3.679688 C 1.882812 -3.808594 2.148438 -3.875 2.472656 -3.875 C 2.863281 -3.875 3.15625 -3.765625 3.351562 -3.546875 C 3.546875 -3.332031 3.644531 -3.058594 3.644531 -2.734375 Z "/>
</g>
<g id="glyph-0-10">
<path d="M 3.808594 -1.984375 C 3.808594 -1.421875 3.636719 -0.964844 3.289062 -0.617188 C 2.941406 -0.269531 2.527344 -0.0976562 2.050781 -0.0976562 C 1.574219 -0.0976562 1.160156 -0.269531 0.8125 -0.617188 C 0.464844 -0.964844 0.292969 -1.421875 0.292969 -1.984375 C 0.292969 -2.550781 0.464844 -3.003906 0.8125 -3.351562 C 1.160156 -3.699219 1.574219 -3.875 2.050781 -3.875 C 2.527344 -3.875 2.941406 -3.699219 3.289062 -3.351562 C 3.636719 -3.003906 3.808594 -2.550781 3.808594 -1.984375 M 3.09375 -1.984375 C 3.09375 -2.417969 2.984375 -2.746094 2.765625 -2.960938 C 2.550781 -3.179688 2.3125 -3.289062 2.050781 -3.289062 C 1.789062 -3.289062 1.550781 -3.179688 1.335938 -2.960938 C 1.117188 -2.746094 1.007812 -2.417969 1.007812 -1.984375 C 1.007812 -1.550781 1.117188 -1.226562 1.335938 -1.007812 C 1.550781 -0.792969 1.789062 -0.683594 2.050781 -0.683594 C 2.3125 -0.683594 2.550781 -0.792969 2.765625 -1.007812 C 2.984375 -1.226562 3.09375 -1.550781 3.09375 -1.984375 Z "/>
</g>
<g id="glyph-0-11">
<path d="M 3.644531 -0.164062 L 2.996094 -0.164062 L 2.996094 -0.847656 C 2.820312 -0.609375 2.632812 -0.421875 2.425781 -0.292969 C 2.21875 -0.164062 1.953125 -0.0976562 1.628906 -0.0976562 C 1.238281 -0.0976562 0.945312 -0.207031 0.75 -0.421875 C 0.554688 -0.640625 0.457031 -0.910156 0.457031 -1.238281 L 0.457031 -3.808594 L 1.105469 -3.808594 L 1.105469 -1.464844 C 1.105469 -1.203125 1.171875 -1 1.300781 -0.847656 C 1.433594 -0.695312 1.605469 -0.617188 1.824219 -0.617188 C 2.105469 -0.617188 2.371094 -0.765625 2.621094 -1.058594 C 2.871094 -1.351562 2.996094 -1.714844 2.996094 -2.148438 L 2.996094 -3.808594 L 3.644531 -3.808594 Z "/>
</g>
<g id="glyph-0-12">
<path d="M 2.375 -0.164062 L 1.726562 -0.164062 L 1.726562 -5.730469 L 2.375 -5.730469 Z "/>
</g>
<g id="glyph-0-13">
<path d="M 2.34375 -4.851562 L 1.691406 -4.851562 L 1.691406 -5.695312 L 2.34375 -5.695312 L 2.34375 -4.851562 M 2.34375 -0.164062 L 1.691406 -0.164062 L 1.691406 -3.808594 L 2.34375 -3.808594 Z "/>
</g>
<g id="glyph-0-14">
<path d="M 2.179688 -2.929688 C 2.179688 -2.214844 2.046875 -1.574219 1.773438 -1.007812 C 1.503906 -0.445312 1.097656 0.0976562 0.554688 0.617188 L 0.195312 0.261719 C 0.695312 -0.195312 1.070312 -0.679688 1.316406 -1.1875 C 1.566406 -1.699219 1.691406 -2.277344 1.691406 -2.929688 C 1.691406 -3.582031 1.566406 -4.160156 1.316406 -4.671875 C 1.070312 -5.179688 0.695312 -5.675781 0.195312 -6.152344 L 0.554688 -6.511719 C 1.097656 -5.96875 1.503906 -5.414062 1.773438 -4.851562 C 2.046875 -4.285156 2.179688 -3.644531 2.179688 -2.929688 Z "/>
</g>
<g id="glyph-0-15">
<path d="M 0.554688 -5.175781 C 0.902344 -5.152344 1.28125 -5.144531 1.691406 -5.144531 L 6.542969 -5.144531 C 7.0625 -5.144531 7.488281 -5.152344 7.8125 -5.175781 L 7.8125 -4.523438 C 7.53125 -4.546875 7.140625 -4.558594 6.640625 -4.558594 L 3.289062 -4.558594 C 3.289062 -4.320312 3.277344 -3.882812 3.253906 -3.253906 L 6.902344 -3.253906 C 6.859375 -2.972656 6.8125 -2.5625 6.769531 -2.019531 L 6.574219 -0.226562 C 6.53125 0.164062 6.347656 0.417969 6.023438 0.535156 C 5.695312 0.65625 5.21875 0.75 4.589844 0.8125 C 4.566406 0.53125 4.480469 0.28125 4.328125 0.0664062 C 4.828125 0.0859375 5.207031 0.0664062 5.46875 0 C 5.730469 -0.0664062 5.890625 -0.25 5.957031 -0.554688 L 6.152344 -2.667969 L 3.222656 -2.667969 C 3.136719 -2.0625 3 -1.550781 2.816406 -1.140625 C 2.632812 -0.726562 2.375 -0.347656 2.050781 0 C 1.726562 0.347656 1.398438 0.652344 1.074219 0.910156 C 0.988281 0.78125 0.792969 0.628906 0.488281 0.457031 C 0.769531 0.304688 1.070312 0.0664062 1.382812 -0.261719 C 1.699219 -0.585938 1.957031 -0.953125 2.164062 -1.367188 C 2.371094 -1.78125 2.5 -2.234375 2.554688 -2.734375 C 2.609375 -3.234375 2.636719 -3.839844 2.636719 -4.558594 L 1.726562 -4.558594 C 1.246094 -4.558594 0.855469 -4.546875 0.554688 -4.523438 L 0.554688 -5.175781 M 4.003906 -5.304688 C 3.808594 -5.738281 3.589844 -6.140625 3.351562 -6.511719 C 3.546875 -6.617188 3.742188 -6.738281 3.9375 -6.867188 C 4.175781 -6.5 4.417969 -6.097656 4.65625 -5.664062 C 4.4375 -5.578125 4.222656 -5.457031 4.003906 -5.304688 Z "/>
</g>
<g id="glyph-0-16">
<path d="M 7.585938 -6.476562 C 7.5625 -6 7.550781 -5.566406 7.550781 -5.175781 C 7.550781 -4.808594 7.5625 -4.4375 7.585938 -4.070312 L 3.9375 -4.070312 C 3.960938 -4.480469 3.972656 -4.871094 3.972656 -5.242188 C 3.972656 -5.609375 3.960938 -6.023438 3.9375 -6.476562 L 7.585938 -6.476562 M 0.519531 -6.28125 C 0.890625 -6.324219 1.308594 -6.394531 1.773438 -6.492188 C 2.242188 -6.589844 2.636719 -6.714844 2.960938 -6.867188 C 3.113281 -6.585938 3.265625 -6.347656 3.417969 -6.152344 C 3.265625 -6.175781 3.109375 -6.167969 2.945312 -6.136719 C 2.78125 -6.101562 2.605469 -6.078125 2.410156 -6.054688 L 2.410156 -4.460938 C 2.710938 -4.460938 3.039062 -4.46875 3.386719 -4.492188 L 3.386719 -3.875 C 3.039062 -3.894531 2.710938 -3.90625 2.410156 -3.90625 L 2.410156 -1.042969 C 2.410156 -0.5625 2.417969 0.0742188 2.441406 0.878906 L 1.789062 0.878906 C 1.8125 0.0742188 1.824219 -0.554688 1.824219 -1.007812 L 1.824219 -2.507812 C 1.519531 -1.898438 1.183594 -1.324219 0.8125 -0.78125 C 0.660156 -1 0.488281 -1.195312 0.292969 -1.367188 C 0.597656 -1.671875 0.867188 -2.019531 1.105469 -2.410156 C 1.34375 -2.800781 1.5625 -3.296875 1.757812 -3.90625 C 1.214844 -3.90625 0.8125 -3.894531 0.554688 -3.875 L 0.554688 -4.492188 C 0.921875 -4.46875 1.195312 -4.460938 1.367188 -4.460938 L 1.824219 -4.460938 L 1.824219 -5.925781 C 1.539062 -5.859375 1.183594 -5.792969 0.75 -5.730469 C 0.683594 -5.925781 0.609375 -6.109375 0.519531 -6.28125 M 6.640625 -3.253906 C 6.988281 -3.253906 7.355469 -3.265625 7.746094 -3.289062 L 7.746094 -2.703125 C 7.355469 -2.722656 6.988281 -2.734375 6.640625 -2.734375 L 6.023438 -2.734375 L 6.023438 -1.691406 L 6.378906 -1.691406 C 6.707031 -1.691406 7.085938 -1.703125 7.519531 -1.726562 L 7.519531 -1.105469 C 7.085938 -1.128906 6.738281 -1.140625 6.476562 -1.140625 L 6.023438 -1.140625 L 6.023438 0 L 6.804688 0 C 7.195312 0 7.605469 -0.0117188 8.039062 -0.03125 L 8.039062 0.585938 C 7.691406 0.5625 7.28125 0.554688 6.804688 0.554688 L 4.621094 0.554688 C 4.144531 0.554688 3.734375 0.574219 3.386719 0.617188 L 3.386719 -0.03125 C 3.734375 -0.0117188 4.144531 0 4.621094 0 L 5.402344 0 L 5.402344 -1.140625 L 4.949219 -1.140625 C 4.601562 -1.140625 4.273438 -1.117188 3.972656 -1.074219 L 3.972656 -1.726562 C 4.273438 -1.703125 4.601562 -1.691406 4.949219 -1.691406 L 5.402344 -1.691406 L 5.402344 -2.734375 L 4.882812 -2.734375 C 4.492188 -2.734375 4.125 -2.722656 3.777344 -2.703125 L 3.777344 -3.289062 C 4.125 -3.265625 4.492188 -3.253906 4.882812 -3.253906 L 6.640625 -3.253906 M 6.867188 -4.65625 L 6.867188 -5.925781 L 4.558594 -5.925781 L 4.558594 -4.65625 L 6.867188 -4.65625 M 2.996094 -3.125 C 3.210938 -2.800781 3.441406 -2.417969 3.679688 -1.984375 C 3.546875 -1.898438 3.375 -1.769531 3.15625 -1.59375 C 2.941406 -2.074219 2.722656 -2.464844 2.507812 -2.765625 C 2.636719 -2.875 2.800781 -2.996094 2.996094 -3.125 Z "/>
</g>
</g>
</defs>
<g fill="rgb(100%, 100%, 100%)" fill-opacity="1">
<use xlink:href="#glyph-0-0" x="30" y="27.161133"/>
<use xlink:href="#glyph-0-1" x="34" y="27.161133"/>
<use xlink:href="#glyph-0-2" x="38" y="27.161133"/>
<use xlink:href="#glyph-0-3" x="46" y="27.161133"/>
<use xlink:href="#glyph-0-4" x="54" y="27.161133"/>
<use xlink:href="#glyph-0-5" x="62" y="27.161133"/>
</g>
<g fill="rgb(100%, 100%, 100%)" fill-opacity="1">
<use xlink:href="#glyph-0-6" x="66" y="27.161133"/>
<use xlink:href="#glyph-0-7" x="70" y="27.161133"/>
<use xlink:href="#glyph-0-8" x="74" y="27.161133"/>
<use xlink:href="#glyph-0-9" x="78" y="27.161133"/>
<use xlink:href="#glyph-0-10" x="82" y="27.161133"/>
<use xlink:href="#glyph-0-11" x="86" y="27.161133"/>
<use xlink:href="#glyph-0-12" x="90" y="27.161133"/>
<use xlink:href="#glyph-0-12" x="94" y="27.161133"/>
<use xlink:href="#glyph-0-13" x="98" y="27.161133"/>
</g>
<g fill="rgb(100%, 100%, 100%)" fill-opacity="1">
<use xlink:href="#glyph-0-14" x="102" y="27.161133"/>
<use xlink:href="#glyph-0-15" x="106" y="27.161133"/>
<use xlink:href="#glyph-0-16" x="114" y="27.161133"/>
</g>
</svg>
