<?xml version="1.0" encoding="UTF-8"?>
<svg xmlns="http://www.w3.org/2000/svg" xmlns:xlink="http://www.w3.org/1999/xlink" width="1920" height="1080" viewBox="0 0 1920 1080">
<defs>
<g>
<g id="glyph-0-0">
<path d="M 4.296875 -3.839844 C 4.1875 -5.25 4.125 -6.183594 4.101562 -6.640625 C 4.230469 -6.617188 4.480469 -6.585938 4.851562 -6.542969 C 4.808594 -6.28125 4.839844 -5.425781 4.949219 -3.972656 C 5.988281 -4.167969 6.792969 -4.351562 7.355469 -4.523438 L 7.519531 -3.90625 C 7.28125 -3.882812 6.445312 -3.722656 5.011719 -3.417969 C 5.273438 -2.050781 5.660156 -1.105469 6.167969 -0.585938 C 6.679688 -0.0664062 6.972656 0.0742188 7.046875 -0.164062 C 7.125 -0.402344 7.171875 -0.660156 7.195312 -0.945312 C 7.433594 -0.792969 7.671875 -0.695312 7.910156 -0.652344 C 7.757812 -0.0429688 7.613281 0.359375 7.46875 0.554688 C 7.328125 0.75 7.070312 0.78125 6.6875 0.652344 C 6.308594 0.519531 5.898438 0.171875 5.453125 -0.390625 C 5.007812 -0.953125 4.644531 -1.921875 4.363281 -3.289062 C 3.539062 -3.113281 3.027344 -2.996094 2.832031 -2.929688 L 2.636719 -3.546875 C 2.984375 -3.589844 3.539062 -3.6875 4.296875 -3.839844 M 2.929688 -6.476562 C 2.800781 -6.261719 2.5625 -5.6875 2.214844 -4.753906 L 2.214844 -0.617188 C 2.214844 -0.164062 2.222656 0.304688 2.246094 0.78125 L 1.5625 0.78125 C 1.585938 0.304688 1.59375 -0.164062 1.59375 -0.617188 L 1.59375 -3.582031 C 1.269531 -3.058594 1 -2.667969 0.78125 -2.410156 C 0.652344 -2.582031 0.488281 -2.746094 0.292969 -2.898438 C 0.640625 -3.222656 1 -3.742188 1.367188 -4.460938 C 1.734375 -5.175781 2.007812 -5.945312 2.179688 -6.769531 C 2.507812 -6.617188 2.757812 -6.519531 2.929688 -6.476562 M 6.121094 -6.347656 C 6.511719 -5.871094 6.78125 -5.511719 6.933594 -5.273438 C 6.738281 -5.144531 6.542969 -5.003906 6.347656 -4.851562 C 6.152344 -5.21875 5.902344 -5.589844 5.597656 -5.957031 C 5.773438 -6.066406 5.945312 -6.195312 6.121094 -6.347656 Z "/>
</g>
<g id="glyph-0-1">
<path d="M 7.355469 0.488281 C 6.835938 0.140625 6.335938 -0.304688 5.859375 -0.847656 C 5.382812 -1.390625 4.851562 -2.429688 4.265625 -3.972656 C 3.65625 -2.171875 2.527344 -0.640625 0.878906 0.617188 C 0.792969 0.402344 0.597656 0.171875 0.292969 -0.0664062 C 1.703125 -0.738281 2.898438 -2.246094 3.875 -4.589844 C 3.808594 -4.761719 3.613281 -5.023438 3.289062 -5.371094 C 2.960938 -5.71875 2.625 -5.957031 2.277344 -6.085938 C 2.515625 -6.28125 2.703125 -6.476562 2.832031 -6.671875 C 3.375 -6.261719 3.808594 -5.871094 4.132812 -5.5 C 4.460938 -5.132812 4.871094 -4.328125 5.371094 -3.09375 C 5.871094 -1.855469 6.738281 -0.933594 7.976562 -0.324219 C 7.671875 -0.109375 7.464844 0.164062 7.355469 0.488281 Z "/>
</g>
<g id="glyph-0-2">
<path d="M 5.011719 -5.566406 C 4.859375 -5.347656 4.753906 -5.101562 4.6875 -4.816406 L 7.097656 -4.816406 C 7.074219 -4.621094 7.0625 -4.320312 7.0625 -3.90625 L 7.0625 -2.898438 C 7.0625 -2.550781 7.074219 -2.222656 7.097656 -1.921875 L 5.273438 -1.921875 L 5.273438 0.0664062 C 5.273438 0.367188 5.175781 0.558594 4.980469 0.632812 C 4.785156 0.710938 4.46875 0.769531 4.035156 0.8125 C 3.992188 0.554688 3.917969 0.304688 3.808594 0.0664062 C 4.222656 0.0859375 4.460938 0.0820312 4.523438 0.046875 C 4.589844 0.015625 4.621094 -0.0742188 4.621094 -0.226562 L 4.621094 -1.921875 L 2.765625 -1.921875 C 2.789062 -2.179688 2.800781 -2.496094 2.800781 -2.863281 L 2.800781 -3.9375 C 2.800781 -4.285156 2.789062 -4.578125 2.765625 -4.816406 L 4.101562 -4.816406 C 4.230469 -5.296875 4.296875 -5.609375 4.296875 -5.761719 L 5.011719 -5.566406 M 0.359375 0.421875 C 0.75 -0.0976562 1.007812 -0.6875 1.140625 -1.351562 C 1.269531 -2.011719 1.335938 -2.5625 1.335938 -2.996094 L 1.335938 -5.371094 C 1.335938 -5.828125 1.324219 -6.164062 1.300781 -6.378906 L 6.542969 -6.378906 C 7.019531 -6.378906 7.355469 -6.390625 7.550781 -6.414062 L 7.550781 -5.828125 C 7.378906 -5.847656 7.042969 -5.859375 6.542969 -5.859375 L 1.984375 -5.859375 L 1.984375 -3.09375 C 1.964844 -2.464844 1.914062 -1.914062 1.839844 -1.449219 C 1.761719 -0.980469 1.644531 -0.554688 1.480469 -0.164062 C 1.316406 0.226562 1.171875 0.53125 1.042969 0.75 C 0.824219 0.597656 0.597656 0.488281 0.359375 0.421875 M 6.414062 -3.613281 L 6.414062 -4.328125 L 3.417969 -4.328125 L 3.417969 -3.613281 L 6.414062 -3.613281 M 6.414062 -2.441406 L 6.414062 -3.125 L 3.417969 -3.125 L 3.417969 -2.441406 L 6.414062 -2.441406 M 1.921875 0.0664062 C 2.203125 -0.109375 2.46875 -0.324219 2.71875 -0.585938 C 2.96875 -0.847656 3.179688 -1.128906 3.351562 -1.433594 C 3.546875 -1.238281 3.722656 -1.085938 3.875 -0.976562 C 3.289062 -0.28125 2.789062 0.21875 2.375 0.519531 C 2.246094 0.367188 2.09375 0.21875 1.921875 0.0664062 M 6.28125 -1.398438 C 7.042969 -0.726562 7.519531 -0.269531 7.714844 -0.03125 C 7.5625 0.0976562 7.410156 0.25 7.257812 0.421875 C 6.976562 0.0742188 6.511719 -0.378906 5.859375 -0.945312 C 6.011719 -1.117188 6.152344 -1.269531 6.28125 -1.398438 Z "/>
</g>
<g id="glyph-0-3">
<path d="M 0.554688 -5.175781 C 0.902344 -5.152344 1.28125 -5.144531 1.691406 -5.144531 L 6.542969 -5.144531 C 7.0625 -5.144531 7.488281 -5.152344 7.8125 -5.175781 L 7.8125 -4.523438 C 7.53125 -4.546875 7.140625 -4.558594 6.640625 -4.558594 L 3.289062 -4.558594 C 3.289062 -4.320312 3.277344 -3.882812 3.253906 -3.253906 L 6.902344 -3.253906 C 6.859375 -2.972656 6.8125 -2.5625 6.769531 -2.019531 L 6.574219 -0.226562 C 6.53125 0.164062 6.347656 0.417969 6.023438 0.535156 C 5.695312 0.65625 5.21875 0.75 4.589844 0.8125 C 4.566406 0.53125 4.480469 0.28125 4.328125 0.0664062 C 4.828125 0.0859375 5.207031 0.0664062 5.46875 0 C 5.730469 -0.0664062 5.890625 -0.25 5.957031 -0.554688 L 6.152344 -2.667969 L 3.222656 -2.667969 C 3.136719 -2.0625 3 -1.550781 2.816406 -1.140625 C 2.632812 -0.726562 2.375 -0.347656 2.050781 0 C 1.726562 0.347656 1.398438 0.652344 1.074219 0.910156 C 0.988281 0.78125 0.792969 0.628906 0.488281 0.457031 C 0.769531 0.304688 1.070312 0.0664062 1.382812 -0.261719 C 1.699219 -0.585938 1.957031 -0.953125 2.164062 -1.367188 C 2.371094 -1.78125 2.5 -2.234375 2.554688 -2.734375 C 2.609375 -3.234375 2.636719 -3.839844 2.636719 -4.558594 L 1.726562 -4.558594 C 1.246094 -4.558594 0.855469 -4.546875 0.554688 -4.523438 L 0.554688 -5.175781 M 4.003906 -5.304688 C 3.808594 -5.738281 3.589844 -6.140625 3.351562 -6.511719 C 3.546875 -6.617188 3.742188 -6.738281 3.9375 -6.867188 C 4.175781 -6.5 4.417969 -6.097656 4.65625 -5.664062 C 4.4375 -5.578125 4.222656 -5.457031 4.003906 -5.304688 Z "/>
</g>
<g id="glyph-0-4">
<path d="M 7.585938 -6.476562 C 7.5625 -6 7.550781 -5.566406 7.550781 -5.175781 C 7.550781 -4.808594 7.5625 -4.4375 7.585938 -4.070312 L 3.9375 -4.070312 C 3.960938 -4.480469 3.972656 -4.871094 3.972656 -5.242188 C 3.972656 -5.609375 3.960938 -6.023438 3.9375 -6.476562 L 7.585938 -6.476562 M 0.519531 -6.28125 C 0.890625 -6.324219 1.308594 -6.394531 1.773438 -6.492188 C 2.242188 -6.589844 2.636719 -6.714844 2.960938 -6.867188 C 3.113281 -6.585938 3.265625 -6.347656 3.417969 -6.152344 C 3.265625 -6.175781 3.109375 -6.167969 2.945312 -6.136719 C 2.78125 -6.101562 2.605469 -6.078125 2.410156 -6.054688 L 2.410156 -4.460938 C 2.710938 -4.460938 3.039062 -4.46875 3.386719 -4.492188 L 3.386719 -3.875 C 3.039062 -3.894531 2.710938 -3.90625 2.410156 -3.90625 L 2.410156 -1.042969 C 2.410156 -0.5625 2.417969 0.0742188 2.441406 0.878906 L 1.789062 0.878906 C 1.8125 0.0742188 1.824219 -0.554688 1.824219 -1.007812 L 1.824219 -2.507812 C 1.519531 -1.898438 1.183594 -1.324219 0.8125 -0.78125 C 0.660156 -1 0.488281 -1.195312 0.292969 -1.367188 C 0.597656 -1.671875 0.867188 -2.019531 1.105469 -2.410156 C 1.34375 -2.800781 1.5625 -3.296875 1.757812 -3.90625 C 1.214844 -3.90625 0.8125 -3.894531 0.554688 -3.875 L 0.554688 -4.492188 C 0.921875 -4.46875 1.195312 -4.460938 1.367188 -4.460938 L 1.824219 -4.460938 L 1.824219 -5.925781 C 1.539062 -5.859375 1.183594 -5.792969 0.75 -5.730469 C 0.683594 -5.925781 0.609375 -6.109375 0.519531 -6.28125 M 6.640625 -3.253906 C 6.988281 -3.253906 7.355469 -3.265625 7.746094 -3.289062 L 7.746094 -2.703125 C 7.355469 -2.722656 6.988281 -2.734375 6.640625 -2.734375 L 6.023438 -2.734375 L 6.023438 -1.691406 L 6.378906 -1.691406 C 6.707031 -1.691406 7.085938 -1.703125 7.519531 -1.726562 L 7.519531 -1.105469 C 7.085938 -1.128906 6.738281 -1.140625 6.476562 -1.140625 L 6.023438 -1.140625 L 6.023438 0 L 6.804688 0 C 7.195312 0 7.605469 -0.0117188 8.039062 -0.03125 L 8.039062 0.585938 C 7.691406 0.5625 7.28125 0.554688 6.804688 0.554688 L 4.621094 0.554688 C 4.144531 0.554688 3.734375 0.574219 3.386719 0.617188 L 3.386719 -0.03125 C 3.734375 -0.0117188 4.144531 0 4.621094 0 L 5.402344 0 L 5.402344 -1.140625 L 4.949219 -1.140625 C 4.601562 -1.140625 4.273438 -1.117188 3.972656 -1.074219 L 3.972656 -1.726562 C 4.273438 -1.703125 4.601562 -1.691406 4.949219 -1.691406 L 5.402344 -1.691406 L 5.402344 -2.734375 L 4.882812 -2.734375 C 4.492188 -2.734375 4.125 -2.722656 3.777344 -2.703125 L 3.777344 -3.289062 C 4.125 -3.265625 4.492188 -3.253906 4.882812 -3.253906 L 6.640625 -3.253906 M 6.867188 -4.65625 L 6.867188 -5.925781 L 4.558594 -5.925781 L 4.558594 -4.65625 L 6.867188 -4.65625 M 2.996094 -3.125 C 3.210938 -2.800781 3.441406 -2.417969 3.679688 -1.984375 C 3.546875 -1.898438 3.375 -1.769531 3.15625 -1.59375 C 2.941406 -2.074219 2.722656 -2.464844 2.507812 -2.765625 C 2.636719 -2.875 2.800781 -2.996094 2.996094 -3.125 Z "/>
</g>
<g id="glyph-0-5">
<path d="M 7.257812 -6.476562 C 7.238281 -6.175781 7.226562 -5.730469 7.226562 -5.144531 C 7.226562 -4.578125 7.238281 -4.125 7.257812 -3.777344 L 3.484375 -3.777344 C 3.503906 -4.125 3.515625 -4.578125 3.515625 -5.144531 C 3.515625 -5.707031 3.503906 -6.152344 3.484375 -6.476562 L 7.257812 -6.476562 M 2.539062 -2.117188 C 2.929688 -2.09375 3.363281 -2.082031 3.839844 -2.082031 L 6.21875 -2.082031 L 6.21875 -2.734375 L 4.070312 -2.734375 C 3.699219 -2.734375 3.351562 -2.722656 3.027344 -2.703125 L 3.027344 -3.253906 C 3.351562 -3.234375 3.699219 -3.222656 4.070312 -3.222656 L 6.511719 -3.222656 C 6.964844 -3.222656 7.355469 -3.234375 7.683594 -3.253906 L 7.683594 -2.703125 C 7.398438 -2.722656 7.105469 -2.734375 6.804688 -2.734375 L 6.804688 -2.082031 C 7.195312 -2.082031 7.5625 -2.09375 7.910156 -2.117188 L 7.910156 -1.53125 C 7.585938 -1.550781 7.214844 -1.5625 6.804688 -1.5625 L 6.804688 -0.324219 C 6.824219 0.128906 6.707031 0.414062 6.445312 0.519531 C 6.183594 0.628906 5.847656 0.714844 5.4375 0.78125 C 5.394531 0.5625 5.304688 0.316406 5.175781 0.03125 C 5.675781 0.03125 5.980469 -0.00390625 6.085938 -0.0820312 C 6.195312 -0.15625 6.238281 -0.316406 6.21875 -0.554688 L 6.21875 -1.5625 L 3.839844 -1.5625 C 3.363281 -1.5625 2.929688 -1.550781 2.539062 -1.53125 L 2.539062 -2.117188 M 1.496094 0.714844 C 1.519531 0.128906 1.53125 -0.359375 1.53125 -0.75 L 1.53125 -2.703125 C 1.335938 -2.484375 1.097656 -2.234375 0.8125 -1.953125 C 0.683594 -2.171875 0.53125 -2.355469 0.359375 -2.507812 C 0.792969 -2.832031 1.171875 -3.199219 1.496094 -3.613281 C 1.824219 -4.027344 2.105469 -4.460938 2.34375 -4.914062 C 2.515625 -4.761719 2.722656 -4.621094 2.960938 -4.492188 C 2.765625 -4.230469 2.484375 -3.851562 2.117188 -3.351562 L 2.117188 -0.75 C 2.117188 -0.359375 2.125 0.128906 2.148438 0.714844 L 1.496094 0.714844 M 2.800781 -6.347656 C 2.191406 -5.589844 1.617188 -4.9375 1.074219 -4.394531 C 0.945312 -4.566406 0.792969 -4.730469 0.617188 -4.882812 C 1.226562 -5.382812 1.757812 -6.011719 2.214844 -6.769531 C 2.386719 -6.617188 2.582031 -6.476562 2.800781 -6.347656 M 6.640625 -4.296875 L 6.640625 -4.914062 L 4.101562 -4.914062 L 4.101562 -4.296875 L 6.640625 -4.296875 M 6.640625 -5.402344 L 6.640625 -5.988281 L 4.101562 -5.988281 L 4.101562 -5.402344 L 6.640625 -5.402344 M 3.839844 -1.367188 C 4.167969 -0.910156 4.425781 -0.53125 4.621094 -0.226562 C 4.46875 -0.140625 4.273438 -0.0117188 4.035156 0.164062 C 3.90625 -0.183594 3.679688 -0.5625 3.351562 -0.976562 C 3.546875 -1.105469 3.710938 -1.238281 3.839844 -1.367188 Z "/>
</g>
<g id="glyph-0-6">
<path d="M 4.785156 -0.195312 C 3.570312 -0.0234375 2.640625 0.121094 2 0.226562 C 1.363281 0.335938 0.910156 0.433594 0.652344 0.519531 C 0.585938 0.238281 0.511719 -0.03125 0.421875 -0.292969 C 0.8125 -0.316406 1.132812 -0.335938 1.382812 -0.359375 C 1.632812 -0.378906 1.929688 -0.414062 2.277344 -0.457031 L 2.277344 -1.726562 L 1.824219 -1.726562 C 1.390625 -1.726562 1.019531 -1.703125 0.714844 -1.660156 L 0.714844 -2.277344 C 1.085938 -2.257812 1.421875 -2.246094 1.726562 -2.246094 L 2.277344 -2.246094 L 2.277344 -3.320312 C 1.84375 -3.296875 1.535156 -3.277344 1.351562 -3.253906 C 1.167969 -3.234375 0.964844 -3.199219 0.75 -3.15625 C 0.707031 -3.441406 0.640625 -3.6875 0.554688 -3.90625 C 0.902344 -3.992188 1.210938 -4.210938 1.480469 -4.558594 C 1.753906 -4.90625 1.964844 -5.296875 2.117188 -5.730469 L 1.628906 -5.730469 C 1.257812 -5.730469 0.910156 -5.71875 0.585938 -5.695312 L 0.585938 -6.316406 C 0.933594 -6.292969 1.269531 -6.28125 1.59375 -6.28125 L 3.679688 -6.28125 C 4.070312 -6.28125 4.417969 -6.292969 4.71875 -6.316406 L 4.71875 -5.695312 C 4.394531 -5.71875 4.046875 -5.730469 3.679688 -5.730469 L 2.34375 -5.730469 L 2.929688 -5.339844 C 2.710938 -5.164062 2.507812 -4.949219 2.3125 -4.6875 C 2.117188 -4.425781 1.886719 -4.144531 1.628906 -3.839844 C 2.410156 -3.882812 3.136719 -3.929688 3.808594 -3.972656 C 3.636719 -4.253906 3.441406 -4.535156 3.222656 -4.816406 C 3.441406 -4.925781 3.636719 -5.046875 3.808594 -5.175781 C 4.027344 -4.871094 4.230469 -4.578125 4.425781 -4.296875 C 4.621094 -4.015625 4.808594 -3.753906 4.980469 -3.515625 C 4.785156 -3.363281 4.566406 -3.222656 4.328125 -3.09375 C 4.242188 -3.246094 4.167969 -3.375 4.101562 -3.484375 C 3.644531 -3.417969 3.265625 -3.375 2.960938 -3.351562 L 2.960938 -2.246094 L 3.582031 -2.246094 C 3.949219 -2.246094 4.265625 -2.257812 4.523438 -2.277344 L 4.523438 -1.660156 C 4.242188 -1.703125 3.9375 -1.726562 3.613281 -1.726562 L 2.960938 -1.726562 L 2.960938 -0.519531 C 3.570312 -0.609375 4.210938 -0.707031 4.882812 -0.8125 C 4.839844 -0.597656 4.808594 -0.390625 4.785156 -0.195312 M 7.648438 -6.738281 C 7.605469 -6.414062 7.585938 -6.042969 7.585938 -5.632812 L 7.585938 -0.292969 C 7.585938 0.207031 7.492188 0.5 7.308594 0.585938 C 7.125 0.671875 6.726562 0.769531 6.121094 0.878906 C 6.054688 0.597656 5.957031 0.335938 5.828125 0.0976562 C 6.28125 0.0976562 6.582031 0.0820312 6.722656 0.046875 C 6.863281 0.015625 6.933594 -0.164062 6.933594 -0.488281 L 6.933594 -5.632812 C 6.933594 -6.109375 6.921875 -6.476562 6.902344 -6.738281 L 7.648438 -6.738281 M 5.988281 -5.695312 C 5.945312 -5.414062 5.925781 -5.023438 5.925781 -4.523438 L 5.925781 -2.082031 C 5.925781 -1.628906 5.933594 -1.246094 5.957031 -0.945312 L 5.273438 -0.945312 C 5.296875 -1.246094 5.304688 -1.628906 5.304688 -2.082031 L 5.304688 -4.65625 C 5.304688 -5.089844 5.296875 -5.4375 5.273438 -5.695312 Z "/>
</g>
<g id="glyph-0-7">
<path d="M 4.492188 -5.597656 C 4.492188 -5.925781 4.460938 -6.28125 4.394531 -6.671875 C 4.675781 -6.652344 4.96875 -6.617188 5.273438 -6.574219 C 5.207031 -6.445312 5.164062 -6.234375 5.144531 -5.941406 C 5.121094 -5.648438 5.121094 -5.230469 5.144531 -4.6875 L 6.25 -4.882812 C 6.617188 -4.96875 6.988281 -5.066406 7.355469 -5.175781 L 7.488281 -4.558594 C 7.117188 -4.515625 6.738281 -4.460938 6.347656 -4.394531 L 5.175781 -4.167969 C 5.175781 -3.820312 5.199219 -3.515625 5.242188 -3.253906 L 6.511719 -3.484375 C 6.945312 -3.570312 7.355469 -3.679688 7.746094 -3.808594 L 7.84375 -3.191406 C 7.453125 -3.125 7.042969 -3.050781 6.609375 -2.960938 L 5.339844 -2.734375 C 5.382812 -2.300781 5.492188 -1.898438 5.664062 -1.53125 C 5.859375 -1.683594 6.050781 -1.855469 6.234375 -2.050781 C 6.417969 -2.246094 6.585938 -2.464844 6.738281 -2.703125 C 7.0625 -2.441406 7.3125 -2.269531 7.488281 -2.179688 C 7.203125 -2.050781 6.980469 -1.902344 6.820312 -1.742188 C 6.65625 -1.578125 6.390625 -1.324219 6.023438 -0.976562 C 6.28125 -0.542969 6.515625 -0.265625 6.722656 -0.144531 C 6.929688 -0.0273438 7.074219 -0.0234375 7.160156 -0.128906 C 7.25 -0.238281 7.324219 -0.464844 7.390625 -0.8125 C 7.585938 -0.660156 7.8125 -0.542969 8.074219 -0.457031 C 7.703125 0.5 7.300781 0.882812 6.867188 0.699219 C 6.433594 0.515625 5.980469 0.0859375 5.5 -0.585938 C 5.199219 -0.347656 4.898438 -0.125 4.605469 0.0820312 C 4.3125 0.289062 3.949219 0.5 3.515625 0.714844 C 3.40625 0.5 3.246094 0.304688 3.027344 0.128906 C 3.460938 -0.0234375 3.832031 -0.183594 4.132812 -0.359375 C 4.4375 -0.53125 4.785156 -0.78125 5.175781 -1.105469 C 4.980469 -1.539062 4.839844 -2.050781 4.753906 -2.636719 C 4.101562 -2.527344 3.644531 -2.429688 3.386719 -2.34375 L 3.289062 -2.960938 C 3.546875 -2.960938 3.992188 -3.027344 4.621094 -3.15625 C 4.578125 -3.503906 4.558594 -3.796875 4.558594 -4.035156 C 3.972656 -3.90625 3.570312 -3.808594 3.351562 -3.742188 L 3.222656 -4.363281 C 3.441406 -4.363281 3.863281 -4.425781 4.492188 -4.558594 L 4.492188 -5.597656 M 2.539062 -6.347656 C 2.320312 -6.152344 2.109375 -5.875 1.902344 -5.515625 C 1.699219 -5.160156 1.421875 -4.71875 1.074219 -4.199219 C 1.59375 -4.222656 1.953125 -4.230469 2.148438 -4.230469 C 2.34375 -4.558594 2.515625 -4.914062 2.667969 -5.304688 C 2.886719 -5.152344 3.125 -5.035156 3.386719 -4.949219 C 3.167969 -4.730469 2.945312 -4.4375 2.71875 -4.070312 C 2.488281 -3.699219 2.09375 -3.070312 1.53125 -2.179688 C 2.117188 -2.222656 2.636719 -2.269531 3.09375 -2.3125 C 3.027344 -2.09375 2.996094 -1.910156 2.996094 -1.757812 C 2.84375 -1.757812 2.507812 -1.730469 1.984375 -1.675781 C 1.464844 -1.621094 1.042969 -1.550781 0.714844 -1.464844 C 0.695312 -1.683594 0.628906 -1.910156 0.519531 -2.148438 C 0.78125 -2.214844 1.019531 -2.386719 1.238281 -2.667969 C 1.453125 -2.953125 1.683594 -3.308594 1.921875 -3.742188 C 1.203125 -3.699219 0.75 -3.613281 0.554688 -3.484375 C 0.488281 -3.722656 0.390625 -3.960938 0.261719 -4.199219 C 0.542969 -4.394531 0.8125 -4.714844 1.074219 -5.160156 C 1.335938 -5.605469 1.574219 -6.121094 1.789062 -6.707031 C 2.007812 -6.554688 2.257812 -6.433594 2.539062 -6.347656 M 3.351562 -1.140625 C 3.332031 -0.902344 3.332031 -0.714844 3.351562 -0.585938 C 2.808594 -0.476562 2.320312 -0.367188 1.886719 -0.261719 C 1.453125 -0.152344 1.050781 -0.03125 0.683594 0.0976562 C 0.617188 -0.140625 0.5 -0.378906 0.324219 -0.617188 C 0.933594 -0.683594 1.398438 -0.742188 1.726562 -0.796875 C 2.050781 -0.851562 2.59375 -0.964844 3.351562 -1.140625 M 6.316406 -5.242188 C 6.164062 -5.480469 5.957031 -5.761719 5.695312 -6.085938 L 6.21875 -6.347656 C 6.304688 -6.238281 6.519531 -5.980469 6.867188 -5.566406 C 6.652344 -5.480469 6.46875 -5.371094 6.316406 -5.242188 Z "/>
</g>
<g id="glyph-0-8">
<path d="M 4.492188 -5.890625 C 4.382812 -5.5 4.308594 -5.164062 4.265625 -4.882812 L 5.273438 -4.882812 L 5.273438 -5.566406 C 5.273438 -5.933594 5.261719 -6.292969 5.242188 -6.640625 L 5.925781 -6.640625 C 5.902344 -6.292969 5.890625 -5.933594 5.890625 -5.566406 L 5.890625 -4.882812 L 6.542969 -4.882812 C 6.824219 -4.882812 7.160156 -4.894531 7.550781 -4.914062 L 7.550781 -4.296875 C 7.160156 -4.320312 6.824219 -4.328125 6.542969 -4.328125 L 5.890625 -4.328125 L 5.890625 -2.605469 L 6.476562 -2.605469 C 6.804688 -2.605469 7.128906 -2.613281 7.453125 -2.636719 L 7.453125 -2.019531 C 7.128906 -2.039062 6.804688 -2.050781 6.476562 -2.050781 L 5.890625 -2.050781 L 5.890625 -0.03125 L 6.769531 -0.03125 C 7.140625 -0.03125 7.496094 -0.0429688 7.84375 -0.0664062 L 7.84375 0.519531 C 7.496094 0.5 7.140625 0.488281 6.769531 0.488281 L 4.265625 0.488281 C 3.875 0.488281 3.492188 0.5 3.125 0.519531 L 3.125 -0.0664062 C 3.492188 -0.0429688 3.863281 -0.03125 4.230469 -0.03125 L 5.273438 -0.03125 L 5.273438 -2.050781 L 4.71875 -2.050781 C 4.4375 -2.050781 4.113281 -2.039062 3.742188 -2.019531 L 3.742188 -2.636719 C 4.027344 -2.613281 4.351562 -2.605469 4.71875 -2.605469 L 5.273438 -2.605469 L 5.273438 -4.328125 L 4.132812 -4.328125 C 4.070312 -4.003906 3.894531 -3.527344 3.613281 -2.898438 C 3.375 -3.027344 3.179688 -3.101562 3.027344 -3.125 C 3.332031 -3.753906 3.527344 -4.296875 3.613281 -4.753906 C 3.699219 -5.207031 3.777344 -5.640625 3.839844 -6.054688 C 4.058594 -5.988281 4.273438 -5.933594 4.492188 -5.890625 M 2.214844 -6.707031 C 2.191406 -6.273438 2.179688 -5.847656 2.179688 -5.4375 L 2.179688 -0.554688 C 2.179688 -0.0976562 2.191406 0.359375 2.214844 0.8125 L 1.53125 0.8125 C 1.550781 0.359375 1.5625 -0.0976562 1.5625 -0.554688 L 1.5625 -5.4375 C 1.5625 -5.890625 1.550781 -6.316406 1.53125 -6.707031 L 2.214844 -6.707031 M 1.269531 -4.851562 C 1.140625 -3.9375 1.019531 -3.253906 0.910156 -2.800781 C 0.695312 -2.84375 0.5 -2.886719 0.324219 -2.929688 C 0.476562 -3.492188 0.597656 -4.167969 0.683594 -4.949219 C 0.855469 -4.925781 1.050781 -4.894531 1.269531 -4.851562 M 2.765625 -5.242188 C 2.941406 -4.894531 3.113281 -4.449219 3.289062 -3.90625 C 3.09375 -3.839844 2.917969 -3.765625 2.765625 -3.679688 C 2.613281 -4.15625 2.453125 -4.601562 2.277344 -5.011719 C 2.453125 -5.101562 2.613281 -5.175781 2.765625 -5.242188 Z "/>
</g>
<g id="glyph-0-9">
<path d="M 2.375 -3.15625 L 1.628906 -3.15625 L 1.628906 -3.875 L 2.375 -3.875 L 2.375 -3.15625 M 2.375 -0.164062 L 1.628906 -0.164062 L 1.628906 -0.878906 L 2.375 -0.878906 Z "/>
</g>
</g>
</defs>
<g fill="rgb(100%, 100%, 100%)" fill-opacity="1">
<use xlink:href="#glyph-0-0" x="30" y="27.161133"/>
<use xlink:href="#glyph-0-1" x="38" y="27.161133"/>
<use xlink:href="#glyph-0-2" x="46" y="27.161133"/>
<use xlink:href="#glyph-0-3" x="54" y="27.161133"/>
<use xlink:href="#glyph-0-4" x="62" y="27.161133"/>
<use xlink:href="#glyph-0-5" x="70" y="27.161133"/>
<use xlink:href="#glyph-0-6" x="78" y="27.161133"/>
<use xlink:href="#glyph-0-7" x="86" y="27.161133"/>
<use xlink:href="#glyph-0-8" x="94" y="27.161133"/>
<use xlink:href="#glyph-0-3" x="102" y="27.161133"/>
<use xlink:href="#glyph-0-4" x="110" y="27.161133"/>
<use xlink:href="#glyph-0-9" x="118" y="27.161133"/>
</g>
</svg>
