<?xml version="1.0" encoding="UTF-8"?>
<svg xmlns="http://www.w3.org/2000/svg" xmlns:xlink="http://www.w3.org/1999/xlink" width="1920" height="1080" viewBox="0 0 1920 1080">
<defs>
<g>
<g id="glyph-0-0">
<path d="M 1.503906 -0.488281 C 1.503906 -0.40625 1.488281 -0.332031 1.453125 -0.269531 C 1.417969 -0.207031 1.371094 -0.152344 1.3125 -0.109375 C 1.25 -0.0625 1.179688 -0.03125 1.097656 -0.0078125 C 1.015625 0.015625 0.925781 0.0273438 0.828125 0.0273438 C 0.722656 0.0273438 0.628906 0.015625 0.546875 -0.0078125 C 0.464844 -0.03125 0.398438 -0.0664062 0.34375 -0.109375 C 0.289062 -0.152344 0.246094 -0.203125 0.21875 -0.261719 C 0.191406 -0.320312 0.175781 -0.382812 0.175781 -0.457031 C 0.175781 -0.574219 0.210938 -0.675781 0.277344 -0.765625 C 0.34375 -0.851562 0.445312 -0.929688 0.585938 -1 C 0.460938 -1.0625 0.367188 -1.136719 0.308594 -1.214844 C 0.25 -1.292969 0.21875 -1.386719 0.21875 -1.488281 C 0.21875 -1.550781 0.230469 -1.609375 0.257812 -1.667969 C 0.285156 -1.726562 0.324219 -1.78125 0.375 -1.828125 C 0.425781 -1.871094 0.492188 -1.910156 0.570312 -1.9375 C 0.648438 -1.964844 0.742188 -1.976562 0.847656 -1.976562 C 0.949219 -1.976562 1.039062 -1.964844 1.113281 -1.945312 C 1.191406 -1.921875 1.253906 -1.894531 1.304688 -1.851562 C 1.355469 -1.8125 1.394531 -1.765625 1.421875 -1.707031 C 1.449219 -1.652344 1.460938 -1.589844 1.460938 -1.519531 C 1.460938 -1.40625 1.429688 -1.308594 1.367188 -1.230469 C 1.304688 -1.148438 1.214844 -1.082031 1.097656 -1.019531 C 1.15625 -0.992188 1.207031 -0.960938 1.257812 -0.925781 C 1.308594 -0.890625 1.351562 -0.851562 1.386719 -0.808594 C 1.425781 -0.765625 1.453125 -0.71875 1.472656 -0.664062 C 1.492188 -0.613281 1.503906 -0.554688 1.503906 -0.488281 M 1.195312 -1.5 C 1.195312 -1.585938 1.164062 -1.652344 1.101562 -1.695312 C 1.039062 -1.738281 0.953125 -1.761719 0.839844 -1.761719 C 0.730469 -1.761719 0.640625 -1.738281 0.578125 -1.695312 C 0.515625 -1.652344 0.488281 -1.589844 0.488281 -1.503906 C 0.488281 -1.464844 0.492188 -1.429688 0.507812 -1.398438 C 0.523438 -1.363281 0.546875 -1.332031 0.578125 -1.304688 C 0.609375 -1.273438 0.648438 -1.246094 0.695312 -1.21875 C 0.742188 -1.191406 0.796875 -1.164062 0.863281 -1.132812 C 0.976562 -1.1875 1.058594 -1.242188 1.113281 -1.300781 C 1.167969 -1.355469 1.195312 -1.421875 1.195312 -1.5 M 1.222656 -0.46875 C 1.222656 -0.507812 1.214844 -0.542969 1.203125 -0.578125 C 1.191406 -0.613281 1.171875 -0.648438 1.140625 -0.679688 C 1.109375 -0.714844 1.066406 -0.75 1.015625 -0.78125 C 0.964844 -0.816406 0.898438 -0.851562 0.820312 -0.886719 C 0.75 -0.855469 0.695312 -0.820312 0.648438 -0.789062 C 0.601562 -0.757812 0.566406 -0.722656 0.535156 -0.691406 C 0.507812 -0.65625 0.488281 -0.621094 0.476562 -0.585938 C 0.464844 -0.550781 0.457031 -0.511719 0.457031 -0.472656 C 0.457031 -0.429688 0.46875 -0.390625 0.488281 -0.355469 C 0.507812 -0.320312 0.535156 -0.289062 0.566406 -0.265625 C 0.601562 -0.242188 0.640625 -0.226562 0.6875 -0.214844 C 0.734375 -0.203125 0.785156 -0.195312 0.839844 -0.195312 C 0.894531 -0.195312 0.941406 -0.199219 0.988281 -0.210938 C 1.035156 -0.222656 1.078125 -0.238281 1.109375 -0.261719 C 1.144531 -0.285156 1.171875 -0.3125 1.191406 -0.347656 C 1.210938 -0.382812 1.222656 -0.421875 1.222656 -0.46875 Z "/>
</g>
<g id="glyph-0-1">
<path d="M 1.550781 -0.972656 C 1.550781 -0.824219 1.535156 -0.6875 1.503906 -0.566406 C 1.472656 -0.445312 1.429688 -0.339844 1.367188 -0.25 C 1.308594 -0.160156 1.230469 -0.09375 1.140625 -0.046875 C 1.050781 0.00390625 0.945312 0.0273438 0.824219 0.0273438 C 0.722656 0.0273438 0.625 0.0078125 0.539062 -0.03125 C 0.453125 -0.0703125 0.382812 -0.132812 0.320312 -0.214844 C 0.261719 -0.296875 0.214844 -0.398438 0.179688 -0.523438 C 0.148438 -0.652344 0.132812 -0.800781 0.132812 -0.972656 C 0.132812 -1.125 0.144531 -1.261719 0.175781 -1.382812 C 0.207031 -1.507812 0.253906 -1.613281 0.3125 -1.699219 C 0.371094 -1.789062 0.449219 -1.855469 0.539062 -1.90625 C 0.628906 -1.953125 0.734375 -1.976562 0.855469 -1.976562 C 0.960938 -1.976562 1.054688 -1.957031 1.140625 -1.917969 C 1.226562 -1.878906 1.296875 -1.816406 1.359375 -1.734375 C 1.421875 -1.652344 1.46875 -1.550781 1.5 -1.421875 C 1.53125 -1.296875 1.550781 -1.148438 1.550781 -0.972656 M 1.285156 -0.964844 C 1.285156 -1 1.285156 -1.03125 1.28125 -1.066406 C 1.28125 -1.097656 1.277344 -1.132812 1.273438 -1.164062 L 0.449219 -0.550781 C 0.464844 -0.5 0.484375 -0.449219 0.503906 -0.40625 C 0.527344 -0.363281 0.554688 -0.324219 0.589844 -0.292969 C 0.621094 -0.261719 0.65625 -0.238281 0.699219 -0.222656 C 0.742188 -0.203125 0.789062 -0.195312 0.839844 -0.195312 C 0.90625 -0.195312 0.96875 -0.210938 1.023438 -0.246094 C 1.078125 -0.277344 1.125 -0.328125 1.164062 -0.390625 C 1.203125 -0.457031 1.234375 -0.535156 1.253906 -0.632812 C 1.277344 -0.726562 1.285156 -0.839844 1.285156 -0.964844 M 0.394531 -0.984375 C 0.394531 -0.953125 0.394531 -0.921875 0.394531 -0.890625 C 0.394531 -0.859375 0.398438 -0.832031 0.398438 -0.800781 L 1.226562 -1.410156 C 1.210938 -1.460938 1.191406 -1.507812 1.167969 -1.550781 C 1.144531 -1.59375 1.117188 -1.628906 1.085938 -1.660156 C 1.054688 -1.6875 1.019531 -1.710938 0.976562 -1.730469 C 0.9375 -1.746094 0.890625 -1.753906 0.839844 -1.753906 C 0.773438 -1.753906 0.710938 -1.738281 0.65625 -1.707031 C 0.601562 -1.671875 0.554688 -1.625 0.515625 -1.558594 C 0.476562 -1.492188 0.445312 -1.414062 0.425781 -1.316406 C 0.40625 -1.222656 0.394531 -1.109375 0.394531 -0.984375 Z "/>
</g>
</g>
</defs>
<g fill="rgb(90.980392%, 92.54902%, 94.509804%)" fill-opacity="1">
<use xlink:href="#glyph-0-0" x="30" y="22.269531"/>
<use xlink:href="#glyph-0-1" x="32" y="22.269531"/>
</g>
</svg>
