<?xml version="1.0" encoding="UTF-8"?>
<svg xmlns="http://www.w3.org/2000/svg" xmlns:xlink="http://www.w3.org/1999/xlink" width="1920" height="1080" viewBox="0 0 1920 1080">
<defs>
<g>
<g id="glyph-0-0">
<path d="M 1.667969 -0.671875 C 1.667969 -0.578125 1.648438 -0.484375 1.613281 -0.398438 C 1.578125 -0.3125 1.527344 -0.238281 1.464844 -0.175781 C 1.398438 -0.113281 1.320312 -0.0625 1.226562 -0.0234375 C 1.136719 0.0117188 1.035156 0.0273438 0.921875 0.0273438 C 0.804688 0.0273438 0.703125 0.0117188 0.613281 -0.0273438 C 0.523438 -0.0625 0.445312 -0.121094 0.386719 -0.199219 C 0.324219 -0.277344 0.277344 -0.375 0.246094 -0.492188 C 0.214844 -0.613281 0.199219 -0.75 0.199219 -0.914062 C 0.199219 -1.023438 0.207031 -1.125 0.222656 -1.230469 C 0.234375 -1.332031 0.257812 -1.425781 0.292969 -1.515625 C 0.324219 -1.605469 0.367188 -1.6875 0.421875 -1.765625 C 0.476562 -1.839844 0.542969 -1.902344 0.625 -1.957031 C 0.703125 -2.011719 0.800781 -2.050781 0.910156 -2.082031 C 1.019531 -2.113281 1.144531 -2.128906 1.289062 -2.128906 L 1.5 -2.128906 L 1.5 -1.878906 L 1.273438 -1.878906 C 1.144531 -1.878906 1.035156 -1.863281 0.941406 -1.835938 C 0.847656 -1.804688 0.769531 -1.761719 0.707031 -1.707031 C 0.644531 -1.648438 0.597656 -1.582031 0.5625 -1.503906 C 0.53125 -1.425781 0.507812 -1.339844 0.5 -1.242188 L 0.492188 -1.175781 C 0.5625 -1.21875 0.640625 -1.25 0.730469 -1.273438 C 0.820312 -1.296875 0.917969 -1.308594 1.019531 -1.308594 C 1.128906 -1.308594 1.222656 -1.292969 1.304688 -1.261719 C 1.382812 -1.230469 1.449219 -1.1875 1.503906 -1.132812 C 1.558594 -1.074219 1.597656 -1.007812 1.625 -0.929688 C 1.652344 -0.851562 1.667969 -0.765625 1.667969 -0.671875 M 1.371094 -0.65625 C 1.371094 -0.722656 1.363281 -0.78125 1.347656 -0.832031 C 1.332031 -0.886719 1.304688 -0.929688 1.273438 -0.964844 C 1.238281 -1.003906 1.195312 -1.03125 1.144531 -1.050781 C 1.09375 -1.070312 1.03125 -1.082031 0.960938 -1.082031 C 0.917969 -1.082031 0.878906 -1.078125 0.835938 -1.070312 C 0.792969 -1.0625 0.75 -1.050781 0.710938 -1.039062 C 0.667969 -1.023438 0.632812 -1.007812 0.59375 -0.992188 C 0.558594 -0.972656 0.523438 -0.957031 0.492188 -0.9375 C 0.492188 -0.796875 0.503906 -0.679688 0.523438 -0.585938 C 0.542969 -0.492188 0.570312 -0.417969 0.609375 -0.359375 C 0.648438 -0.304688 0.695312 -0.261719 0.75 -0.238281 C 0.808594 -0.214844 0.875 -0.203125 0.945312 -0.203125 C 1.007812 -0.203125 1.066406 -0.214844 1.117188 -0.234375 C 1.167969 -0.253906 1.214844 -0.28125 1.25 -0.320312 C 1.289062 -0.359375 1.316406 -0.410156 1.339844 -0.464844 C 1.359375 -0.519531 1.371094 -0.585938 1.371094 -0.65625 Z "/>
</g>
</g>
</defs>
<g fill="rgb(53.333333%, 57.254902%, 65.098039%)" fill-opacity="1">
<use xlink:href="#glyph-0-0" x="30" y="22.475586"/>
</g>
</svg>
