<?xml version="1.0" encoding="UTF-8"?>
<svg xmlns="http://www.w3.org/2000/svg" xmlns:xlink="http://www.w3.org/1999/xlink" width="1920" height="1080" viewBox="0 0 1920 1080">
<defs>
<g>
<g id="glyph-0-0">
<path d="M 1.496094 -3.125 C 1.519531 -3.625 1.53125 -4.1875 1.53125 -4.816406 C 1.53125 -5.46875 1.519531 -6 1.496094 -6.414062 L 6.867188 -6.414062 C 6.847656 -5.957031 6.835938 -5.414062 6.835938 -4.785156 C 6.835938 -4.175781 6.847656 -3.625 6.867188 -3.125 L 1.496094 -3.125 M 5.4375 -2.960938 C 5.414062 -2.507812 5.402344 -1.984375 5.402344 -1.398438 L 5.402344 -0.03125 C 6.597656 -0.03125 7.421875 -0.0429688 7.878906 -0.0664062 L 7.878906 0.554688 C 7.421875 0.53125 7.019531 0.519531 6.671875 0.519531 L 1.824219 0.519531 C 1.34375 0.519531 0.910156 0.53125 0.519531 0.554688 L 0.519531 -0.0664062 C 0.933594 -0.0429688 1.714844 -0.03125 2.863281 -0.03125 L 2.863281 -1.367188 C 2.863281 -1.976562 2.855469 -2.507812 2.832031 -2.960938 L 3.546875 -2.960938 C 3.527344 -2.507812 3.515625 -1.976562 3.515625 -1.367188 L 3.515625 -0.03125 L 4.753906 -0.03125 L 4.753906 -1.398438 C 4.753906 -1.984375 4.742188 -2.507812 4.71875 -2.960938 L 5.4375 -2.960938 M 6.183594 -5.011719 L 6.183594 -5.859375 L 2.179688 -5.859375 L 2.179688 -5.011719 L 6.183594 -5.011719 M 6.183594 -3.710938 L 6.183594 -4.425781 L 2.179688 -4.425781 L 2.179688 -3.710938 L 6.183594 -3.710938 M 0.847656 -2.117188 C 1.0625 -2.203125 1.257812 -2.320312 1.433594 -2.472656 C 1.886719 -1.757812 2.234375 -1.148438 2.472656 -0.652344 C 2.234375 -0.542969 2.027344 -0.421875 1.855469 -0.292969 C 1.660156 -0.75 1.324219 -1.355469 0.847656 -2.117188 M 7.488281 -2.050781 C 7.398438 -1.964844 7.257812 -1.742188 7.0625 -1.382812 C 6.867188 -1.023438 6.628906 -0.652344 6.347656 -0.261719 C 6.195312 -0.390625 6.011719 -0.511719 5.792969 -0.617188 C 6.273438 -1.292969 6.609375 -1.910156 6.804688 -2.472656 C 7.019531 -2.277344 7.25 -2.136719 7.488281 -2.050781 Z "/>
</g>
<g id="glyph-0-1">
<path d="M 2.636719 -6.445312 C 2.507812 -6.273438 2.34375 -6 2.148438 -5.632812 L 4.035156 -5.632812 C 3.972656 -5.21875 3.855469 -4.726562 3.695312 -4.148438 C 3.53125 -3.574219 3.207031 -3 2.71875 -2.425781 C 2.230469 -1.851562 1.714844 -1.398438 1.171875 -1.074219 C 1.042969 -1.246094 0.847656 -1.390625 0.585938 -1.496094 C 1.105469 -1.757812 1.550781 -2.09375 1.921875 -2.507812 C 1.769531 -2.722656 1.496094 -2.972656 1.105469 -3.253906 C 1.257812 -3.386719 1.390625 -3.539062 1.496094 -3.710938 C 1.84375 -3.429688 2.125 -3.167969 2.34375 -2.929688 C 2.496094 -3.101562 2.636719 -3.296875 2.765625 -3.515625 C 2.464844 -3.820312 2.148438 -4.078125 1.824219 -4.296875 C 1.953125 -4.449219 2.0625 -4.601562 2.148438 -4.753906 C 2.515625 -4.492188 2.808594 -4.253906 3.027344 -4.035156 C 3.15625 -4.320312 3.253906 -4.675781 3.320312 -5.109375 L 1.921875 -5.109375 C 1.660156 -4.65625 1.3125 -4.132812 0.878906 -3.546875 C 0.707031 -3.699219 0.5 -3.808594 0.261719 -3.875 C 0.671875 -4.308594 1.015625 -4.789062 1.285156 -5.320312 C 1.558594 -5.855469 1.757812 -6.316406 1.886719 -6.707031 C 2.105469 -6.597656 2.355469 -6.511719 2.636719 -6.445312 M 7.519531 -4.035156 C 7.214844 -4.058594 6.671875 -4.070312 5.890625 -4.070312 C 6.042969 -3.527344 6.296875 -3.050781 6.65625 -2.636719 C 7.015625 -2.222656 7.453125 -1.910156 7.976562 -1.691406 C 7.691406 -1.519531 7.476562 -1.335938 7.324219 -1.140625 C 6.867188 -1.441406 6.5 -1.78125 6.21875 -2.148438 C 5.933594 -2.515625 5.695312 -2.941406 5.5 -3.417969 C 5.347656 -3.003906 5.132812 -2.59375 4.851562 -2.179688 C 4.566406 -1.769531 4.210938 -1.390625 3.777344 -1.042969 C 3.625 -1.214844 3.417969 -1.378906 3.15625 -1.53125 C 3.570312 -1.746094 3.9375 -2.066406 4.265625 -2.488281 C 4.589844 -2.914062 4.851562 -3.441406 5.046875 -4.070312 C 4.613281 -4.070312 4.230469 -4.058594 3.90625 -4.035156 L 3.90625 -4.589844 C 4.320312 -4.566406 4.71875 -4.558594 5.109375 -4.558594 C 5.132812 -5.597656 5.121094 -6.273438 5.078125 -6.574219 C 5.339844 -6.53125 5.578125 -6.511719 5.792969 -6.511719 C 5.75 -6.140625 5.730469 -5.492188 5.730469 -4.558594 C 6.554688 -4.558594 7.152344 -4.566406 7.519531 -4.589844 L 7.519531 -4.035156 M 7.292969 0.8125 C 7.054688 0.335938 6.683594 -0.195312 6.183594 -0.78125 C 6.378906 -0.867188 6.566406 -0.988281 6.738281 -1.140625 C 7.238281 -0.511719 7.617188 0.0234375 7.878906 0.457031 C 7.660156 0.519531 7.464844 0.640625 7.292969 0.8125 M 1.984375 -0.585938 C 1.660156 -0.128906 1.335938 0.359375 1.007812 0.878906 C 0.878906 0.75 0.683594 0.640625 0.421875 0.554688 C 0.726562 0.164062 1.050781 -0.347656 1.398438 -0.976562 C 1.53125 -0.867188 1.726562 -0.738281 1.984375 -0.585938 M 5.242188 0.714844 C 5.089844 0.304688 4.816406 -0.164062 4.425781 -0.683594 L 4.949219 -1.007812 C 5.402344 -0.378906 5.695312 0.0976562 5.828125 0.421875 C 5.542969 0.554688 5.347656 0.652344 5.242188 0.714844 M 3.222656 0.78125 C 3.136719 0.433594 2.953125 -0.0429688 2.667969 -0.652344 C 2.90625 -0.695312 3.101562 -0.769531 3.253906 -0.878906 C 3.515625 -0.402344 3.710938 0.0742188 3.839844 0.554688 C 3.539062 0.640625 3.332031 0.714844 3.222656 0.78125 M 7.128906 -4.851562 C 6.824219 -5.261719 6.5 -5.621094 6.152344 -5.925781 C 6.261719 -6.011719 6.390625 -6.140625 6.542969 -6.316406 C 6.910156 -6.011719 7.257812 -5.652344 7.585938 -5.242188 C 7.433594 -5.132812 7.28125 -5.003906 7.128906 -4.851562 Z "/>
</g>
<g id="glyph-0-2">
<path d="M 1.433594 -0.164062 L 1.007812 0.714844 L 0.683594 0.714844 L 1.007812 -0.164062 L 0.683594 -0.164062 L 0.683594 -0.878906 L 1.433594 -0.878906 Z "/>
</g>
<g id="glyph-0-3">
<path d="M 2.214844 -1.074219 C 2.105469 -1.203125 1.941406 -1.355469 1.726562 -1.53125 C 2.332031 -2.117188 2.734375 -2.941406 2.929688 -4.003906 L 1.53125 -4.003906 L 1.53125 0.652344 L 0.878906 0.652344 C 0.902344 0.0664062 0.910156 -0.445312 0.910156 -0.878906 L 0.910156 -3.449219 C 0.910156 -3.734375 0.902344 -4.101562 0.878906 -4.558594 L 2.996094 -4.558594 C 3.015625 -4.925781 3.039062 -5.347656 3.058594 -5.828125 L 1.464844 -5.828125 C 1.203125 -5.828125 0.945312 -5.816406 0.683594 -5.792969 L 0.683594 -6.378906 C 0.945312 -6.359375 1.195312 -6.347656 1.433594 -6.347656 L 6.835938 -6.347656 C 7.054688 -6.347656 7.367188 -6.359375 7.78125 -6.378906 L 7.78125 -5.792969 C 7.476562 -5.816406 7.171875 -5.828125 6.867188 -5.828125 L 5.597656 -5.828125 C 5.597656 -5.5 5.578125 -5.078125 5.535156 -4.558594 L 7.488281 -4.558594 C 7.464844 -4.167969 7.453125 -3.832031 7.453125 -3.546875 L 7.453125 -0.324219 C 7.453125 0.0429688 7.339844 0.28125 7.113281 0.390625 C 6.882812 0.5 6.457031 0.585938 5.828125 0.652344 C 5.761719 0.347656 5.652344 0.0976562 5.5 -0.0976562 C 6.152344 -0.0742188 6.539062 -0.0976562 6.65625 -0.164062 C 6.777344 -0.226562 6.835938 -0.390625 6.835938 -0.652344 L 6.835938 -4.003906 L 5.46875 -4.003906 C 5.425781 -3.636719 5.359375 -3.289062 5.273438 -2.960938 C 5.882812 -2.484375 6.347656 -2.105469 6.671875 -1.824219 C 6.476562 -1.648438 6.316406 -1.476562 6.183594 -1.300781 C 5.96875 -1.585938 5.621094 -1.929688 5.144531 -2.34375 C 4.859375 -1.648438 4.558594 -1.074219 4.230469 -0.617188 C 4.015625 -0.769531 3.808594 -0.878906 3.613281 -0.945312 C 3.875 -1.226562 4.125 -1.621094 4.363281 -2.132812 C 4.601562 -2.640625 4.761719 -3.265625 4.851562 -4.003906 L 3.546875 -4.003906 C 3.484375 -3.679688 3.417969 -3.394531 3.351562 -3.15625 C 3.785156 -2.789062 4.089844 -2.496094 4.265625 -2.277344 C 4.113281 -2.148438 3.949219 -1.996094 3.777344 -1.824219 C 3.539062 -2.171875 3.332031 -2.429688 3.15625 -2.605469 C 2.917969 -2.039062 2.605469 -1.53125 2.214844 -1.074219 M 4.914062 -4.558594 C 4.9375 -5.078125 4.949219 -5.5 4.949219 -5.828125 L 3.679688 -5.828125 C 3.679688 -5.5 3.65625 -5.078125 3.613281 -4.558594 Z "/>
</g>
<g id="glyph-0-4">
<path d="M 5.5 -5.207031 C 5.5 -6.054688 5.492188 -6.609375 5.46875 -6.867188 L 6.152344 -6.867188 C 6.128906 -6.628906 6.121094 -6.078125 6.121094 -5.207031 L 7.8125 -5.207031 C 7.789062 -4.96875 7.78125 -4.644531 7.78125 -4.230469 L 7.78125 -2.019531 C 7.78125 -1.78125 7.789062 -1.507812 7.8125 -1.203125 L 7.160156 -1.203125 L 7.160156 -1.855469 L 6.121094 -1.855469 L 6.121094 -0.488281 C 6.121094 0.0742188 6.128906 0.542969 6.152344 0.910156 L 5.46875 0.910156 C 5.492188 0.542969 5.5 0.0742188 5.5 -0.488281 L 5.5 -1.855469 L 4.460938 -1.855469 L 4.460938 -1.074219 L 3.808594 -1.074219 C 3.832031 -1.335938 3.839844 -1.628906 3.839844 -1.953125 L 3.839844 -4.167969 C 3.839844 -4.621094 3.832031 -4.96875 3.808594 -5.207031 L 5.5 -5.207031 M 0.457031 -4.230469 C 0.78125 -4.210938 1.160156 -4.199219 1.59375 -4.199219 L 1.855469 -4.199219 L 1.855469 -5.632812 C 1.636719 -5.566406 1.269531 -5.480469 0.75 -5.371094 C 0.660156 -5.566406 0.5625 -5.761719 0.457031 -5.957031 C 0.933594 -5.980469 1.394531 -6.050781 1.839844 -6.167969 C 2.285156 -6.289062 2.691406 -6.445312 3.058594 -6.640625 C 3.191406 -6.46875 3.351562 -6.261719 3.546875 -6.023438 C 3.332031 -6 3.148438 -5.96875 2.996094 -5.925781 C 2.84375 -5.882812 2.667969 -5.835938 2.472656 -5.792969 L 2.472656 -4.199219 C 2.757812 -4.199219 3.101562 -4.210938 3.515625 -4.230469 L 3.515625 -3.644531 C 3.101562 -3.667969 2.757812 -3.679688 2.472656 -3.679688 L 2.472656 -0.292969 C 2.472656 0.0117188 2.484375 0.390625 2.507812 0.847656 L 1.824219 0.847656 C 1.84375 0.390625 1.855469 0.0117188 1.855469 -0.292969 L 1.855469 -2.441406 C 1.683594 -2.007812 1.523438 -1.660156 1.382812 -1.398438 C 1.242188 -1.140625 1.050781 -0.824219 0.8125 -0.457031 C 0.640625 -0.695312 0.476562 -0.910156 0.324219 -1.105469 C 0.628906 -1.433594 0.90625 -1.8125 1.15625 -2.246094 C 1.40625 -2.679688 1.585938 -3.15625 1.691406 -3.679688 L 1.203125 -3.679688 C 0.902344 -3.679688 0.652344 -3.667969 0.457031 -3.644531 L 0.457031 -4.230469 M 5.5 -2.375 L 5.5 -4.6875 L 4.460938 -4.6875 L 4.460938 -2.375 L 5.5 -2.375 M 7.160156 -2.375 L 7.160156 -4.6875 L 6.121094 -4.6875 L 6.121094 -2.375 L 7.160156 -2.375 M 3.09375 -3.222656 C 3.15625 -3.070312 3.246094 -2.917969 3.351562 -2.765625 C 3.460938 -2.613281 3.582031 -2.398438 3.710938 -2.117188 C 3.515625 -2.027344 3.332031 -1.921875 3.15625 -1.789062 C 3.050781 -2.027344 2.957031 -2.230469 2.878906 -2.390625 C 2.804688 -2.554688 2.703125 -2.722656 2.570312 -2.898438 C 2.703125 -2.984375 2.875 -3.09375 3.09375 -3.222656 Z "/>
</g>
<g id="glyph-0-5">
<path d="M 7.585938 -6.316406 C 7.5625 -6.03125 7.550781 -5.414062 7.550781 -4.460938 C 7.550781 -3.527344 7.5625 -2.855469 7.585938 -2.441406 L 5.792969 -2.441406 L 5.792969 -1.464844 L 6.769531 -1.464844 C 7.160156 -1.464844 7.464844 -1.476562 7.683594 -1.496094 L 7.683594 -0.910156 C 7.445312 -0.933594 7.140625 -0.945312 6.769531 -0.945312 L 5.792969 -0.945312 L 5.792969 0.164062 L 6.964844 0.164062 C 7.378906 0.164062 7.726562 0.152344 8.007812 0.128906 L 8.007812 0.714844 C 7.726562 0.695312 7.390625 0.683594 7 0.683594 L 3.839844 0.683594 C 3.492188 0.683594 3.191406 0.695312 2.929688 0.714844 L 2.929688 0.128906 C 3.210938 0.152344 3.515625 0.164062 3.839844 0.164062 L 5.175781 0.164062 L 5.175781 -0.945312 L 4.101562 -0.945312 C 3.820312 -0.945312 3.570312 -0.933594 3.351562 -0.910156 L 3.351562 -1.496094 C 3.570312 -1.476562 3.820312 -1.464844 4.101562 -1.464844 L 5.175781 -1.464844 L 5.175781 -2.441406 L 3.417969 -2.441406 C 3.441406 -2.765625 3.449219 -3.429688 3.449219 -4.425781 C 3.449219 -5.425781 3.441406 -6.054688 3.417969 -6.316406 L 7.585938 -6.316406 M 2.277344 -5.890625 C 2.515625 -5.890625 2.777344 -5.902344 3.058594 -5.925781 L 3.058594 -5.304688 C 2.757812 -5.328125 2.496094 -5.339844 2.277344 -5.339844 L 1.984375 -5.339844 L 1.984375 -3.582031 C 2.289062 -3.582031 2.59375 -3.589844 2.898438 -3.613281 L 2.898438 -2.996094 C 2.59375 -3.015625 2.289062 -3.027344 1.984375 -3.027344 L 1.984375 -0.945312 C 2.398438 -1.097656 2.746094 -1.238281 3.027344 -1.367188 C 3.070312 -1.148438 3.113281 -0.964844 3.15625 -0.8125 C 2.746094 -0.683594 2.285156 -0.515625 1.773438 -0.308594 C 1.265625 -0.101562 0.867188 0.0859375 0.585938 0.261719 C 0.5 0.0429688 0.402344 -0.183594 0.292969 -0.421875 C 0.574219 -0.464844 0.945312 -0.585938 1.398438 -0.78125 L 1.398438 -3.027344 C 1.007812 -3.027344 0.671875 -3.015625 0.390625 -2.996094 L 0.390625 -3.613281 C 0.695312 -3.589844 1.03125 -3.582031 1.398438 -3.582031 L 1.398438 -5.339844 L 1.007812 -5.339844 C 0.8125 -5.339844 0.574219 -5.328125 0.292969 -5.304688 L 0.292969 -5.925781 C 0.574219 -5.902344 0.8125 -5.890625 1.007812 -5.890625 L 2.277344 -5.890625 M 6.933594 -2.960938 L 6.933594 -4.132812 L 5.792969 -4.132812 L 5.792969 -2.960938 L 6.933594 -2.960938 M 6.933594 -4.621094 L 6.933594 -5.792969 L 5.792969 -5.792969 L 5.792969 -4.621094 L 6.933594 -4.621094 M 5.175781 -2.960938 L 5.175781 -4.132812 L 4.070312 -4.132812 L 4.070312 -2.960938 L 5.175781 -2.960938 M 5.175781 -4.621094 L 5.175781 -5.792969 L 4.070312 -5.792969 L 4.070312 -4.621094 Z "/>
</g>
<g id="glyph-0-6">
<path d="M 2.507812 -6.542969 C 2.332031 -6.457031 2.203125 -6.261719 2.117188 -5.957031 L 3.808594 -5.957031 C 3.699219 -5.804688 3.558594 -5.597656 3.386719 -5.339844 C 3.210938 -5.078125 3.09375 -4.882812 3.027344 -4.753906 L 4.199219 -4.753906 C 4.15625 -4.320312 4.132812 -3.882812 4.132812 -3.449219 L 4.132812 -0.0976562 C 4.132812 0.164062 4.0625 0.332031 3.921875 0.40625 C 3.78125 0.484375 3.558594 0.542969 3.253906 0.585938 C 3.210938 0.347656 3.148438 0.121094 3.058594 -0.0976562 C 3.234375 -0.0976562 3.363281 -0.101562 3.449219 -0.113281 C 3.539062 -0.125 3.582031 -0.226562 3.582031 -0.421875 L 3.582031 -1.496094 L 2.898438 -1.496094 L 2.898438 0.03125 L 2.34375 0.03125 L 2.34375 -1.496094 L 1.660156 -1.496094 C 1.636719 -1.171875 1.585938 -0.835938 1.496094 -0.488281 C 1.410156 -0.140625 1.269531 0.238281 1.074219 0.652344 C 0.878906 0.542969 0.671875 0.433594 0.457031 0.324219 C 0.671875 0.0234375 0.835938 -0.351562 0.945312 -0.796875 C 1.050781 -1.242188 1.117188 -1.8125 1.140625 -2.507812 C 1.160156 -3.199219 1.160156 -3.894531 1.140625 -4.589844 C 0.964844 -4.394531 0.824219 -4.242188 0.714844 -4.132812 C 0.585938 -4.308594 0.433594 -4.460938 0.261719 -4.589844 C 0.585938 -4.851562 0.882812 -5.171875 1.15625 -5.550781 C 1.425781 -5.929688 1.648438 -6.378906 1.824219 -6.902344 C 1.996094 -6.792969 2.222656 -6.671875 2.507812 -6.542969 M 5.632812 -3.15625 C 5.523438 -3.070312 5.445312 -2.941406 5.402344 -2.765625 L 5.957031 -2.765625 C 5.957031 -3.222656 5.945312 -3.527344 5.925781 -3.679688 L 6.574219 -3.679688 C 6.53125 -3.484375 6.511719 -3.179688 6.511719 -2.765625 L 6.964844 -2.765625 C 7.292969 -2.765625 7.550781 -2.777344 7.746094 -2.800781 L 7.746094 -2.214844 C 7.464844 -2.257812 7.183594 -2.277344 6.902344 -2.277344 L 6.511719 -2.277344 L 6.511719 -1.335938 L 6.738281 -1.335938 C 7.152344 -1.335938 7.574219 -1.34375 8.007812 -1.367188 L 8.007812 -0.8125 C 7.59375 -0.835938 7.171875 -0.847656 6.738281 -0.847656 L 6.511719 -0.847656 L 6.511719 -0.292969 C 6.511719 0.0117188 6.519531 0.390625 6.542969 0.847656 L 5.925781 0.847656 C 5.945312 0.390625 5.957031 0.0117188 5.957031 -0.292969 L 5.957031 -0.847656 L 5.242188 -0.847656 C 5.003906 -0.847656 4.699219 -0.835938 4.328125 -0.8125 L 4.328125 -1.367188 C 4.65625 -1.34375 4.957031 -1.335938 5.242188 -1.335938 L 5.957031 -1.335938 L 5.957031 -2.277344 L 5.144531 -2.277344 C 5.078125 -2.105469 4.980469 -1.886719 4.851562 -1.628906 C 4.699219 -1.714844 4.523438 -1.832031 4.328125 -1.984375 C 4.480469 -2.160156 4.613281 -2.386719 4.71875 -2.667969 C 4.828125 -2.953125 4.914062 -3.222656 4.980469 -3.484375 L 5.632812 -3.15625 M 6.378906 -3.875 C 6.335938 -4.113281 6.261719 -4.339844 6.152344 -4.558594 C 6.390625 -4.558594 6.582031 -4.566406 6.722656 -4.589844 C 6.863281 -4.613281 6.945312 -4.675781 6.964844 -4.785156 C 6.988281 -4.894531 7.019531 -5.273438 7.0625 -5.925781 L 5.890625 -5.925781 C 5.761719 -5.316406 5.632812 -4.878906 5.5 -4.605469 C 5.371094 -4.335938 5.164062 -4.035156 4.882812 -3.710938 C 4.753906 -3.882812 4.578125 -4.046875 4.363281 -4.199219 C 4.601562 -4.371094 4.796875 -4.59375 4.949219 -4.867188 C 5.101562 -5.136719 5.207031 -5.492188 5.273438 -5.925781 C 5.011719 -5.925781 4.699219 -5.914062 4.328125 -5.890625 L 4.328125 -6.445312 C 4.675781 -6.421875 4.992188 -6.414062 5.273438 -6.414062 L 7.714844 -6.414062 C 7.648438 -5.347656 7.589844 -4.710938 7.535156 -4.492188 C 7.480469 -4.273438 7.347656 -4.125 7.128906 -4.035156 C 6.910156 -3.949219 6.664062 -3.894531 6.378906 -3.875 M 2.375 -4.753906 C 2.550781 -4.96875 2.703125 -5.207031 2.832031 -5.46875 L 1.789062 -5.46875 C 1.59375 -5.207031 1.421875 -4.96875 1.269531 -4.753906 L 2.375 -4.753906 M 3.582031 -2.019531 L 3.582031 -2.898438 L 2.898438 -2.898438 L 2.898438 -2.019531 L 3.582031 -2.019531 M 3.582031 -3.386719 L 3.582031 -4.265625 L 2.898438 -4.265625 L 2.898438 -3.386719 L 3.582031 -3.386719 M 2.34375 -2.019531 L 2.34375 -2.898438 L 1.726562 -2.898438 L 1.691406 -2.019531 L 2.34375 -2.019531 M 2.34375 -3.386719 L 2.34375 -4.265625 L 1.726562 -4.265625 L 1.726562 -3.386719 Z "/>
</g>
<g id="glyph-0-7">
<path d="M 0.554688 -5.175781 C 0.902344 -5.152344 1.28125 -5.144531 1.691406 -5.144531 L 6.542969 -5.144531 C 7.0625 -5.144531 7.488281 -5.152344 7.8125 -5.175781 L 7.8125 -4.523438 C 7.53125 -4.546875 7.140625 -4.558594 6.640625 -4.558594 L 3.289062 -4.558594 C 3.289062 -4.320312 3.277344 -3.882812 3.253906 -3.253906 L 6.902344 -3.253906 C 6.859375 -2.972656 6.8125 -2.5625 6.769531 -2.019531 L 6.574219 -0.226562 C 6.53125 0.164062 6.347656 0.417969 6.023438 0.535156 C 5.695312 0.65625 5.21875 0.75 4.589844 0.8125 C 4.566406 0.53125 4.480469 0.28125 4.328125 0.0664062 C 4.828125 0.0859375 5.207031 0.0664062 5.46875 0 C 5.730469 -0.0664062 5.890625 -0.25 5.957031 -0.554688 L 6.152344 -2.667969 L 3.222656 -2.667969 C 3.136719 -2.0625 3 -1.550781 2.816406 -1.140625 C 2.632812 -0.726562 2.375 -0.347656 2.050781 0 C 1.726562 0.347656 1.398438 0.652344 1.074219 0.910156 C 0.988281 0.78125 0.792969 0.628906 0.488281 0.457031 C 0.769531 0.304688 1.070312 0.0664062 1.382812 -0.261719 C 1.699219 -0.585938 1.957031 -0.953125 2.164062 -1.367188 C 2.371094 -1.78125 2.5 -2.234375 2.554688 -2.734375 C 2.609375 -3.234375 2.636719 -3.839844 2.636719 -4.558594 L 1.726562 -4.558594 C 1.246094 -4.558594 0.855469 -4.546875 0.554688 -4.523438 L 0.554688 -5.175781 M 4.003906 -5.304688 C 3.808594 -5.738281 3.589844 -6.140625 3.351562 -6.511719 C 3.546875 -6.617188 3.742188 -6.738281 3.9375 -6.867188 C 4.175781 -6.5 4.417969 -6.097656 4.65625 -5.664062 C 4.4375 -5.578125 4.222656 -5.457031 4.003906 -5.304688 Z "/>
</g>
<g id="glyph-0-8">
<path d="M 4.296875 -5.078125 C 4.253906 -5.835938 4.222656 -6.414062 4.199219 -6.804688 C 4.328125 -6.78125 4.613281 -6.761719 5.046875 -6.738281 C 5.003906 -6.585938 4.992188 -6.03125 5.011719 -5.078125 L 6.316406 -5.078125 C 6.726562 -5.078125 7.152344 -5.089844 7.585938 -5.109375 L 7.585938 -4.460938 C 7.195312 -4.480469 6.78125 -4.492188 6.347656 -4.492188 L 5.046875 -4.492188 C 5.109375 -3.929688 5.203125 -3.402344 5.320312 -2.914062 C 5.441406 -2.425781 5.597656 -1.964844 5.792969 -1.53125 C 5.988281 -1.097656 6.246094 -0.710938 6.558594 -0.375 C 6.875 -0.0390625 7.0625 -0.0234375 7.128906 -0.324219 C 7.195312 -0.628906 7.214844 -0.933594 7.195312 -1.238281 C 7.390625 -1.085938 7.660156 -0.945312 8.007812 -0.8125 C 7.855469 0.121094 7.632812 0.617188 7.339844 0.683594 C 7.046875 0.75 6.753906 0.679688 6.460938 0.472656 C 6.167969 0.265625 5.890625 -0.03125 5.632812 -0.421875 C 5.371094 -0.8125 5.160156 -1.242188 4.996094 -1.707031 C 4.832031 -2.175781 4.699219 -2.660156 4.589844 -3.15625 C 4.480469 -3.65625 4.40625 -4.101562 4.363281 -4.492188 L 1.984375 -4.492188 C 1.355469 -4.492188 0.847656 -4.480469 0.457031 -4.460938 L 0.457031 -5.109375 C 0.867188 -5.089844 1.367188 -5.078125 1.953125 -5.078125 L 4.296875 -5.078125 M 2.929688 -3.351562 C 3.34375 -3.351562 3.734375 -3.363281 4.101562 -3.386719 L 4.101562 -2.765625 C 3.710938 -2.789062 3.296875 -2.800781 2.863281 -2.800781 L 2.863281 -0.75 C 3.320312 -0.855469 3.839844 -0.988281 4.425781 -1.140625 L 4.425781 -0.554688 C 3.644531 -0.402344 3.027344 -0.253906 2.570312 -0.113281 C 2.117188 0.0273438 1.5625 0.226562 0.910156 0.488281 L 0.585938 -0.292969 C 0.847656 -0.316406 1.390625 -0.414062 2.214844 -0.585938 L 2.214844 -2.800781 C 1.585938 -2.800781 1.148438 -2.789062 0.910156 -2.765625 L 0.910156 -3.386719 C 1.148438 -3.363281 1.488281 -3.351562 1.921875 -3.351562 L 2.929688 -3.351562 M 6.121094 -6.609375 C 6.53125 -6.152344 6.824219 -5.816406 7 -5.597656 C 6.890625 -5.554688 6.683594 -5.425781 6.378906 -5.207031 C 6.226562 -5.46875 5.957031 -5.792969 5.566406 -6.183594 C 5.675781 -6.273438 5.859375 -6.414062 6.121094 -6.609375 Z "/>
</g>
<g id="glyph-0-9">
<path d="M 4.949219 -6.542969 C 4.882812 -6.433594 4.800781 -6.277344 4.703125 -6.070312 C 4.605469 -5.863281 4.480469 -5.621094 4.328125 -5.339844 L 6.574219 -5.339844 C 7.054688 -5.339844 7.476562 -5.359375 7.84375 -5.402344 L 7.84375 -4.753906 C 7.453125 -4.773438 7.03125 -4.785156 6.574219 -4.785156 L 6.21875 -4.785156 L 6.21875 -3.742188 C 6.804688 -3.742188 7.257812 -3.753906 7.585938 -3.777344 L 7.585938 -3.191406 C 7.257812 -3.210938 6.804688 -3.222656 6.21875 -3.222656 L 6.21875 -2.082031 C 6.824219 -2.082031 7.28125 -2.09375 7.585938 -2.117188 L 7.585938 -1.53125 C 7.28125 -1.550781 6.824219 -1.5625 6.21875 -1.5625 L 6.21875 -0.421875 L 6.769531 -0.421875 C 7.226562 -0.421875 7.648438 -0.433594 8.039062 -0.457031 L 8.039062 0.128906 C 7.648438 0.109375 7.226562 0.0976562 6.769531 0.0976562 L 4.296875 0.0976562 L 4.296875 0.78125 L 3.679688 0.78125 C 3.699219 0.414062 3.710938 -0.128906 3.710938 -0.847656 L 3.710938 -4.070312 C 3.582031 -3.851562 3.40625 -3.589844 3.191406 -3.289062 C 3.082031 -3.460938 2.917969 -3.613281 2.703125 -3.742188 C 3.113281 -4.285156 3.441406 -4.808594 3.679688 -5.304688 C 3.917969 -5.804688 4.089844 -6.304688 4.199219 -6.804688 C 4.4375 -6.671875 4.6875 -6.585938 4.949219 -6.542969 M 1.53125 -5.792969 C 1.53125 -6.097656 1.507812 -6.402344 1.464844 -6.707031 L 2.179688 -6.707031 C 2.136719 -6.445312 2.117188 -6.140625 2.117188 -5.792969 L 2.117188 -4.949219 C 2.355469 -4.949219 2.648438 -4.957031 2.996094 -4.980469 L 2.996094 -4.394531 C 2.648438 -4.417969 2.355469 -4.425781 2.117188 -4.425781 L 2.117188 -2.929688 C 2.332031 -3.015625 2.570312 -3.136719 2.832031 -3.289062 C 2.855469 -3.113281 2.886719 -2.90625 2.929688 -2.667969 C 2.734375 -2.605469 2.464844 -2.496094 2.117188 -2.34375 L 2.117188 0.0664062 C 2.09375 0.261719 2.007812 0.40625 1.855469 0.503906 C 1.703125 0.601562 1.355469 0.695312 0.8125 0.78125 C 0.835938 0.585938 0.769531 0.324219 0.617188 0 C 0.988281 0.0429688 1.230469 0.046875 1.351562 0.015625 C 1.46875 -0.015625 1.53125 -0.109375 1.53125 -0.261719 L 1.53125 -2.148438 C 1.378906 -2.082031 1.074219 -1.929688 0.617188 -1.691406 C 0.554688 -1.867188 0.433594 -2.09375 0.261719 -2.375 C 0.5 -2.417969 0.921875 -2.539062 1.53125 -2.734375 L 1.53125 -4.425781 C 1.097656 -4.425781 0.75 -4.417969 0.488281 -4.394531 L 0.488281 -4.980469 C 0.726562 -4.957031 1.074219 -4.949219 1.53125 -4.949219 L 1.53125 -5.792969 M 5.597656 -2.082031 L 5.597656 -3.222656 L 4.296875 -3.222656 L 4.296875 -2.082031 L 5.597656 -2.082031 M 5.597656 -0.421875 L 5.597656 -1.5625 L 4.296875 -1.5625 L 4.296875 -0.421875 L 5.597656 -0.421875 M 5.597656 -3.742188 L 5.597656 -4.785156 L 4.296875 -4.785156 L 4.296875 -3.742188 L 5.597656 -3.742188 M 5.988281 -6.804688 C 6.097656 -6.628906 6.292969 -6.335938 6.574219 -5.925781 C 6.46875 -5.882812 6.273438 -5.773438 5.988281 -5.597656 C 5.902344 -5.792969 5.695312 -6.097656 5.371094 -6.511719 C 5.652344 -6.640625 5.859375 -6.738281 5.988281 -6.804688 Z "/>
</g>
<g id="glyph-0-10">
<path d="M 1.921875 -5.925781 C 1.898438 -5.640625 1.886719 -5.382812 1.886719 -5.144531 L 1.886719 -3.839844 L 3.808594 -3.839844 L 3.808594 -5.761719 C 3.808594 -6.066406 3.796875 -6.371094 3.777344 -6.671875 L 4.460938 -6.671875 C 4.4375 -6.414062 4.425781 -6.109375 4.425781 -5.761719 L 4.425781 -3.839844 L 6.378906 -3.839844 L 6.378906 -5.046875 C 6.378906 -5.394531 6.371094 -5.675781 6.347656 -5.890625 L 7.03125 -5.890625 C 7.007812 -5.675781 7 -5.382812 7 -5.011719 L 7 -4.132812 C 7 -3.785156 7.007812 -3.503906 7.03125 -3.289062 L 4.425781 -3.289062 L 4.425781 -0.292969 L 6.671875 -0.292969 L 6.671875 -1.660156 C 6.671875 -1.984375 6.664062 -2.269531 6.640625 -2.507812 L 7.324219 -2.507812 C 7.300781 -2.269531 7.292969 -1.996094 7.292969 -1.691406 L 7.292969 -0.226562 C 7.292969 0.207031 7.300781 0.5625 7.324219 0.847656 L 6.671875 0.847656 L 6.671875 0.261719 L 0.878906 0.261719 C 0.902344 0 0.910156 -0.316406 0.910156 -0.683594 L 0.910156 -1.660156 C 0.910156 -2.027344 0.902344 -2.320312 0.878906 -2.539062 L 1.5625 -2.539062 C 1.539062 -2.320312 1.53125 -2.027344 1.53125 -1.660156 L 1.53125 -0.292969 L 3.808594 -0.292969 L 3.808594 -3.289062 L 1.238281 -3.289062 C 1.257812 -3.503906 1.269531 -3.777344 1.269531 -4.101562 L 1.269531 -5.109375 C 1.269531 -5.394531 1.257812 -5.664062 1.238281 -5.925781 Z "/>
</g>
<g id="glyph-0-11">
<path d="M 2.734375 -6.476562 C 2.625 -6.28125 2.472656 -5.835938 2.277344 -5.144531 L 3.742188 -5.144531 C 3.722656 -4.773438 3.710938 -4.308594 3.710938 -3.742188 L 3.710938 -0.878906 C 3.710938 -0.554688 3.722656 -0.0859375 3.742188 0.519531 L 3.09375 0.519531 L 3.09375 -0.128906 L 1.433594 -0.128906 L 1.433594 0.585938 L 0.78125 0.585938 C 0.804688 -0.109375 0.8125 -0.542969 0.8125 -0.714844 L 0.8125 -3.710938 C 0.8125 -4.296875 0.804688 -4.773438 0.78125 -5.144531 L 1.726562 -5.144531 C 1.832031 -5.640625 1.921875 -6.164062 1.984375 -6.707031 C 2.289062 -6.597656 2.539062 -6.519531 2.734375 -6.476562 M 7.585938 -4.003906 C 7.5625 -2.679688 7.507812 -1.421875 7.421875 -0.226562 C 7.378906 0.164062 7.171875 0.421875 6.804688 0.554688 C 6.433594 0.683594 6.023438 0.769531 5.566406 0.8125 C 5.542969 0.574219 5.445312 0.324219 5.273438 0.0664062 C 5.707031 0.0859375 6.050781 0.0742188 6.296875 0.03125 C 6.546875 -0.0117188 6.707031 -0.109375 6.769531 -0.261719 C 6.835938 -0.414062 6.882812 -0.855469 6.917969 -1.59375 C 6.949219 -2.332031 6.976562 -3.363281 7 -4.6875 L 5.109375 -4.6875 C 4.9375 -4.273438 4.6875 -3.785156 4.363281 -3.222656 C 4.210938 -3.375 4.027344 -3.492188 3.808594 -3.582031 C 4.003906 -3.839844 4.1875 -4.15625 4.363281 -4.523438 C 4.535156 -4.894531 4.6875 -5.296875 4.816406 -5.730469 C 4.949219 -6.164062 5.023438 -6.5 5.046875 -6.738281 C 5.347656 -6.609375 5.609375 -6.511719 5.828125 -6.445312 C 5.71875 -6.273438 5.625 -6.082031 5.550781 -5.875 C 5.472656 -5.667969 5.394531 -5.46875 5.304688 -5.273438 L 7.617188 -5.273438 C 7.59375 -4.816406 7.585938 -4.394531 7.585938 -4.003906 M 3.09375 -0.683594 L 3.09375 -2.410156 L 1.433594 -2.410156 L 1.433594 -0.683594 L 3.09375 -0.683594 M 3.09375 -2.960938 L 3.09375 -4.589844 L 1.433594 -4.589844 L 1.433594 -2.960938 L 3.09375 -2.960938 M 5.664062 -2.667969 C 5.792969 -2.410156 5.945312 -2.074219 6.121094 -1.660156 C 5.96875 -1.59375 5.761719 -1.488281 5.5 -1.335938 C 5.347656 -1.746094 5.207031 -2.097656 5.078125 -2.390625 C 4.949219 -2.683594 4.816406 -2.929688 4.6875 -3.125 C 4.839844 -3.210938 5.035156 -3.320312 5.273438 -3.449219 Z "/>
</g>
<g id="glyph-0-12">
<path d="M 7.453125 -2.507812 C 7.433594 -2.222656 7.421875 -1.910156 7.421875 -1.5625 L 7.421875 -0.457031 C 7.421875 -0.0429688 7.433594 0.316406 7.453125 0.617188 L 6.804688 0.617188 L 6.804688 0 L 4.589844 0 L 4.589844 0.683594 L 3.9375 0.683594 C 3.960938 0.121094 3.972656 -0.25 3.972656 -0.421875 L 3.972656 -1.628906 C 3.972656 -1.886719 3.960938 -2.179688 3.9375 -2.507812 L 7.453125 -2.507812 M 2.472656 -6.316406 C 2.300781 -6.097656 2.117188 -5.816406 1.921875 -5.46875 C 1.726562 -5.121094 1.488281 -4.6875 1.203125 -4.167969 C 1.683594 -4.1875 2.027344 -4.199219 2.246094 -4.199219 C 2.441406 -4.546875 2.605469 -4.882812 2.734375 -5.207031 C 2.953125 -5.054688 3.191406 -4.914062 3.449219 -4.785156 C 3.34375 -4.699219 3.152344 -4.460938 2.878906 -4.070312 C 2.609375 -3.679688 2.179688 -3.039062 1.59375 -2.148438 C 2.3125 -2.257812 2.875 -2.34375 3.289062 -2.410156 C 3.222656 -2.171875 3.191406 -1.964844 3.191406 -1.789062 C 2.996094 -1.769531 2.648438 -1.726562 2.148438 -1.660156 C 1.648438 -1.59375 1.160156 -1.496094 0.683594 -1.367188 C 0.597656 -1.585938 0.519531 -1.800781 0.457031 -2.019531 C 0.714844 -2.082031 0.976562 -2.285156 1.238281 -2.621094 C 1.496094 -2.957031 1.726562 -3.308594 1.921875 -3.679688 C 1.769531 -3.679688 1.546875 -3.660156 1.253906 -3.628906 C 0.960938 -3.597656 0.707031 -3.546875 0.488281 -3.484375 C 0.421875 -3.699219 0.359375 -3.90625 0.292969 -4.101562 C 0.53125 -4.296875 0.785156 -4.632812 1.058594 -5.109375 C 1.328125 -5.589844 1.539062 -6.109375 1.691406 -6.671875 C 1.953125 -6.542969 2.214844 -6.421875 2.472656 -6.316406 M 5.304688 -5.4375 C 5.304688 -5.804688 5.296875 -6.238281 5.273438 -6.738281 L 5.957031 -6.738281 C 5.933594 -6.347656 5.925781 -5.914062 5.925781 -5.4375 L 6.867188 -5.4375 C 7.28125 -5.4375 7.660156 -5.445312 8.007812 -5.46875 L 8.007812 -4.882812 C 7.660156 -4.90625 7.292969 -4.914062 6.902344 -4.914062 L 5.925781 -4.914062 L 5.925781 -3.839844 L 6.671875 -3.839844 C 6.976562 -3.839844 7.28125 -3.851562 7.585938 -3.875 L 7.585938 -3.289062 C 7.324219 -3.308594 7.007812 -3.320312 6.640625 -3.320312 L 4.753906 -3.320312 C 4.382812 -3.320312 4.058594 -3.308594 3.777344 -3.289062 L 3.777344 -3.875 C 4.058594 -3.851562 4.363281 -3.839844 4.6875 -3.839844 L 5.304688 -3.839844 L 5.304688 -4.914062 L 4.589844 -4.914062 C 4.199219 -4.914062 3.832031 -4.90625 3.484375 -4.882812 L 3.484375 -5.46875 C 3.765625 -5.445312 4.113281 -5.4375 4.523438 -5.4375 L 5.304688 -5.4375 M 6.804688 -0.519531 L 6.804688 -1.984375 L 4.589844 -1.984375 L 4.589844 -0.519531 L 6.804688 -0.519531 M 3.351562 -0.847656 C 3.289062 -0.652344 3.265625 -0.445312 3.289062 -0.226562 C 2.875 -0.164062 2.410156 -0.0859375 1.886719 0 C 1.367188 0.0859375 0.921875 0.183594 0.554688 0.292969 C 0.464844 0.0117188 0.378906 -0.238281 0.292969 -0.457031 C 0.75 -0.476562 1.160156 -0.515625 1.53125 -0.570312 C 1.898438 -0.625 2.507812 -0.714844 3.351562 -0.847656 Z "/>
</g>
<g id="glyph-0-13">
<path d="M 3.875 0.683594 C 3.894531 0.292969 3.90625 -0.183594 3.90625 -0.75 L 3.90625 -2.082031 L 3.777344 -2.082031 C 3.625 -1.800781 3.449219 -1.539062 3.253906 -1.300781 C 3.058594 -1.0625 2.835938 -0.851562 2.585938 -0.667969 C 2.339844 -0.484375 2.066406 -0.304688 1.773438 -0.128906 C 1.480469 0.0429688 1.183594 0.195312 0.878906 0.324219 C 0.792969 0.0859375 0.671875 -0.140625 0.519531 -0.359375 C 0.78125 -0.421875 1.03125 -0.515625 1.269531 -0.632812 C 1.507812 -0.753906 1.746094 -0.882812 1.984375 -1.023438 C 2.222656 -1.167969 2.429688 -1.324219 2.605469 -1.496094 C 2.777344 -1.671875 2.941406 -1.867188 3.09375 -2.082031 L 1.789062 -2.082031 C 1.464844 -2.082031 1.0625 -2.0625 0.585938 -2.019531 L 0.585938 -2.667969 C 1.019531 -2.625 1.421875 -2.605469 1.789062 -2.605469 L 3.90625 -2.605469 L 3.90625 -3.191406 L 1.496094 -3.191406 C 1.519531 -3.710938 1.53125 -4.285156 1.53125 -4.914062 C 1.53125 -5.542969 1.519531 -6.078125 1.496094 -6.511719 L 6.933594 -6.511719 C 6.910156 -6.078125 6.902344 -5.542969 6.902344 -4.914062 C 6.902344 -4.285156 6.910156 -3.710938 6.933594 -3.191406 L 4.523438 -3.191406 L 4.523438 -2.605469 L 6.574219 -2.605469 C 7.007812 -2.605469 7.390625 -2.613281 7.714844 -2.636719 L 7.714844 -2.019531 C 7.347656 -2.0625 6.988281 -2.082031 6.640625 -2.082031 L 5.371094 -2.082031 C 5.652344 -1.628906 6 -1.28125 6.414062 -1.042969 C 6.824219 -0.804688 7.3125 -0.617188 7.878906 -0.488281 C 7.726562 -0.292969 7.605469 -0.0546875 7.519531 0.226562 C 6.78125 -0.0546875 6.195312 -0.367188 5.761719 -0.714844 C 5.328125 -1.0625 5.003906 -1.519531 4.785156 -2.082031 L 4.523438 -2.082031 L 4.523438 -0.714844 C 4.523438 -0.238281 4.535156 0.226562 4.558594 0.683594 L 3.875 0.683594 M 6.28125 -5.046875 L 6.28125 -6.023438 L 4.523438 -6.023438 L 4.523438 -5.046875 L 6.28125 -5.046875 M 3.90625 -5.046875 L 3.90625 -6.023438 L 2.179688 -6.023438 L 2.179688 -5.046875 L 3.90625 -5.046875 M 6.28125 -3.679688 L 6.28125 -4.558594 L 4.523438 -4.558594 L 4.523438 -3.679688 L 6.28125 -3.679688 M 3.90625 -3.679688 L 3.90625 -4.558594 L 2.179688 -4.558594 L 2.179688 -3.679688 Z "/>
</g>
<g id="glyph-0-14">
<path d="M 6.609375 -6.511719 C 6.585938 -6.183594 6.574219 -5.730469 6.574219 -5.144531 C 6.574219 -4.578125 6.585938 -4.046875 6.609375 -3.546875 L 1.757812 -3.546875 C 1.78125 -4.046875 1.789062 -4.578125 1.789062 -5.144531 C 1.789062 -5.730469 1.78125 -6.183594 1.757812 -6.511719 L 6.609375 -6.511719 M 6.609375 -2.960938 C 6.976562 -2.960938 7.390625 -2.972656 7.84375 -2.996094 L 7.84375 -2.410156 C 7.390625 -2.429688 6.976562 -2.441406 6.609375 -2.441406 L 4.523438 -2.441406 L 4.523438 -1.628906 C 5.804688 -1.628906 6.640625 -1.636719 7.03125 -1.660156 L 7.03125 -1.074219 C 6.640625 -1.097656 5.804688 -1.105469 4.523438 -1.105469 L 4.523438 -0.128906 C 4.9375 -0.0664062 5.445312 -0.03125 6.054688 -0.03125 C 6.664062 -0.03125 7.335938 -0.0742188 8.074219 -0.164062 C 7.898438 0.0742188 7.789062 0.335938 7.746094 0.617188 L 6.085938 0.617188 C 5.609375 0.617188 5.164062 0.589844 4.753906 0.535156 C 4.339844 0.484375 3.933594 0.378906 3.53125 0.226562 C 3.128906 0.0742188 2.703125 -0.195312 2.246094 -0.585938 C 2.160156 -0.414062 2.035156 -0.210938 1.871094 0.015625 C 1.707031 0.242188 1.464844 0.519531 1.140625 0.847656 C 0.921875 0.671875 0.707031 0.519531 0.488281 0.390625 C 0.921875 0.128906 1.28125 -0.25 1.5625 -0.75 C 1.84375 -1.246094 2.007812 -1.714844 2.050781 -2.148438 L 2.832031 -1.921875 C 2.765625 -1.832031 2.660156 -1.585938 2.507812 -1.171875 C 2.898438 -0.757812 3.363281 -0.464844 3.90625 -0.292969 L 3.90625 -2.441406 L 1.824219 -2.441406 C 1.433594 -2.441406 1.019531 -2.429688 0.585938 -2.410156 L 0.585938 -2.996094 C 1.042969 -2.972656 1.453125 -2.960938 1.824219 -2.960938 L 6.609375 -2.960938 M 5.925781 -4.101562 L 5.925781 -4.785156 L 2.441406 -4.785156 L 2.441406 -4.101562 L 5.925781 -4.101562 M 5.925781 -5.339844 L 5.925781 -5.988281 L 2.441406 -5.988281 L 2.441406 -5.339844 Z "/>
</g>
<g id="glyph-1-0">
<path d="M 6.671875 -2.929688 C 7.085938 -2.929688 7.476562 -2.941406 7.84375 -2.960938 L 7.84375 -2.34375 C 7.476562 -2.367188 7.085938 -2.375 6.671875 -2.375 L 5.273438 -2.375 L 5.273438 -0.324219 C 5.273438 -0.128906 5.355469 -0.0273438 5.515625 -0.015625 C 5.679688 -0.00390625 5.902344 0 6.183594 0 C 6.488281 0 6.699219 -0.03125 6.820312 -0.0976562 C 6.9375 -0.164062 7.019531 -0.421875 7.0625 -0.878906 C 7.367188 -0.707031 7.640625 -0.597656 7.878906 -0.554688 C 7.746094 -0.121094 7.601562 0.171875 7.4375 0.324219 C 7.273438 0.476562 7.097656 0.5625 6.902344 0.585938 L 5.273438 0.585938 C 4.816406 0.5625 4.589844 0.359375 4.589844 -0.03125 L 4.589844 -2.375 L 3.417969 -2.375 C 3.394531 -1.855469 3.296875 -1.378906 3.125 -0.945312 C 2.953125 -0.511719 2.648438 -0.128906 2.214844 0.195312 C 1.78125 0.519531 1.34375 0.757812 0.910156 0.910156 C 0.738281 0.695312 0.542969 0.5 0.324219 0.324219 C 0.910156 0.152344 1.367188 -0.0507812 1.691406 -0.277344 C 2.019531 -0.503906 2.25 -0.757812 2.390625 -1.042969 C 2.535156 -1.324219 2.636719 -1.769531 2.703125 -2.375 L 1.691406 -2.375 C 1.214844 -2.375 0.804688 -2.367188 0.457031 -2.34375 L 0.457031 -2.960938 C 0.824219 -2.941406 1.238281 -2.929688 1.691406 -2.929688 L 6.671875 -2.929688 M 3.386719 -6.511719 C 3.539062 -6.597656 3.734375 -6.714844 3.972656 -6.867188 C 4.253906 -6.5 4.46875 -6.164062 4.621094 -5.859375 L 7.683594 -5.859375 C 7.640625 -5.554688 7.617188 -5.273438 7.617188 -5.011719 C 7.617188 -4.773438 7.640625 -4.535156 7.683594 -4.296875 L 6.964844 -4.296875 L 6.964844 -5.304688 L 1.335938 -5.304688 L 1.335938 -4.296875 L 0.585938 -4.296875 C 0.609375 -4.578125 0.617188 -4.851562 0.617188 -5.109375 C 0.617188 -5.371094 0.609375 -5.621094 0.585938 -5.859375 L 3.808594 -5.859375 C 3.722656 -6.011719 3.582031 -6.226562 3.386719 -6.511719 M 5.078125 -4.394531 C 5.492188 -4.394531 5.882812 -4.40625 6.25 -4.425781 L 6.25 -3.777344 C 5.882812 -3.796875 5.492188 -3.808594 5.078125 -3.808594 L 3.058594 -3.808594 C 2.648438 -3.808594 2.246094 -3.796875 1.855469 -3.777344 L 1.855469 -4.425781 C 2.246094 -4.40625 2.648438 -4.394531 3.058594 -4.394531 Z "/>
</g>
<g id="glyph-1-1">
<path d="M 4.523438 -6.28125 C 5.285156 -5.066406 6.433594 -4.285156 7.976562 -3.9375 C 7.78125 -3.699219 7.648438 -3.449219 7.585938 -3.191406 C 7.152344 -3.363281 6.78125 -3.546875 6.476562 -3.742188 L 6.476562 -3.222656 C 6.238281 -3.246094 5.859375 -3.253906 5.339844 -3.253906 L 4.558594 -3.253906 L 4.558594 -1.953125 L 5.792969 -1.953125 C 6.25 -1.953125 6.617188 -1.964844 6.902344 -1.984375 L 6.902344 -1.398438 C 6.617188 -1.421875 6.25 -1.433594 5.792969 -1.433594 L 4.558594 -1.433594 L 4.558594 0.03125 L 5.828125 0.03125 C 6.476562 0.03125 7.007812 0.0117188 7.421875 -0.03125 L 7.421875 0.652344 C 7.03125 0.585938 6.519531 0.554688 5.890625 0.554688 L 2.3125 0.554688 C 1.660156 0.554688 1.171875 0.5625 0.847656 0.585938 L 0.847656 0 C 1.171875 0.0234375 1.660156 0.03125 2.3125 0.03125 L 3.90625 0.03125 L 3.90625 -1.433594 L 2.996094 -1.433594 C 2.257812 -1.433594 1.769531 -1.421875 1.53125 -1.398438 L 1.53125 -1.984375 C 1.769531 -1.964844 2.246094 -1.953125 2.960938 -1.953125 L 3.90625 -1.953125 L 3.90625 -3.253906 L 3.253906 -3.253906 C 2.582031 -3.253906 2.148438 -3.246094 1.953125 -3.222656 L 1.953125 -3.742188 C 1.757812 -3.589844 1.390625 -3.363281 0.847656 -3.058594 C 0.714844 -3.320312 0.5625 -3.546875 0.390625 -3.742188 C 0.910156 -3.875 1.519531 -4.199219 2.214844 -4.71875 C 2.90625 -5.242188 3.460938 -5.925781 3.875 -6.769531 C 4.132812 -6.664062 4.40625 -6.554688 4.6875 -6.445312 L 4.523438 -6.28125 M 2.148438 -3.839844 C 2.410156 -3.820312 2.789062 -3.808594 3.289062 -3.808594 L 5.242188 -3.808594 C 5.675781 -3.808594 6.011719 -3.820312 6.25 -3.839844 C 5.316406 -4.320312 4.621094 -5.011719 4.167969 -5.925781 C 3.582031 -5.035156 2.90625 -4.339844 2.148438 -3.839844 Z "/>
</g>
<g id="glyph-1-2">
<path d="M 6.347656 -3.484375 C 6.910156 -3.484375 7.421875 -3.492188 7.878906 -3.515625 L 7.878906 -2.667969 C 7.421875 -2.691406 6.921875 -2.703125 6.378906 -2.703125 L 2.082031 -2.703125 C 1.519531 -2.703125 0.976562 -2.691406 0.457031 -2.667969 L 0.457031 -3.515625 C 0.976562 -3.492188 1.519531 -3.484375 2.082031 -3.484375 Z "/>
</g>
<g id="glyph-1-3">
<path d="M 4.328125 -2.636719 C 4.132812 -2.789062 3.960938 -2.90625 3.808594 -2.996094 C 3.980469 -3.34375 4.128906 -3.660156 4.246094 -3.953125 C 4.367188 -4.246094 4.476562 -4.539062 4.574219 -4.832031 C 4.671875 -5.125 4.757812 -5.441406 4.832031 -5.777344 C 4.910156 -6.113281 4.96875 -6.457031 5.011719 -6.804688 C 5.273438 -6.695312 5.535156 -6.617188 5.792969 -6.574219 C 5.621094 -6.316406 5.457031 -5.847656 5.304688 -5.175781 L 7.585938 -5.175781 L 7.585938 -4.589844 C 7.300781 -4.613281 7.0625 -4.621094 6.867188 -4.621094 C 6.761719 -2.972656 6.519531 -1.757812 6.152344 -0.976562 C 6.304688 -0.738281 6.539062 -0.527344 6.851562 -0.339844 C 7.167969 -0.15625 7.488281 -0.0234375 7.8125 0.0664062 C 7.703125 0.171875 7.601562 0.292969 7.503906 0.421875 C 7.40625 0.554688 7.355469 0.652344 7.355469 0.714844 C 7.03125 0.5625 6.722656 0.375 6.429688 0.144531 C 6.136719 -0.0820312 5.914062 -0.292969 5.761719 -0.488281 C 5.394531 -0.140625 5.09375 0.113281 4.867188 0.277344 C 4.636719 0.4375 4.40625 0.609375 4.167969 0.78125 C 4.078125 0.628906 3.90625 0.457031 3.644531 0.261719 C 3.972656 0.128906 4.300781 -0.0585938 4.636719 -0.308594 C 4.976562 -0.558594 5.199219 -0.78125 5.304688 -0.976562 C 5.003906 -1.648438 4.773438 -2.410156 4.621094 -3.253906 C 4.515625 -3.082031 4.417969 -2.875 4.328125 -2.636719 M 3.9375 -0.8125 C 3.917969 -0.640625 3.917969 -0.445312 3.9375 -0.226562 C 3.527344 -0.183594 3.167969 -0.125 2.863281 -0.046875 C 2.5625 0.0273438 2.175781 0.113281 1.707031 0.210938 C 1.242188 0.308594 0.902344 0.414062 0.683594 0.519531 C 0.554688 0.171875 0.457031 -0.0742188 0.390625 -0.226562 C 0.847656 -0.269531 1.367188 -0.347656 1.953125 -0.457031 L 1.953125 -1.726562 L 1.53125 -1.726562 C 1.203125 -1.726562 0.902344 -1.703125 0.617188 -1.660156 L 0.617188 -2.277344 C 0.921875 -2.257812 1.226562 -2.246094 1.53125 -2.246094 L 1.953125 -2.246094 L 1.953125 -3.351562 C 1.5625 -3.308594 1.195312 -3.246094 0.847656 -3.15625 C 0.78125 -3.417969 0.695312 -3.636719 0.585938 -3.808594 C 0.890625 -3.9375 1.148438 -4.210938 1.367188 -4.621094 C 1.585938 -5.035156 1.726562 -5.402344 1.789062 -5.730469 L 1.496094 -5.730469 C 1.214844 -5.730469 0.902344 -5.71875 0.554688 -5.695312 L 0.554688 -6.316406 C 0.945312 -6.292969 1.246094 -6.28125 1.464844 -6.28125 L 3.027344 -6.28125 C 3.332031 -6.28125 3.625 -6.292969 3.90625 -6.316406 L 3.90625 -5.695312 C 3.582031 -5.71875 3.320312 -5.730469 3.125 -5.730469 L 1.921875 -5.730469 C 2.09375 -5.597656 2.289062 -5.46875 2.507812 -5.339844 C 2.332031 -5.121094 2.171875 -4.882812 2.019531 -4.621094 C 1.867188 -4.363281 1.683594 -4.101562 1.464844 -3.839844 C 2.3125 -3.882812 2.886719 -3.929688 3.191406 -3.972656 C 2.996094 -4.320312 2.84375 -4.558594 2.734375 -4.6875 C 2.886719 -4.816406 3.039062 -4.9375 3.191406 -5.046875 C 3.667969 -4.308594 3.960938 -3.820312 4.070312 -3.582031 C 3.875 -3.40625 3.699219 -3.296875 3.546875 -3.253906 C 3.484375 -3.386719 3.441406 -3.492188 3.417969 -3.582031 L 2.539062 -3.449219 L 2.539062 -2.246094 L 3.027344 -2.246094 C 3.308594 -2.246094 3.582031 -2.257812 3.839844 -2.277344 L 3.839844 -1.660156 C 3.558594 -1.703125 3.296875 -1.726562 3.058594 -1.726562 L 2.539062 -1.726562 L 2.539062 -0.554688 C 3.058594 -0.640625 3.527344 -0.726562 3.9375 -0.8125 M 4.753906 -3.613281 C 4.816406 -3.65625 4.949219 -3.6875 5.144531 -3.710938 C 5.339844 -2.691406 5.535156 -1.953125 5.730469 -1.496094 C 6.03125 -2.214844 6.21875 -3.253906 6.28125 -4.621094 L 5.144531 -4.621094 C 5.078125 -4.449219 4.949219 -4.113281 4.753906 -3.613281 Z "/>
</g>
<g id="glyph-2-0">
<path d="M 2.734375 -6.476562 C 2.625 -6.28125 2.472656 -5.835938 2.277344 -5.144531 L 3.742188 -5.144531 C 3.722656 -4.773438 3.710938 -4.308594 3.710938 -3.742188 L 3.710938 -0.878906 C 3.710938 -0.554688 3.722656 -0.0859375 3.742188 0.519531 L 3.09375 0.519531 L 3.09375 -0.128906 L 1.433594 -0.128906 L 1.433594 0.585938 L 0.78125 0.585938 C 0.804688 -0.109375 0.8125 -0.542969 0.8125 -0.714844 L 0.8125 -3.710938 C 0.8125 -4.296875 0.804688 -4.773438 0.78125 -5.144531 L 1.726562 -5.144531 C 1.832031 -5.640625 1.921875 -6.164062 1.984375 -6.707031 C 2.289062 -6.597656 2.539062 -6.519531 2.734375 -6.476562 M 7.585938 -4.003906 C 7.5625 -2.679688 7.507812 -1.421875 7.421875 -0.226562 C 7.378906 0.164062 7.171875 0.421875 6.804688 0.554688 C 6.433594 0.683594 6.023438 0.769531 5.566406 0.8125 C 5.542969 0.574219 5.445312 0.324219 5.273438 0.0664062 C 5.707031 0.0859375 6.050781 0.0742188 6.296875 0.03125 C 6.546875 -0.0117188 6.707031 -0.109375 6.769531 -0.261719 C 6.835938 -0.414062 6.882812 -0.855469 6.917969 -1.59375 C 6.949219 -2.332031 6.976562 -3.363281 7 -4.6875 L 5.109375 -4.6875 C 4.9375 -4.273438 4.6875 -3.785156 4.363281 -3.222656 C 4.210938 -3.375 4.027344 -3.492188 3.808594 -3.582031 C 4.003906 -3.839844 4.1875 -4.15625 4.363281 -4.523438 C 4.535156 -4.894531 4.6875 -5.296875 4.816406 -5.730469 C 4.949219 -6.164062 5.023438 -6.5 5.046875 -6.738281 C 5.347656 -6.609375 5.609375 -6.511719 5.828125 -6.445312 C 5.71875 -6.273438 5.625 -6.082031 5.550781 -5.875 C 5.472656 -5.667969 5.394531 -5.46875 5.304688 -5.273438 L 7.617188 -5.273438 C 7.59375 -4.816406 7.585938 -4.394531 7.585938 -4.003906 M 3.09375 -0.683594 L 3.09375 -2.410156 L 1.433594 -2.410156 L 1.433594 -0.683594 L 3.09375 -0.683594 M 3.09375 -2.960938 L 3.09375 -4.589844 L 1.433594 -4.589844 L 1.433594 -2.960938 L 3.09375 -2.960938 M 5.664062 -2.667969 C 5.792969 -2.410156 5.945312 -2.074219 6.121094 -1.660156 C 5.96875 -1.59375 5.761719 -1.488281 5.5 -1.335938 C 5.347656 -1.746094 5.207031 -2.097656 5.078125 -2.390625 C 4.949219 -2.683594 4.816406 -2.929688 4.6875 -3.125 C 4.839844 -3.210938 5.035156 -3.320312 5.273438 -3.449219 Z "/>
</g>
</g>
</defs>
<g fill="rgb(100%, 100%, 100%)" fill-opacity="1">
<use xlink:href="#glyph-0-0" x="30" y="27.161133"/>
<use xlink:href="#glyph-0-1" x="38" y="27.161133"/>
<use xlink:href="#glyph-0-2" x="46" y="27.161133"/>
<use xlink:href="#glyph-0-3" x="50" y="27.161133"/>
<use xlink:href="#glyph-0-4" x="58" y="27.161133"/>
<use xlink:href="#glyph-0-5" x="66" y="27.161133"/>
<use xlink:href="#glyph-0-6" x="74" y="27.161133"/>
<use xlink:href="#glyph-0-7" x="82" y="27.161133"/>
<use xlink:href="#glyph-0-8" x="90" y="27.161133"/>
<use xlink:href="#glyph-0-9" x="98" y="27.161133"/>
<use xlink:href="#glyph-0-10" x="106" y="27.161133"/>
<use xlink:href="#glyph-0-11" x="114" y="27.161133"/>
<use xlink:href="#glyph-0-12" x="122" y="27.161133"/>
<use xlink:href="#glyph-0-13" x="130" y="27.161133"/>
<use xlink:href="#glyph-0-14" x="138" y="27.161133"/>
</g>
<g fill="rgb(34.509804%, 76.862745%, 86.666667%)" fill-opacity="1">
<use xlink:href="#glyph-1-0" x="146" y="27.161133"/>
<use xlink:href="#glyph-1-1" x="154" y="27.161133"/>
<use xlink:href="#glyph-1-2" x="162" y="27.161133"/>
<use xlink:href="#glyph-1-3" x="170" y="27.161133"/>
</g>
<g fill="rgb(100%, 100%, 100%)" fill-opacity="1">
<use xlink:href="#glyph-2-0" x="178" y="27.161133"/>
</g>
</svg>
